<svg width="227" height="208" viewBox="0 0 227 208" fill="none" xmlns="http://www.w3.org/2000/svg">
<g clip-path="url(#clip0_11_15)">
<path d="M186.157 78.3821C203.866 93.0394 225.177 113.052 227 137.293C227.608 174.175 186.96 188.833 154.104 200.671C100.24 220.055 34.2887 198.438 0 166.348" fill="#EAF1FA"/>
<path d="M177.846 89.8738C192.299 102.168 209.725 118.95 211.223 139.288C211.722 170.229 178.497 182.523 151.652 192.454C107.641 208.715 53.7335 190.589 25.7382 163.659L19.3145 157.241L37.6742 149.37L42.2315 153.468C56.6415 167.974 84.8971 184.474 111.959 184.713C142.624 184.453 188.805 171.703 192.603 146.031C194.664 130.507 190.194 118.018 177.477 108.607" fill="#464E5F"/>
<path d="M141.669 145.142L113.891 127.905L112.914 90.3508L134.312 80.9189L146.27 84.3014L141.669 145.142Z" fill="#464E5F"/>
<path d="M53.6033 149.457L52.2794 80.5503L81.0776 101.517L81.0993 170.424L53.6033 149.457Z" fill="#AFBED5"/>
<path d="M81.0993 170.424L113.609 149.739L114.151 108.239C114.238 101.908 116.3 95.7065 120.228 90.7412C121.313 89.3752 122.593 87.9225 124.09 86.4264C124.177 86.3397 124.307 86.2963 124.438 86.253C132.424 82.1116 141.669 88.5947 142.103 97.0508L141.691 137.51L177.629 113.248V46.8342L81.0993 101.322V169.904" fill="#7188AB"/>
<path d="M81.7721 177.688L113.76 157.003L113.457 149.761L81.0993 170.424V177.948L81.7721 177.688Z" fill="#AFBED5"/>
<path d="M81.3815 177.948L53.7118 155.051V149.392L81.0993 170.424L81.3815 177.948L81.7721 177.688L81.3815 177.948Z" fill="#E0E9F6"/>
<path d="M177.607 113.226V119.622L141.669 145.142V137.489L177.607 113.226Z" fill="#AFBED5"/>
<path d="M51.3246 48.3302L82.0759 68.0613L177.629 15.1561L150.501 0L51.3246 48.3302Z" fill="#E0E9F6"/>
<path d="M59.4193 153.772L59.3325 93.2781L73.5037 101.669V164.613" fill="#E0E9F6"/>
<path d="M65.9298 103.23V118.278" stroke="#7188AB" stroke-width="2" stroke-miterlimit="10" stroke-linecap="round"/>
<path d="M65.9298 127.558V142.627" stroke="#7188AB" stroke-width="2" stroke-miterlimit="10" stroke-linecap="round"/>
<path d="M82.0325 67.5193L81.8155 73.7856L51.4548 52.1031V47.4197L82.0325 67.5193Z" fill="#AFBED5"/>
<path d="M82.575 73.7856L81.924 74.1758V84.3016L57.1623 67.1074L56.5113 55.4639L81.8155 73.7856" fill="#8796B8"/>
<path d="M174.352 22.8316V31.6997L81.8589 84.5183L81.8155 73.7854L174.352 21.5957V22.8316Z" fill="#5A657B"/>
<path d="M174.352 22.5063L186.656 29.6832L81.2729 89.9605L47.4617 67.0205L57.0755 62.2286L57.1623 67.1072L81.8589 84.5182L174.352 31.6997V22.5063Z" fill="#AFBED5"/>
<path d="M81.2295 95.4029L47.4617 72.6363V67.0205L81.2512 89.9606L81.2295 95.4029Z" fill="#7188AB"/>
<path d="M81.0776 130.247L114.086 113.226V117.194L81.0993 134.475L81.0776 130.247Z" fill="#AFBED5"/>
<path d="M142.038 103.078L177.455 79.9866V75.6067L142.103 98.3516L142.038 103.078Z" fill="#AFBED5"/>
<path d="M81.9023 67.6926L177.629 15.156V19.666L81.924 74.1757L81.9023 67.6926Z" fill="#7188AB"/>
<path d="M81.2512 95.4029V89.9606L186.657 29.6833V34.4535L81.2512 95.4029Z" fill="#7188AB"/>
<path d="M81.0776 101.301L52.2794 81.1575V75.8887L81.0776 95.4679V101.301Z" fill="#52627B"/>
<path d="M81.0776 101.301L177.607 46.8125V39.9175L81.0776 95.4029V101.301Z" fill="#404C5F"/>
</g>
<defs>
<clipPath id="clip0_11_15">
<rect width="227" height="208" fill="white"/>
</clipPath>
</defs>
</svg>
