<svg width="106" height="263" viewBox="0 0 106 263" fill="none" xmlns="http://www.w3.org/2000/svg">
<g clip-path="url(#clip0_24_600)">
<path d="M54.4 28.47L42.49 22.48V12.98L54.26 18.54L54.4 28.47Z" fill="#E0EAFD" stroke="#4C5173" stroke-width="2.02" stroke-linecap="round" stroke-linejoin="round"/>
<path d="M54.4 28.47L66.31 21.79V12.98L54.26 18.54L54.4 28.47Z" fill="#6C7E9E" stroke="#4C5173" stroke-width="2.02" stroke-linecap="round" stroke-linejoin="round"/>
<path d="M42.49 12.98L46.67 11.09L54.4 14.4L62.23 10.75L66.31 12.98L54.26 18.54L42.49 12.98Z" fill="#E0EAFD" stroke="#4C5173" stroke-width="2.02" stroke-linecap="round" stroke-linejoin="round"/>
<path d="M54.4 14.4L46.67 11.09V5.01001L54.4 8.57001V14.4Z" fill="#E0EAFD" stroke="#4C5173" stroke-width="2.02" stroke-linecap="round" stroke-linejoin="round"/>
<path d="M54.4 14.4L62.05 10.75V5.01001L54.4 8.57001V14.4Z" fill="#6C7E9E" stroke="#4C5173" stroke-width="2.02" stroke-linecap="round" stroke-linejoin="round"/>
<path d="M46.67 5.01001L54.4 1.01001L62.05 5.01001L54.4 8.57001L46.67 5.01001Z" fill="#E0EAFD" stroke="#4C5173" stroke-width="2.02" stroke-linecap="round" stroke-linejoin="round"/>
<path d="M45.14 51.3101L54.4 55.2001L64.4 51.3101" stroke="#4C5173" stroke-width="2.69" stroke-miterlimit="10"/>
<path d="M50.08 26.29L8.16 238.8" stroke="#4C5173" stroke-width="2.69" stroke-miterlimit="10"/>
<path d="M58.28 26.29L104.56 240.71" stroke="#4C5173" stroke-width="2.69" stroke-miterlimit="10"/>
<path d="M43.85 57.8701L54.36 62.5001L37.16 91.7601L54.36 98.6601L29.12 130.48L54.36 144.04L20.69 175.29L54.77 187.86L13.98 209.28L54.77 231.5L98.19 211.17L54.77 187.86L89.52 171.01L54.36 144.04L81.42 131.64L54.36 98.6601L72.57 92.5001L54.36 62.5001L65.24 58.5601" stroke="#4C5173" stroke-width="2.69" stroke-miterlimit="10"/>
<path d="M37.16 91.7603L54.36 144.04L72.57 92.5003" stroke="#4C5173" stroke-width="2.69" stroke-miterlimit="10"/>
<path d="M29.12 130.48L54.77 187.86L81.42 131.64" stroke="#4C5173" stroke-width="2.69" stroke-miterlimit="10"/>
<path d="M20.69 175.29L54.77 231.5L89.52 171.01" stroke="#4C5173" stroke-width="2.69" stroke-miterlimit="10"/>
<path d="M54.4 262.79V28.47L54.26 18.54L54.4 28.47" stroke="#4C5173" stroke-width="2.69" stroke-miterlimit="10"/>
<path d="M54.4 8.56982V14.3998" stroke="#4C5173" stroke-width="2.02" stroke-linecap="round" stroke-linejoin="round"/>
<path d="M71.87 108.42C80.5906 108.42 87.66 100.773 87.66 91.3398C87.66 81.9067 80.5906 74.2598 71.87 74.2598C63.1494 74.2598 56.08 81.9067 56.08 91.3398C56.08 100.773 63.1494 108.42 71.87 108.42Z" fill="#E0EAFD" stroke="#4C5173" stroke-width="2.69" stroke-miterlimit="10"/>
<path d="M72.57 105.72C79.1477 105.72 84.48 99.9534 84.48 92.84C84.48 85.7265 79.1477 79.96 72.57 79.96C65.9923 79.96 60.66 85.7265 60.66 92.84C60.66 99.9534 65.9923 105.72 72.57 105.72Z" fill="#8796B8"/>
<path d="M20.69 194.49C31.3712 194.49 40.03 183.977 40.03 171.01C40.03 158.042 31.3712 147.53 20.69 147.53C10.0088 147.53 1.35001 158.042 1.35001 171.01C1.35001 183.977 10.0088 194.49 20.69 194.49Z" fill="#E0EAFD" stroke="#4C5173" stroke-width="2.69" stroke-miterlimit="10"/>
<path d="M20.69 190.9C29.1068 190.9 35.93 182.617 35.93 172.4C35.93 162.183 29.1068 153.9 20.69 153.9C12.2732 153.9 5.45001 162.183 5.45001 172.4C5.45001 182.617 12.2732 190.9 20.69 190.9Z" fill="#8796B8"/>
<path d="M20.69 176.58C22.9654 176.58 24.81 174.342 24.81 171.58C24.81 168.819 22.9654 166.58 20.69 166.58C18.4146 166.58 16.57 168.819 16.57 171.58C16.57 174.342 18.4146 176.58 20.69 176.58Z" fill="#E0EAFD" stroke="#6C7E9E" stroke-width="2.69" stroke-miterlimit="10"/>
<path d="M73.15 96.9602C75.4254 96.9602 77.27 95.1156 77.27 92.8402C77.27 90.5648 75.4254 88.7202 73.15 88.7202C70.8746 88.7202 69.03 90.5648 69.03 92.8402C69.03 95.1156 70.8746 96.9602 73.15 96.9602Z" fill="#E0EAFD" stroke="#6C7E9E" stroke-width="2.69" stroke-miterlimit="10"/>
<path d="M20.96 169.77L12.96 167.68C12.96 167.68 10.99 168.05 10.99 169.26C10.99 170.47 12.73 170.65 12.73 170.65L20.96 172.78C20.96 172.78 22.19 170.09 20.96 169.77Z" fill="#E0EAFD" stroke="#6C7E9E" stroke-width="0.67" stroke-miterlimit="10"/>
<path d="M72.74 90.9899L78.82 89.3999C78.82 89.3999 80.32 89.6799 80.32 90.5999C80.32 91.5199 79 91.6599 79 91.6599L72.74 93.2799C72.74 93.2799 71.81 91.2299 72.74 90.9899Z" fill="#E0EAFD" stroke="#6C7E9E" stroke-width="0.67" stroke-miterlimit="10"/>
</g>
<defs>
<clipPath id="clip0_24_600">
<rect width="105.88" height="262.79" fill="white"/>
</clipPath>
</defs>
</svg>
