<svg width="214" height="289" viewBox="0 0 214 289" fill="none" xmlns="http://www.w3.org/2000/svg">
<g clip-path="url(#clip0_84_139)">
<path d="M42.6445 105.317L33.3082 100.622V93.1748L42.5347 97.5333L42.6445 105.317Z" fill="#E0EAFD" stroke="#4C5173" stroke-width="2.02" stroke-linecap="round" stroke-linejoin="round"/>
<path d="M42.6445 105.317L51.9808 100.081V93.1748L42.5348 97.5333L42.6445 105.317Z" fill="#6C7E9E" stroke="#4C5173" stroke-width="2.02" stroke-linecap="round" stroke-linejoin="round"/>
<path d="M33.3082 93.1748L36.5849 91.6933L42.6445 94.288L48.7825 91.4268L51.9808 93.1748L42.5347 97.5333L33.3082 93.1748Z" fill="#E0EAFD" stroke="#4C5173" stroke-width="2.02" stroke-linecap="round" stroke-linejoin="round"/>
<path d="M42.6445 94.288L36.5849 91.6933V86.9272L42.6445 89.7179V94.288Z" fill="#E0EAFD" stroke="#4C5173" stroke-width="2.02" stroke-linecap="round" stroke-linejoin="round"/>
<path d="M42.6445 94.288L48.6414 91.4268V86.9272L42.6445 89.7179V94.288Z" fill="#6C7E9E" stroke="#4C5173" stroke-width="2.02" stroke-linecap="round" stroke-linejoin="round"/>
<path d="M36.5849 86.9271L42.6445 83.7915L48.6414 86.9271L42.6445 89.7178L36.5849 86.9271Z" fill="#E0EAFD" stroke="#4C5173" stroke-width="2.02" stroke-linecap="round" stroke-linejoin="round"/>
<path d="M35.3855 123.222L42.6445 126.271L50.4836 123.222" stroke="#4C5173" stroke-width="2.69" stroke-miterlimit="10"/>
<path d="M39.258 103.608L6.39667 270.194" stroke="#4C5173" stroke-width="2.69" stroke-miterlimit="10"/>
<path d="M45.686 103.608L81.9652 271.691" stroke="#4C5173" stroke-width="2.69" stroke-miterlimit="10"/>
<path d="M34.3743 128.364L42.6132 131.993L29.13 154.93L42.6132 160.339L22.8274 185.282L42.6132 195.912L16.219 220.409L42.9346 230.262L10.959 247.053L42.9346 264.472L76.9718 248.535L42.9346 230.262L70.1753 217.054L42.6132 195.912L63.8257 186.192L42.6132 160.339L56.8881 155.51L42.6132 131.993L51.1421 128.905" stroke="#4C5173" stroke-width="2.69" stroke-miterlimit="10"/>
<path d="M29.1299 154.93L42.6131 195.912L56.8881 155.51" stroke="#4C5173" stroke-width="2.69" stroke-miterlimit="10"/>
<path d="M22.8273 185.283L42.9345 230.263L63.8256 186.192" stroke="#4C5173" stroke-width="2.69" stroke-miterlimit="10"/>
<path d="M16.219 220.409L42.9346 264.472L70.1753 217.054" stroke="#4C5173" stroke-width="2.69" stroke-miterlimit="10"/>
<path d="M42.6445 289V105.317L42.5348 97.5332L42.6445 105.317" stroke="#4C5173" stroke-width="2.69" stroke-miterlimit="10"/>
<path d="M42.6445 89.7178V94.2879" stroke="#4C5173" stroke-width="2.02" stroke-linecap="round" stroke-linejoin="round"/>
<path d="M56.3393 167.99C63.1755 167.99 68.7172 161.995 68.7172 154.601C68.7172 147.206 63.1755 141.212 56.3393 141.212C49.5032 141.212 43.9615 147.206 43.9615 154.601C43.9615 161.995 49.5032 167.99 56.3393 167.99Z" fill="#E0EAFD" stroke="#4C5173" stroke-width="2.69" stroke-miterlimit="10"/>
<path d="M56.8881 165.873C62.0444 165.873 66.2244 161.353 66.2244 155.777C66.2244 150.201 62.0444 145.68 56.8881 145.68C51.7318 145.68 47.5518 150.201 47.5518 155.777C47.5518 161.353 51.7318 165.873 56.8881 165.873Z" fill="#8796B8"/>
<path d="M16.219 235.46C24.5921 235.46 31.3798 227.219 31.3798 217.054C31.3798 206.889 24.5921 198.648 16.219 198.648C7.84599 198.648 1.05829 206.889 1.05829 217.054C1.05829 227.219 7.84599 235.46 16.219 235.46Z" fill="#E0EAFD" stroke="#4C5173" stroke-width="2.69" stroke-miterlimit="10"/>
<path d="M16.219 232.646C22.817 232.646 28.1657 226.153 28.1657 218.144C28.1657 210.134 22.817 203.642 16.219 203.642C9.62101 203.642 4.27228 210.134 4.27228 218.144C4.27228 226.153 9.62101 232.646 16.219 232.646Z" fill="#8796B8"/>
<path d="M16.219 221.421C18.0027 221.421 19.4487 219.666 19.4487 217.501C19.4487 215.336 18.0027 213.582 16.219 213.582C14.4353 213.582 12.9893 215.336 12.9893 217.501C12.9893 219.666 14.4353 221.421 16.219 221.421Z" fill="#E0EAFD" stroke="#6C7E9E" stroke-width="2.69" stroke-miterlimit="10"/>
<path d="M57.3427 159.007C59.1264 159.007 60.5724 157.561 60.5724 155.777C60.5724 153.993 59.1264 152.547 57.3427 152.547C55.559 152.547 54.113 153.993 54.113 155.777C54.113 157.561 55.559 159.007 57.3427 159.007Z" fill="#E0EAFD" stroke="#6C7E9E" stroke-width="2.69" stroke-miterlimit="10"/>
<path d="M16.4307 216.082L10.1594 214.444C10.1594 214.444 8.61514 214.734 8.61514 215.682C8.61514 216.631 9.97914 216.772 9.97914 216.772L16.4307 218.442C16.4307 218.442 17.3949 216.333 16.4307 216.082Z" fill="#E0EAFD" stroke="#6C7E9E" stroke-width="0.67" stroke-miterlimit="10"/>
<path d="M57.0213 154.326L61.7875 153.08C61.7875 153.08 62.9634 153.3 62.9634 154.021C62.9634 154.742 61.9286 154.852 61.9286 154.852L57.0213 156.122C57.0213 156.122 56.2923 154.515 57.0213 154.326Z" fill="#E0EAFD" stroke="#6C7E9E" stroke-width="0.67" stroke-miterlimit="10"/>
</g>
<g clip-path="url(#clip1_84_139)">
<path d="M105.644 22.3176L96.3082 17.6221V10.175L105.535 14.5335L105.644 22.3176Z" fill="#E0EAFD" stroke="#4C5173" stroke-width="2.02" stroke-linecap="round" stroke-linejoin="round"/>
<path d="M105.645 22.3176L114.981 17.0812V10.175L105.535 14.5335L105.645 22.3176Z" fill="#6C7E9E" stroke="#4C5173" stroke-width="2.02" stroke-linecap="round" stroke-linejoin="round"/>
<path d="M96.3082 10.1751L99.5849 8.69353L105.644 11.2882L111.782 8.427L114.981 10.1751L105.535 14.5336L96.3082 10.1751Z" fill="#E0EAFD" stroke="#4C5173" stroke-width="2.02" stroke-linecap="round" stroke-linejoin="round"/>
<path d="M105.644 11.288L99.5849 8.69333V3.92725L105.644 6.71791V11.288Z" fill="#E0EAFD" stroke="#4C5173" stroke-width="2.02" stroke-linecap="round" stroke-linejoin="round"/>
<path d="M105.645 11.288L111.641 8.42681V3.92725L105.645 6.71791V11.288Z" fill="#6C7E9E" stroke="#4C5173" stroke-width="2.02" stroke-linecap="round" stroke-linejoin="round"/>
<path d="M99.5849 3.92733L105.644 0.791748L111.641 3.92733L105.644 6.718L99.5849 3.92733Z" fill="#E0EAFD" stroke="#4C5173" stroke-width="2.02" stroke-linecap="round" stroke-linejoin="round"/>
<path d="M98.3855 40.2217L105.645 43.271L113.484 40.2217" stroke="#4C5173" stroke-width="2.69" stroke-miterlimit="10"/>
<path d="M102.258 20.6086L69.3967 187.194" stroke="#4C5173" stroke-width="2.69" stroke-miterlimit="10"/>
<path d="M108.686 20.6086L144.965 188.692" stroke="#4C5173" stroke-width="2.69" stroke-miterlimit="10"/>
<path d="M97.3743 45.364L105.613 48.9935L92.13 71.9302L105.613 77.3391L85.8274 102.283L105.613 112.912L79.219 137.409L105.935 147.263L73.959 164.054L105.935 181.472L139.972 165.535L105.935 147.263L133.175 134.054L105.613 112.912L126.826 103.192L105.613 77.3391L119.888 72.5103L105.613 48.9935L114.142 45.9049" stroke="#4C5173" stroke-width="2.69" stroke-miterlimit="10"/>
<path d="M92.1299 71.9302L105.613 112.912L119.888 72.5103" stroke="#4C5173" stroke-width="2.69" stroke-miterlimit="10"/>
<path d="M85.8273 102.283L105.935 147.263L126.826 103.192" stroke="#4C5173" stroke-width="2.69" stroke-miterlimit="10"/>
<path d="M79.219 137.409L105.935 181.472L133.175 134.054" stroke="#4C5173" stroke-width="2.69" stroke-miterlimit="10"/>
<path d="M105.645 206V22.3175L105.535 14.5334L105.645 22.3175" stroke="#4C5173" stroke-width="2.69" stroke-miterlimit="10"/>
<path d="M105.645 6.71802V11.2881" stroke="#4C5173" stroke-width="2.02" stroke-linecap="round" stroke-linejoin="round"/>
<path d="M119.339 84.9898C126.175 84.9898 131.717 78.9954 131.717 71.6009C131.717 64.2063 126.175 58.2119 119.339 58.2119C112.503 58.2119 106.961 64.2063 106.961 71.6009C106.961 78.9954 112.503 84.9898 119.339 84.9898Z" fill="#E0EAFD" stroke="#4C5173" stroke-width="2.69" stroke-miterlimit="10"/>
<path d="M119.888 82.8733C125.044 82.8733 129.224 78.3529 129.224 72.7768C129.224 67.2006 125.044 62.6802 119.888 62.6802C114.732 62.6802 110.552 67.2006 110.552 72.7768C110.552 78.3529 114.732 82.8733 119.888 82.8733Z" fill="#8796B8"/>
<path d="M79.219 152.46C87.5921 152.46 94.3798 144.219 94.3798 134.054C94.3798 123.889 87.5921 115.648 79.219 115.648C70.846 115.648 64.0583 123.889 64.0583 134.054C64.0583 144.219 70.846 152.46 79.219 152.46Z" fill="#E0EAFD" stroke="#4C5173" stroke-width="2.69" stroke-miterlimit="10"/>
<path d="M79.219 149.646C85.817 149.646 91.1657 143.153 91.1657 135.144C91.1657 127.134 85.817 120.642 79.219 120.642C72.621 120.642 67.2723 127.134 67.2723 135.144C67.2723 143.153 72.621 149.646 79.219 149.646Z" fill="#8796B8"/>
<path d="M79.219 138.421C81.0027 138.421 82.4487 136.666 82.4487 134.501C82.4487 132.336 81.0027 130.582 79.219 130.582C77.4353 130.582 75.9893 132.336 75.9893 134.501C75.9893 136.666 77.4353 138.421 79.219 138.421Z" fill="#E0EAFD" stroke="#6C7E9E" stroke-width="2.69" stroke-miterlimit="10"/>
<path d="M120.343 76.0067C122.126 76.0067 123.572 74.5607 123.572 72.777C123.572 70.9933 122.126 69.5474 120.343 69.5474C118.559 69.5474 117.113 70.9933 117.113 72.777C117.113 74.5607 118.559 76.0067 120.343 76.0067Z" fill="#E0EAFD" stroke="#6C7E9E" stroke-width="2.69" stroke-miterlimit="10"/>
<path d="M79.4307 133.082L73.1594 131.444C73.1594 131.444 71.6151 131.734 71.6151 132.682C71.6151 133.631 72.9791 133.772 72.9791 133.772L79.4307 135.442C79.4307 135.442 80.3949 133.333 79.4307 133.082Z" fill="#E0EAFD" stroke="#6C7E9E" stroke-width="0.67" stroke-miterlimit="10"/>
<path d="M120.021 71.3265L124.787 70.0801C124.787 70.0801 125.963 70.2996 125.963 71.0208C125.963 71.7419 124.929 71.8517 124.929 71.8517L120.021 73.1216C120.021 73.1216 119.292 71.5146 120.021 71.3265Z" fill="#E0EAFD" stroke="#6C7E9E" stroke-width="0.67" stroke-miterlimit="10"/>
</g>
<g clip-path="url(#clip2_84_139)">
<path d="M173.644 101.317L164.308 96.6218V89.1748L173.535 93.5333L173.644 101.317Z" fill="#E0EAFD" stroke="#4C5173" stroke-width="2.02" stroke-linecap="round" stroke-linejoin="round"/>
<path d="M173.645 101.317L182.981 96.0809V89.1748L173.535 93.5333L173.645 101.317Z" fill="#6C7E9E" stroke="#4C5173" stroke-width="2.02" stroke-linecap="round" stroke-linejoin="round"/>
<path d="M164.308 89.1748L167.585 87.6933L173.644 90.288L179.782 87.4268L182.981 89.1748L173.535 93.5333L164.308 89.1748Z" fill="#E0EAFD" stroke="#4C5173" stroke-width="2.02" stroke-linecap="round" stroke-linejoin="round"/>
<path d="M173.644 90.288L167.585 87.6933V82.9272L173.644 85.7179V90.288Z" fill="#E0EAFD" stroke="#4C5173" stroke-width="2.02" stroke-linecap="round" stroke-linejoin="round"/>
<path d="M173.645 90.288L179.641 87.4268V82.9272L173.645 85.7179V90.288Z" fill="#6C7E9E" stroke="#4C5173" stroke-width="2.02" stroke-linecap="round" stroke-linejoin="round"/>
<path d="M167.585 82.9271L173.644 79.7915L179.641 82.9271L173.644 85.7178L167.585 82.9271Z" fill="#E0EAFD" stroke="#4C5173" stroke-width="2.02" stroke-linecap="round" stroke-linejoin="round"/>
<path d="M166.386 119.222L173.645 122.271L181.484 119.222" stroke="#4C5173" stroke-width="2.69" stroke-miterlimit="10"/>
<path d="M170.258 99.6084L137.397 266.194" stroke="#4C5173" stroke-width="2.69" stroke-miterlimit="10"/>
<path d="M176.686 99.6084L212.965 267.691" stroke="#4C5173" stroke-width="2.69" stroke-miterlimit="10"/>
<path d="M165.374 124.364L173.613 127.993L160.13 150.93L173.613 156.339L153.827 181.282L173.613 191.912L147.219 216.409L173.935 226.262L141.959 243.053L173.935 260.472L207.972 244.535L173.935 226.262L201.175 213.054L173.613 191.912L194.826 182.192L173.613 156.339L187.888 151.51L173.613 127.993L182.142 124.905" stroke="#4C5173" stroke-width="2.69" stroke-miterlimit="10"/>
<path d="M160.13 150.93L173.613 191.912L187.888 151.51" stroke="#4C5173" stroke-width="2.69" stroke-miterlimit="10"/>
<path d="M153.827 181.283L173.935 226.263L194.826 182.192" stroke="#4C5173" stroke-width="2.69" stroke-miterlimit="10"/>
<path d="M147.219 216.409L173.935 260.472L201.175 213.054" stroke="#4C5173" stroke-width="2.69" stroke-miterlimit="10"/>
<path d="M173.645 285V101.317L173.535 93.5332L173.645 101.317" stroke="#4C5173" stroke-width="2.69" stroke-miterlimit="10"/>
<path d="M173.645 85.7178V90.2879" stroke="#4C5173" stroke-width="2.02" stroke-linecap="round" stroke-linejoin="round"/>
<path d="M187.339 163.99C194.175 163.99 199.717 157.995 199.717 150.601C199.717 143.206 194.175 137.212 187.339 137.212C180.503 137.212 174.961 143.206 174.961 150.601C174.961 157.995 180.503 163.99 187.339 163.99Z" fill="#E0EAFD" stroke="#4C5173" stroke-width="2.69" stroke-miterlimit="10"/>
<path d="M187.888 161.873C193.044 161.873 197.224 157.353 197.224 151.777C197.224 146.201 193.044 141.68 187.888 141.68C182.732 141.68 178.552 146.201 178.552 151.777C178.552 157.353 182.732 161.873 187.888 161.873Z" fill="#8796B8"/>
<path d="M147.219 231.46C155.592 231.46 162.38 223.219 162.38 213.054C162.38 202.889 155.592 194.648 147.219 194.648C138.846 194.648 132.058 202.889 132.058 213.054C132.058 223.219 138.846 231.46 147.219 231.46Z" fill="#E0EAFD" stroke="#4C5173" stroke-width="2.69" stroke-miterlimit="10"/>
<path d="M147.219 228.646C153.817 228.646 159.166 222.153 159.166 214.144C159.166 206.134 153.817 199.642 147.219 199.642C140.621 199.642 135.272 206.134 135.272 214.144C135.272 222.153 140.621 228.646 147.219 228.646Z" fill="#8796B8"/>
<path d="M147.219 217.421C149.003 217.421 150.449 215.666 150.449 213.501C150.449 211.336 149.003 209.582 147.219 209.582C145.435 209.582 143.989 211.336 143.989 213.501C143.989 215.666 145.435 217.421 147.219 217.421Z" fill="#E0EAFD" stroke="#6C7E9E" stroke-width="2.69" stroke-miterlimit="10"/>
<path d="M188.343 155.007C190.126 155.007 191.572 153.561 191.572 151.777C191.572 149.993 190.126 148.547 188.343 148.547C186.559 148.547 185.113 149.993 185.113 151.777C185.113 153.561 186.559 155.007 188.343 155.007Z" fill="#E0EAFD" stroke="#6C7E9E" stroke-width="2.69" stroke-miterlimit="10"/>
<path d="M147.431 212.082L141.159 210.444C141.159 210.444 139.615 210.734 139.615 211.682C139.615 212.631 140.979 212.772 140.979 212.772L147.431 214.442C147.431 214.442 148.395 212.333 147.431 212.082Z" fill="#E0EAFD" stroke="#6C7E9E" stroke-width="0.67" stroke-miterlimit="10"/>
<path d="M188.021 150.326L192.787 149.08C192.787 149.08 193.963 149.3 193.963 150.021C193.963 150.742 192.929 150.852 192.929 150.852L188.021 152.122C188.021 152.122 187.292 150.515 188.021 150.326Z" fill="#E0EAFD" stroke="#6C7E9E" stroke-width="0.67" stroke-miterlimit="10"/>
</g>
<defs>
<clipPath id="clip0_84_139">
<rect width="83" height="206" fill="white" transform="translate(0 83)"/>
</clipPath>
<clipPath id="clip1_84_139">
<rect width="83" height="206" fill="white" transform="translate(63)"/>
</clipPath>
<clipPath id="clip2_84_139">
<rect width="83" height="206" fill="white" transform="translate(131 79)"/>
</clipPath>
</defs>
</svg>
