<svg width="143" height="149" viewBox="0 0 143 149" fill="none" xmlns="http://www.w3.org/2000/svg">
<g clip-path="url(#clip0_21_47)">
<path d="M43.9771 117.046L55.0755 124.739V109.679L43.9771 117.046Z" fill="#8796B8"/>
<path d="M56.3252 109.679V124.739L51.8918 119.472L56.3252 109.679Z" fill="#373A56"/>
<path d="M104.557 117.046L93.4588 124.739V109.679L104.557 117.046Z" fill="#4C5173"/>
<path d="M93.0422 109.679V124.739L97.4756 119.472L93.0422 109.679Z" fill="#373A56"/>
<path d="M56.3252 109.679L51.8918 119.472H97.4757L93.072 109.679H56.3252Z" fill="#E0EAFD"/>
<path d="M66.293 143.319V123.052H81.7653V143.319H66.293Z" fill="#404462"/>
<path d="M24.9342 90.1516L0 110.892L52.5464 149H95.2738L143 114.561L130.771 107.223L24.9342 90.1516Z" fill="#2A305C"/>
<path d="M93.191 74.3225V140.538H54.8375V74.6184" fill="#8796B8"/>
<path d="M17.5254 50.8303V114.324L54.8375 140.538V74.6182" fill="#E0EAFD"/>
<path d="M130.533 50.8303V114.324L93.191 140.538V74.6182" fill="#404462"/>
<path opacity="0.62" d="M21.3637 61.896V79.8553L33.5035 87.3704V69.4111L21.3637 61.896Z" fill="#8796B8"/>
<path opacity="0.62" d="M22.2266 62.4285V79.293L33.5035 86.246V69.411L22.2266 62.4285Z" fill="#4C5173"/>
<path opacity="0.62" d="M36.7468 70.9199V88.8792L48.8866 96.3943V78.435L36.7468 70.9199Z" fill="#8796B8"/>
<path opacity="0.62" d="M37.6096 71.4524V88.317L48.8866 95.2699V78.4349L37.6096 71.4524Z" fill="#4C5173"/>
<path d="M126.01 61.896V79.8553L113.9 87.3704V69.4111L126.01 61.896Z" fill="#8796B8"/>
<path d="M125.177 62.4285V79.293L113.9 86.246V69.411L125.177 62.4285Z" fill="#4C5173"/>
<path d="M110.627 70.9199V88.8792L98.5171 96.3943V78.435L110.627 70.9199Z" fill="#8796B8"/>
<path d="M109.794 71.4526V88.3172L98.5171 95.2702V78.4352L109.794 71.4526Z" fill="#4C5173"/>
<path d="M65.3111 36.6878H82.7769L122.38 13.1662L103.843 1.00596L77.0938 16.1545H71.5297L44.6019 0L25.6781 13.1662L65.3111 36.6878Z" fill="#E0EAFD"/>
<path d="M54.8375 74.6184L17.5254 50.8305V33.1671L25.6781 13.1663L65.3111 36.6879L56.1169 56.097L54.8375 74.6184Z" fill="#8796B8"/>
<path opacity="0.41" d="M56.1169 56.097L65.3111 36.6879L25.6781 13.1663L17.5254 33.1671L56.1169 56.097Z" fill="#E9F7FE"/>
<path d="M93.191 74.6184L130.533 50.8305V33.1671L122.38 13.1663L82.7472 36.6879L91.9116 56.097L93.191 74.6184Z" fill="#4C5173"/>
<path d="M65.3111 36.6877H82.7472L91.9413 56.511L93.191 74.6182H54.8375L56.1169 56.0968L65.3111 36.6877Z" fill="#8796B8"/>
<path opacity="0.7" d="M91.9116 56.5111L93.1613 74.6184H54.8077L56.0872 56.0969L91.9116 56.5111Z" fill="#4C5173"/>
<path d="M85.9309 81.8967H62.0381V99.4122H85.9309V81.8967Z" fill="#E0EAFD"/>
<path d="M82.6579 85.2993H65.3111V99.4123H82.6579V85.2993Z" fill="#4C5173"/>
<path d="M43.7391 114.235L54.8375 121.928V106.868L43.7391 114.235Z" fill="#8796B8"/>
<path d="M56.0872 106.868V121.928L51.624 116.661L56.0872 106.868Z" fill="#373A56"/>
<path d="M104.319 114.235L93.191 121.928V106.868L104.319 114.235Z" fill="#4C5173"/>
<path d="M141.631 92.0451L130.533 101.276V84.678L141.631 92.0451Z" fill="#4C5173"/>
<path d="M92.8042 106.868V121.928L97.2376 116.661L92.8042 106.868Z" fill="#373A56"/>
<path d="M56.0872 106.868L51.624 116.661H97.2376L92.834 106.868H56.0872Z" fill="#E0EAFD"/>
<path opacity="0.41" d="M91.9116 56.097L82.7472 36.6879L122.38 13.1663L130.533 33.1671L91.9116 56.097Z" fill="#E9F7FE"/>
<path d="M66.0252 140.538V120.241H81.5273V140.538H66.0252Z" fill="#404462"/>
<path d="M38.4428 128.999L25.9756 120.241V101.75L38.5915 109.265L38.4428 128.999Z" fill="#8796B8"/>
<path d="M108.455 129.472L120.922 120.715V102.223L108.306 109.738L108.455 129.472Z" fill="#070A1C"/>
<path d="M17.5254 84.678L6.42697 92.0451L43.7391 114.235L54.8375 106.868L17.5254 84.678Z" fill="#E0EAFD"/>
<path d="M130.533 84.678L141.631 92.0451L104.319 114.235L93.191 106.868L130.533 84.678Z" fill="#8796B8"/>
<path d="M73.7614 59.3514C73.9399 59.3514 74.1184 59.3514 74.2969 59.3514C74.4159 59.3514 74.4755 59.4106 74.4755 59.5289C74.4755 59.7952 74.4755 60.0615 74.4755 60.3278C74.4755 60.5053 74.535 60.5645 74.7135 60.5941C75.2788 60.6828 75.8144 60.8604 76.2905 61.1562C76.8558 61.5113 77.2426 62.0142 77.5104 62.606C77.5699 62.7539 77.5699 62.8427 77.3914 62.9019C76.7368 63.109 76.0822 63.2865 75.4276 63.4936C75.3086 63.5232 75.2193 63.4936 75.1598 63.3752C74.8028 62.606 73.9101 62.5172 73.2853 62.6947C73.077 62.7539 72.958 62.9314 72.958 63.1681C72.958 63.4048 73.077 63.5528 73.2853 63.6119C73.7018 63.7895 74.1184 63.8486 74.5647 63.9374C75.2193 64.0853 75.8739 64.2333 76.4393 64.5291C77.3319 65.0025 77.808 65.7718 77.8377 66.7482C77.8972 68.05 77.1534 69.1743 75.9334 69.6773C75.5466 69.8548 75.1301 69.9436 74.6837 70.0027C74.535 70.0027 74.4755 70.0915 74.4755 70.2394C74.4755 70.5353 74.4755 70.8016 74.4755 71.0975C74.4755 71.2454 74.4159 71.3046 74.2672 71.3046C73.9101 71.3046 73.5828 71.3046 73.2258 71.3046C73.0472 71.3046 73.0175 71.2454 73.0175 71.0975C73.0175 70.8312 73.0175 70.5353 73.0175 70.269C73.0175 70.0915 72.958 70.0323 72.7794 70.0027C72.1249 69.8844 71.5 69.6773 70.9347 69.2631C70.2801 68.7601 69.923 68.1092 69.685 67.3695C69.6552 67.2511 69.685 67.2216 69.804 67.192C70.2503 67.1032 70.7264 67.0144 71.1727 66.9553C71.4703 66.8961 71.7678 66.8369 72.0951 66.7777C72.2141 66.7777 72.2736 66.7778 72.3331 66.8961C72.5712 67.547 73.0472 67.8133 73.7018 67.8725C73.9696 67.8725 74.2374 67.8725 74.4755 67.8133C74.7432 67.7541 74.9218 67.6062 74.9515 67.3991C74.9515 67.1624 74.8623 66.9553 74.6242 66.8369C74.1779 66.6298 73.7018 66.5706 73.2258 66.4523C72.5117 66.2748 71.7976 66.0973 71.2025 65.683C70.5181 65.2096 70.1908 64.5291 70.1611 63.7303C70.0718 62.3101 70.9347 61.0083 72.6009 60.6532C73.0472 60.5645 73.0472 60.5349 73.0472 60.0911C73.0472 59.9136 73.0472 59.7065 73.0472 59.5289C73.0472 59.381 73.1068 59.2922 73.2555 59.3218C73.4341 59.3218 73.6126 59.3218 73.7614 59.3218V59.3514Z" fill="#E0EAFD"/>
</g>
<defs>
<clipPath id="clip0_21_47">
<rect width="143" height="149" fill="white"/>
</clipPath>
</defs>
</svg>
