<svg width="170" height="249" viewBox="0 0 170 249" fill="none" xmlns="http://www.w3.org/2000/svg">
<g clip-path="url(#clip0_21_92)">
<path d="M52.2805 210.785L65.4744 219.949V201.974L52.2805 210.785Z" fill="#8796B8"/>
<path d="M66.96 201.974V219.949L61.6895 213.651L66.96 201.974Z" fill="#373A56"/>
<path d="M124.299 210.785L111.105 219.949V201.974L124.299 210.785Z" fill="#4C5173"/>
<path d="M110.61 201.974V219.949L115.88 213.651L110.61 201.974Z" fill="#373A56"/>
<path d="M66.96 201.974L61.6895 213.651H115.88L110.645 201.974H66.96Z" fill="#E0EAFD"/>
<path d="M78.8098 242.206V217.968H97.2035V242.206H78.8098Z" fill="#404462"/>
<path d="M29.6421 178.62L0 203.425L62.4677 249H113.263L170 207.812L155.462 199.037L29.6421 178.62Z" fill="#2A305C"/>
<path d="M110.786 89.2395H65.1914V238.845H110.786V89.2395Z" fill="#8796B8"/>
<path d="M20.8344 60.7903V207.529L65.1914 238.845V89.2393L20.8344 60.7903Z" fill="#E0EAFD"/>
<path d="M155.179 60.7903V207.529L110.786 238.845V89.2393L155.179 60.7903Z" fill="#404462"/>
<path opacity="0.62" d="M25.3974 79.1196V100.563L39.8294 109.586V88.1073L25.3974 79.1196Z" fill="#8796B8"/>
<path opacity="0.62" d="M26.4232 79.7566V99.9257L39.8293 108.241V88.1073L26.4232 79.7566Z" fill="#4C5173"/>
<path opacity="0.62" d="M43.685 89.9119V111.39L58.1169 120.378V98.8995L43.685 89.9119Z" fill="#8796B8"/>
<path opacity="0.62" d="M44.7108 90.5488V110.718L58.1169 119.033V98.8995L44.7108 90.5488Z" fill="#4C5173"/>
<path opacity="0.62" d="M25.3974 111.744V133.222L39.8294 142.21V120.767L25.3974 111.744Z" fill="#8796B8"/>
<path opacity="0.62" d="M26.4232 112.381V132.55L39.8293 140.866V120.767L26.4232 112.381Z" fill="#4C5173"/>
<path opacity="0.62" d="M43.685 122.536V144.015L58.1169 153.002V131.559L43.685 122.536Z" fill="#8796B8"/>
<path opacity="0.62" d="M44.7108 123.173V143.378L58.1169 151.658V131.559L44.7108 123.173Z" fill="#4C5173"/>
<path opacity="0.62" d="M25.3974 144.828V166.271L39.8294 175.294V153.816L25.3974 144.828Z" fill="#8796B8"/>
<path opacity="0.62" d="M26.4232 145.465V165.634L39.8293 173.95V153.816L26.4232 145.465Z" fill="#4C5173"/>
<path opacity="0.62" d="M43.685 155.621V177.064L58.1169 186.087V164.608L43.685 155.621Z" fill="#8796B8"/>
<path opacity="0.62" d="M44.7108 156.258V176.427L58.1169 184.742V164.608L44.7108 156.258Z" fill="#4C5173"/>
<path d="M149.802 79.1196V100.563L135.406 109.586V88.1073L149.802 79.1196Z" fill="#8796B8"/>
<path d="M148.812 79.7563V99.9254L135.406 108.241V88.1071L148.812 79.7563Z" fill="#4C5173"/>
<path d="M131.515 89.9119V111.39L117.118 120.378V98.8995L131.515 89.9119Z" fill="#8796B8"/>
<path d="M130.524 90.5486V110.718L117.118 119.033V98.8993L130.524 90.5486Z" fill="#4C5173"/>
<path d="M149.802 111.744V133.222L135.406 142.21V120.767L149.802 111.744Z" fill="#8796B8"/>
<path d="M148.812 112.381V132.55L135.406 140.865V120.767L148.812 112.381Z" fill="#4C5173"/>
<path d="M131.515 122.536V144.014L117.118 153.002V131.559L131.515 122.536Z" fill="#8796B8"/>
<path d="M130.524 123.173V143.378L117.118 151.658V131.559L130.524 123.173Z" fill="#4C5173"/>
<path d="M149.802 144.828V166.271L135.406 175.294V153.816L149.802 144.828Z" fill="#8796B8"/>
<path d="M148.812 145.465V165.634L135.406 173.95V153.816L148.812 145.465Z" fill="#4C5173"/>
<path d="M131.515 155.621V177.064L117.118 186.087V164.608L131.515 155.621Z" fill="#8796B8"/>
<path d="M130.524 156.258V176.427L117.118 184.742V164.608L130.524 156.258Z" fill="#4C5173"/>
<path d="M77.6425 43.8766H98.4062L145.487 15.7461L123.45 1.20307L91.65 19.3199H85.0354L53.0233 0L30.5264 15.7461L77.6425 43.8766Z" fill="#E0EAFD"/>
<path d="M65.1914 89.2395L20.8344 60.7904V39.6659L30.5264 15.7461L77.6425 43.8767L66.7124 67.0889L65.1914 89.2395Z" fill="#8796B8"/>
<path opacity="0.41" d="M66.7124 67.0888L77.6425 43.8767L30.5264 15.7461L20.8344 39.6659L66.7124 67.0888Z" fill="#E9F7FE"/>
<path d="M110.787 89.2395L155.179 60.7904V39.6659L145.487 15.7461L98.3708 43.8767L109.266 67.0889L110.787 89.2395Z" fill="#4C5173"/>
<path d="M77.6425 43.8767H98.3708L109.301 67.5843L110.786 89.2395H65.1914L66.7124 67.0889L77.6425 43.8767Z" fill="#8796B8"/>
<path opacity="0.7" d="M109.265 67.5843L110.751 89.2395H65.156L66.6771 67.0889L109.265 67.5843Z" fill="#4C5173"/>
<path d="M102.156 102.792H73.7516V123.739H102.156V102.792Z" fill="#E0EAFD"/>
<path d="M98.2647 106.861H77.6425V123.739H98.2647V106.861Z" fill="#4C5173"/>
<path d="M102.156 135.31H73.7516V156.258H102.156V135.31Z" fill="#E0EAFD"/>
<path d="M98.2647 139.379H77.6425V156.258H98.2647V139.379Z" fill="#4C5173"/>
<path d="M102.156 168.748H73.7516V189.696H102.156V168.748Z" fill="#E0EAFD"/>
<path d="M98.2647 172.817H77.6425V189.696H98.2647V172.817Z" fill="#4C5173"/>
<path d="M51.9975 207.423L65.1914 216.623V198.613L51.9975 207.423Z" fill="#8796B8"/>
<path d="M66.6771 198.613V216.623L61.3712 210.325L66.6771 198.613Z" fill="#373A56"/>
<path d="M124.016 207.423L110.786 216.623V198.613L124.016 207.423Z" fill="#4C5173"/>
<path d="M168.373 180.885L155.179 191.925V172.074L168.373 180.885Z" fill="#4C5173"/>
<path d="M110.327 198.613V216.623L115.597 210.325L110.327 198.613Z" fill="#373A56"/>
<path d="M66.6771 198.613L61.3712 210.325H115.597L110.362 198.613H66.6771Z" fill="#E0EAFD"/>
<path opacity="0.41" d="M109.266 67.0888L98.3708 43.8767L145.487 15.7461L155.179 39.6659L109.266 67.0888Z" fill="#E9F7FE"/>
<path d="M78.4915 238.845V214.606H96.9205V238.845H78.4915Z" fill="#404462"/>
<path d="M45.7012 225.08L30.8801 214.606V192.456L45.878 201.479L45.7012 225.08Z" fill="#8796B8"/>
<path d="M128.933 225.646L143.754 215.173V193.022L128.756 202.045L128.933 225.646Z" fill="#070A1C"/>
<path d="M20.8344 172.074L7.64044 180.885L51.9975 207.423L65.1914 198.613L20.8344 172.074Z" fill="#E0EAFD"/>
<path d="M155.179 172.074L168.373 180.885L124.016 207.423L110.786 198.613L155.179 172.074Z" fill="#8796B8"/>
<path d="M76.0508 71.4765C76.263 71.4765 76.4752 71.4765 76.6875 71.4765C76.829 71.4765 76.8997 71.5473 76.8997 71.6888C76.8997 72.0073 76.8997 72.3257 76.8997 72.6442C76.8997 72.8565 76.9705 72.9273 77.1827 72.9626C77.8548 73.0688 78.4915 73.2811 79.0574 73.6349C79.7295 74.0595 80.1893 74.6611 80.5077 75.3688C80.5784 75.5457 80.5784 75.6518 80.3662 75.7226C79.588 75.9703 78.8098 76.1826 78.0316 76.4303C77.8901 76.4657 77.784 76.4303 77.7133 76.2888C77.2888 75.3688 76.2276 75.2626 75.4848 75.4749C75.2372 75.5457 75.0957 75.758 75.0957 76.0411C75.0957 76.3241 75.2372 76.5011 75.4848 76.5718C75.98 76.7841 76.4752 76.8549 77.0058 76.9611C77.784 77.138 78.5622 77.3149 79.2343 77.6688C80.2955 78.2349 80.8614 79.1549 80.8968 80.3226C80.9675 81.8795 80.0832 83.2241 78.633 83.8256C78.1731 84.038 77.6779 84.1441 77.1473 84.2149C76.9705 84.2149 76.8997 84.321 76.8997 84.4979C76.8997 84.8518 76.8997 85.1702 76.8997 85.5241C76.8997 85.701 76.829 85.7718 76.6521 85.7718C76.2276 85.7718 75.8385 85.7718 75.4141 85.7718C75.2018 85.7718 75.1665 85.701 75.1665 85.5241C75.1665 85.2056 75.1665 84.8518 75.1665 84.5333C75.1665 84.321 75.0957 84.2503 74.8835 84.2149C74.1053 84.0733 73.3625 83.8256 72.6904 83.3303C71.9122 82.7287 71.4877 81.9503 71.2047 81.0657C71.1694 80.9241 71.2047 80.8887 71.3462 80.8534C71.8768 80.7472 72.4428 80.641 72.9734 80.5703C73.3271 80.4995 73.6808 80.4287 74.0699 80.358C74.2114 80.358 74.2822 80.358 74.3529 80.4995C74.6359 81.278 75.2018 81.5964 75.98 81.6672C76.2984 81.6672 76.6167 81.6672 76.8997 81.5964C77.2181 81.5257 77.4303 81.3487 77.4657 81.101C77.4657 80.818 77.3596 80.5703 77.0766 80.4287C76.546 80.181 75.98 80.1103 75.4141 79.9687C74.5651 79.7564 73.7162 79.5441 73.0087 79.0487C72.1952 78.4826 71.8061 77.6688 71.7707 76.7134C71.6646 75.0149 72.6904 73.458 74.6712 73.0334C75.2018 72.9272 75.2018 72.8919 75.2018 72.3611C75.2018 72.1488 75.2018 71.9011 75.2018 71.6888C75.2018 71.5119 75.2726 71.4057 75.4494 71.4411C75.6617 71.4411 75.8739 71.4411 76.0508 71.4411V71.4765Z" fill="#E0EAFD"/>
<path d="M87.6176 71.4765C87.8298 71.4765 88.042 71.4765 88.2543 71.4765C88.3958 71.4765 88.4665 71.5473 88.4665 71.6888C88.4665 72.0073 88.4665 72.3257 88.4665 72.6442C88.4665 72.8565 88.5373 72.9273 88.7495 72.9626C89.4216 73.0688 90.0583 73.2811 90.6242 73.6349C91.2963 74.0595 91.7562 74.6611 92.0745 75.3688C92.1453 75.5457 92.1452 75.6518 91.933 75.7226C91.1548 75.9703 90.3766 76.1826 89.5984 76.4303C89.4569 76.4657 89.3508 76.4303 89.2801 76.2888C88.8556 75.3688 87.7944 75.2626 87.0516 75.4749C86.804 75.5457 86.6625 75.758 86.6625 76.0411C86.6625 76.3241 86.804 76.5011 87.0516 76.5718C87.5468 76.7841 88.042 76.8549 88.5726 76.9611C89.3508 77.138 90.129 77.3149 90.8011 77.6688C91.8623 78.2349 92.4282 79.1549 92.4636 80.3226C92.5343 81.8795 91.65 83.2241 90.1998 83.8256C89.7399 84.038 89.2447 84.1441 88.7141 84.2149C88.5373 84.2149 88.4665 84.321 88.4665 84.4979C88.4665 84.8518 88.4665 85.1702 88.4665 85.5241C88.4665 85.701 88.3958 85.7718 88.2189 85.7718C87.7944 85.7718 87.4053 85.7718 86.9809 85.7718C86.7686 85.7718 86.7333 85.701 86.7333 85.5241C86.7333 85.2056 86.7333 84.8518 86.7333 84.5333C86.7333 84.321 86.6625 84.2503 86.4503 84.2149C85.6721 84.0733 84.9293 83.8256 84.2572 83.3303C83.479 82.7287 83.0545 81.9503 82.7715 81.0657C82.7362 80.9241 82.7715 80.8887 82.913 80.8534C83.4436 80.7472 84.0096 80.641 84.5402 80.5703C84.8939 80.4995 85.2476 80.4287 85.6367 80.358C85.7782 80.358 85.849 80.358 85.9197 80.4995C86.2027 81.278 86.7686 81.5964 87.5468 81.6672C87.8652 81.6672 88.1835 81.6672 88.4665 81.5964C88.7849 81.5257 88.9971 81.3487 89.0325 81.101C89.0325 80.818 88.9264 80.5703 88.6434 80.4287C88.1128 80.181 87.5468 80.1103 86.9809 79.9687C86.1319 79.7564 85.283 79.5441 84.5755 79.0487C83.762 78.4826 83.3729 77.6688 83.3375 76.7134C83.2314 75.0149 84.2572 73.458 86.238 73.0334C86.7686 72.9272 86.7686 72.8919 86.7686 72.3611C86.7686 72.1488 86.7686 71.9011 86.7686 71.6888C86.7686 71.5119 86.8394 71.4057 87.0162 71.4411C87.2285 71.4411 87.4407 71.4411 87.6176 71.4411V71.4765Z" fill="#E0EAFD"/>
<path d="M99.2197 71.4765C99.4319 71.4765 99.6442 71.4765 99.8564 71.4765C99.9979 71.4765 100.069 71.5473 100.069 71.6888C100.069 72.0073 100.069 72.3257 100.069 72.6442C100.069 72.8565 100.139 72.9273 100.352 72.9626C101.024 73.0688 101.66 73.2811 102.226 73.6349C102.898 74.0595 103.358 74.6611 103.677 75.3688C103.747 75.5457 103.747 75.6518 103.535 75.7226C102.757 75.9703 101.979 76.1826 101.201 76.4303C101.059 76.4657 100.953 76.4303 100.882 76.2888C100.458 75.3688 99.3966 75.2626 98.6538 75.4749C98.4061 75.5457 98.2647 75.758 98.2647 76.0411C98.2647 76.3241 98.4061 76.5011 98.6538 76.5718C99.149 76.7841 99.6442 76.8549 100.175 76.9611C100.953 77.138 101.731 77.3149 102.403 77.6688C103.464 78.2349 104.03 79.1549 104.066 80.3226C104.136 81.8795 103.252 83.2241 101.802 83.8256C101.342 84.038 100.847 84.1441 100.316 84.2149C100.139 84.2149 100.069 84.321 100.069 84.4979C100.069 84.8518 100.069 85.1702 100.069 85.5241C100.069 85.701 99.9979 85.7718 99.821 85.7718C99.3966 85.7718 99.0075 85.7718 98.583 85.7718C98.3708 85.7718 98.3354 85.701 98.3354 85.5241C98.3354 85.2056 98.3354 84.8518 98.3354 84.5333C98.3354 84.321 98.2647 84.2503 98.0524 84.2149C97.2742 84.0733 96.5314 83.8256 95.8593 83.3303C95.0811 82.7287 94.6567 81.9503 94.3737 81.0657C94.3383 80.9241 94.3737 80.8887 94.5152 80.8534C95.0458 80.7472 95.6117 80.641 96.1423 80.5703C96.496 80.4995 96.8498 80.4287 97.2389 80.358C97.3803 80.358 97.4511 80.358 97.5218 80.4995C97.8048 81.278 98.3708 81.5964 99.149 81.6672C99.4673 81.6672 99.7857 81.6672 100.069 81.5964C100.387 81.5257 100.599 81.3487 100.635 81.101C100.635 80.818 100.528 80.5703 100.246 80.4287C99.7149 80.181 99.149 80.1103 98.583 79.9687C97.7341 79.7564 96.8851 79.5441 96.1777 79.0487C95.3641 78.4826 94.975 77.6688 94.9396 76.7134C94.8335 75.0149 95.8593 73.458 97.8402 73.0334C98.3708 72.9272 98.3708 72.8919 98.3708 72.3611C98.3708 72.1488 98.3708 71.9011 98.3708 71.6888C98.3708 71.5119 98.4415 71.4057 98.6184 71.4411C98.8306 71.4411 99.0428 71.4411 99.2197 71.4411V71.4765Z" fill="#E0EAFD"/>
</g>
<defs>
<clipPath id="clip0_21_92">
<rect width="170" height="249" fill="white"/>
</clipPath>
</defs>
</svg>
