<svg width="200" height="210" viewBox="0 0 200 210" fill="none" xmlns="http://www.w3.org/2000/svg">
<g clip-path="url(#clip0_4_728)">
<path d="M0.380601 113.412V37.7142C0.380601 37.7142 -1.81351 2.94256 24.1128 0L59.9798 21.2269C59.9798 21.2269 69.2712 24.8208 69.2712 36.4338V121.925L39.1582 137.447L0.380601 113.412Z" fill="#E0EAFD"/>
<path d="M12.2019 118.039V102.069L25.0084 110.2V126.058L12.2019 118.039Z" fill="#8796B8"/>
<path d="M39.3373 60.2438C39.3373 60.2438 38.7104 31.1776 57.1141 24.8657C69.2936 20.6877 69.2712 36.4113 69.2712 36.4113V121.903L39.3373 137.424V60.8952" fill="#8796B8"/>
<path d="M40.9717 60.8053C40.9717 60.8053 40.412 32.8622 56.8006 26.7749C67.6369 22.7542 67.6369 37.8713 67.6369 37.8713V120.128L40.9717 135.066V61.4343" fill="#4C5173"/>
<path d="M2.12695 36.7707L37.3895 59.3453C37.3895 59.3453 36.0909 27.4938 58.9276 22.2601L23.6651 1.39258C23.6651 1.39258 2.12695 2.24615 2.12695 36.7707Z" fill="#8796B8"/>
<path d="M27.8294 13.3652L38.6656 6.26709L41.7777 8.19885L31.2325 15.2969L27.8294 13.3652Z" fill="#E0EAFD"/>
<path d="M27.8294 13.365V29.8748L31.2773 31.8515V15.2967L27.8294 13.365Z" fill="#73809D"/>
<path d="M31.2773 31.8515L41.7777 23.9897V8.19873L31.2773 15.2968V31.8515Z" fill="#4C5173"/>
<path d="M34.2774 18.0371V34.5469L37.7029 36.5236V19.9689L34.2774 18.0371Z" fill="#73809D"/>
<path d="M37.7029 36.5236L48.2257 21.9456V12.8708L37.7029 19.9689V36.5236Z" fill="#4C5173"/>
<path d="M34.2774 17.9924L45.1136 10.8943L48.2257 12.826L37.6805 19.9241L34.2774 17.9924Z" fill="#E0EAFD"/>
<path d="M0.559723 43.2625L39.3373 67.9934" stroke="#8796B8" stroke-width="0.5" stroke-linecap="round" stroke-linejoin="round"/>
<path d="M0.559723 68.2405L39.3373 92.9715" stroke="#8796B8" stroke-width="0.5" stroke-linecap="round" stroke-linejoin="round"/>
<path d="M0.559723 90.5903L39.3373 115.321" stroke="#8796B8" stroke-width="0.5" stroke-linecap="round" stroke-linejoin="round"/>
<path opacity="0.62" d="M3.06729 51.3264V64.9386L8.35107 68.2405V54.6284L3.06729 51.3264Z" fill="#8796B8"/>
<path opacity="0.62" d="M3.69418 51.7307V64.5342L8.35107 67.3869V54.6283L3.69418 51.7307Z" fill="#4C5173"/>
<path opacity="0.62" d="M11.1497 56.2007V69.8128L16.4335 73.1148V59.4802L11.1497 56.2007Z" fill="#8796B8"/>
<path opacity="0.62" d="M11.799 56.5825V69.4085L16.4335 72.2612V59.4802L11.799 56.5825Z" fill="#4C5173"/>
<path opacity="0.62" d="M20.6873 62.1533V75.7879L25.9711 79.0674V65.4553L20.6873 62.1533Z" fill="#8796B8"/>
<path opacity="0.62" d="M21.3366 62.5576V75.3611L25.9711 78.2363V65.4553L21.3366 62.5576Z" fill="#4C5173"/>
<path opacity="0.62" d="M28.9936 67.7014V81.3136L34.2774 84.6155V71.0034L28.9936 67.7014Z" fill="#8796B8"/>
<path opacity="0.62" d="M29.6429 68.1057V80.9092L34.2774 83.7619V71.0034L29.6429 68.1057Z" fill="#4C5173"/>
<path opacity="0.62" d="M3.06729 74.6196V88.2318L8.35107 91.5337V77.8991L3.06729 74.6196Z" fill="#8796B8"/>
<path opacity="0.62" d="M3.69418 75.0015V87.8274L8.35107 90.6801V77.8991L3.69418 75.0015Z" fill="#4C5173"/>
<path opacity="0.62" d="M11.1497 79.4714V93.0836L16.4335 96.3855V82.7734L11.1497 79.4714Z" fill="#8796B8"/>
<path opacity="0.62" d="M11.799 79.8757V92.6792L16.4335 95.5319V82.7734L11.799 79.8757Z" fill="#4C5173"/>
<path opacity="0.62" d="M20.6873 85.4465V99.0587L25.9711 102.361V88.7485L20.6873 85.4465Z" fill="#8796B8"/>
<path opacity="0.62" d="M21.3366 85.8508V98.6543L25.9711 101.507V88.7485L21.3366 85.8508Z" fill="#4C5173"/>
<path opacity="0.62" d="M28.9936 90.9722V104.607L34.2774 107.886V94.2741L28.9936 90.9722Z" fill="#8796B8"/>
<path opacity="0.62" d="M29.6429 91.3765V104.18L34.2774 107.055V94.2741L29.6429 91.3765Z" fill="#4C5173"/>
<path d="M13.5453 117.186V102.9L25.0308 110.155V124.374L13.5453 117.186Z" fill="#4C5173"/>
<path d="M67.6816 151.733V76.0348C67.6816 76.0348 65.4875 41.2631 91.4139 38.3206L127.281 59.5474C127.281 59.5474 136.572 63.1414 136.572 74.7544V160.246L106.459 175.767L67.6816 151.733Z" fill="#E0EAFD"/>
<path d="M79.4806 156.36V140.389L92.3094 148.521V164.402L79.4806 156.36Z" fill="#8796B8"/>
<path d="M106.616 98.587C106.616 98.587 105.989 69.5208 124.393 63.2089C136.572 59.0309 136.55 74.7545 136.55 74.7545V160.246L106.616 175.767V99.216" fill="#8796B8"/>
<path d="M108.273 99.1261C108.273 99.1261 107.713 71.183 124.102 65.0957C134.938 61.075 134.938 76.1921 134.938 76.1921V158.449L108.273 173.386V99.7551" fill="#4C5173"/>
<path d="M69.4056 75.0915L104.668 97.6661C104.668 97.6661 103.37 65.8146 126.206 60.5809L90.9437 39.7134C90.9437 39.7134 69.4056 40.5669 69.4056 75.0915Z" fill="#8796B8"/>
<path d="M95.1304 51.6857L105.944 44.5876L109.056 46.5419L98.5112 53.6399L95.1304 51.6857Z" fill="#E0EAFD"/>
<path d="M95.1304 51.6858V68.1956L98.5559 70.1723V53.64L95.1304 51.6858Z" fill="#73809D"/>
<path d="M98.5559 70.1723L109.056 62.333V46.542L98.5559 53.6401V70.1723Z" fill="#4C5173"/>
<path d="M101.578 56.3579V72.8677L105.004 74.8444V58.3121L101.578 56.3579Z" fill="#73809D"/>
<path d="M105.004 74.8444L115.504 60.2889V51.2141L105.004 58.3122V74.8444Z" fill="#4C5173"/>
<path d="M101.578 56.3129L112.392 49.2148L115.504 51.1466L104.959 58.2447L101.578 56.3129Z" fill="#E0EAFD"/>
<path d="M67.8607 81.583L106.616 106.314" stroke="#8796B8" stroke-width="0.5" stroke-linecap="round" stroke-linejoin="round"/>
<path d="M67.8607 106.561L106.616 131.314" stroke="#8796B8" stroke-width="0.5" stroke-linecap="round" stroke-linejoin="round"/>
<path d="M67.8607 128.911L106.616 153.642" stroke="#8796B8" stroke-width="0.5" stroke-linecap="round" stroke-linejoin="round"/>
<path opacity="0.62" d="M70.3459 89.647V103.282L75.6297 106.561V92.9489L70.3459 89.647Z" fill="#8796B8"/>
<path opacity="0.62" d="M70.9952 90.0513V102.855L75.6297 105.73V92.9489L70.9952 90.0513Z" fill="#4C5173"/>
<path opacity="0.62" d="M78.4507 94.5212V108.133L83.7345 111.435V97.8232L78.4507 94.5212Z" fill="#8796B8"/>
<path opacity="0.62" d="M79.0776 94.9255V107.729L83.7345 110.582V97.8232L79.0776 94.9255Z" fill="#4C5173"/>
<path opacity="0.62" d="M87.9884 100.474V114.108L93.2722 117.41V103.776L87.9884 100.474Z" fill="#8796B8"/>
<path opacity="0.62" d="M88.6153 100.878V113.704L93.2722 116.557V103.776L88.6153 100.878Z" fill="#4C5173"/>
<path opacity="0.62" d="M96.2946 106.022V119.634L101.578 122.936V109.324L96.2946 106.022Z" fill="#8796B8"/>
<path opacity="0.62" d="M96.9215 106.426V119.23L101.578 122.082V109.324L96.9215 106.426Z" fill="#4C5173"/>
<path opacity="0.62" d="M70.3459 112.94V126.553L75.6297 129.855V116.242L70.3459 112.94Z" fill="#8796B8"/>
<path opacity="0.62" d="M70.9952 113.345V126.148L75.6297 129.001V116.22L70.9952 113.345Z" fill="#4C5173"/>
<path opacity="0.62" d="M78.4507 117.792V131.427L83.7345 134.706V121.094L78.4507 117.792Z" fill="#8796B8"/>
<path opacity="0.62" d="M79.0776 118.197V131L83.7345 133.853V121.094L79.0776 118.197Z" fill="#4C5173"/>
<path opacity="0.62" d="M87.9884 123.767V137.379L93.2722 140.681V127.069L87.9884 123.767Z" fill="#8796B8"/>
<path opacity="0.62" d="M88.6153 124.172V136.975L93.2722 139.828V127.069L88.6153 124.172Z" fill="#4C5173"/>
<path opacity="0.62" d="M96.2946 129.293V142.928L101.578 146.23V132.595L96.2946 129.293Z" fill="#8796B8"/>
<path opacity="0.62" d="M96.9215 129.697V142.523L101.578 145.376V132.595L96.9215 129.697Z" fill="#4C5173"/>
<path d="M80.8463 155.506V141.22L92.3094 148.498V162.694L80.8463 155.506Z" fill="#4C5173"/>
<path d="M131.109 185.965V110.267C131.109 110.267 128.915 75.4958 154.842 72.5532L190.709 93.7801C190.709 93.7801 200 97.3741 200 108.987V194.479L169.887 210L131.109 185.965Z" fill="#E0EAFD"/>
<path d="M142.931 190.615V174.644L155.737 182.753V198.634L142.931 190.615Z" fill="#8796B8"/>
<path d="M170.066 132.819C170.066 132.819 169.439 103.753 187.843 97.4413C200.022 93.2634 200 108.987 200 108.987V194.478L170.066 210V133.448" fill="#8796B8"/>
<path d="M171.7 133.381C171.7 133.381 171.141 105.438 187.529 99.3506C198.366 95.3299 198.366 110.447 198.366 110.447V192.704L171.7 207.641V134.01" fill="#4C5173"/>
<path d="M132.833 109.324L168.096 131.899C168.096 131.899 166.797 100.047 189.634 94.8133L154.371 73.9458C154.371 73.9458 132.833 74.7994 132.833 109.324Z" fill="#8796B8"/>
<path d="M158.558 85.9409L169.394 78.8428L172.484 80.7745L161.961 87.8726L158.558 85.9409Z" fill="#E0EAFD"/>
<path d="M158.558 85.9407V102.45L161.984 104.405V87.8724L158.558 85.9407Z" fill="#73809D"/>
<path d="M161.984 104.405L172.484 96.5654V80.7744L161.984 87.8725V104.405Z" fill="#4C5173"/>
<path d="M165.006 90.6128V107.123L168.432 109.077V92.5446L165.006 90.6128Z" fill="#73809D"/>
<path d="M168.432 109.077L178.932 94.5213V85.4465L168.432 92.5446V109.077Z" fill="#4C5173"/>
<path d="M165.006 90.5681L175.82 83.47L178.932 85.4017L168.387 92.4998L165.006 90.5681Z" fill="#E0EAFD"/>
<path d="M131.288 115.816L170.066 140.547" stroke="#8796B8" stroke-width="0.5" stroke-linecap="round" stroke-linejoin="round"/>
<path d="M131.288 140.816L170.066 165.547" stroke="#8796B8" stroke-width="0.5" stroke-linecap="round" stroke-linejoin="round"/>
<path d="M131.288 163.166L170.066 187.897" stroke="#8796B8" stroke-width="0.5" stroke-linecap="round" stroke-linejoin="round"/>
<path opacity="0.62" d="M133.774 123.902V137.514L139.08 140.816V127.182L133.774 123.902Z" fill="#8796B8"/>
<path opacity="0.62" d="M134.423 124.306V137.11L139.08 139.963V127.182L134.423 124.306Z" fill="#4C5173"/>
<path opacity="0.62" d="M141.878 128.754V142.389L147.162 145.668V132.056L141.878 128.754Z" fill="#8796B8"/>
<path opacity="0.62" d="M142.528 129.158V141.962L147.162 144.814V132.056L142.528 129.158Z" fill="#4C5173"/>
<path opacity="0.62" d="M151.416 134.729V148.341L156.7 151.643V138.031L151.416 134.729Z" fill="#8796B8"/>
<path opacity="0.62" d="M152.065 135.133V147.937L156.7 150.79V138.031L152.065 135.133Z" fill="#4C5173"/>
<path opacity="0.62" d="M159.722 140.255V153.889L165.006 157.191V143.557L159.722 140.255Z" fill="#8796B8"/>
<path opacity="0.62" d="M160.349 140.659V153.462L165.006 156.338V143.557L160.349 140.659Z" fill="#4C5173"/>
<path opacity="0.62" d="M133.774 147.173V160.785L139.08 164.087V150.475L133.774 147.173Z" fill="#8796B8"/>
<path opacity="0.62" d="M134.423 147.577V160.381L139.08 163.233V150.475L134.423 147.577Z" fill="#4C5173"/>
<path opacity="0.62" d="M141.878 152.047V165.659L147.162 168.961V155.327L141.878 152.047Z" fill="#8796B8"/>
<path opacity="0.62" d="M142.528 152.429V165.255L147.162 168.108V155.327L142.528 152.429Z" fill="#4C5173"/>
<path opacity="0.62" d="M151.416 158V171.634L156.7 174.914V161.302L151.416 158Z" fill="#8796B8"/>
<path opacity="0.62" d="M152.065 158.404V171.208L156.7 174.083V161.302L152.065 158.404Z" fill="#4C5173"/>
<path opacity="0.62" d="M159.722 163.548V177.16L165.006 180.462V166.85L159.722 163.548Z" fill="#8796B8"/>
<path opacity="0.62" d="M160.349 163.952V176.756L165.006 179.608V166.85L160.349 163.952Z" fill="#4C5173"/>
<path d="M144.274 189.762V175.453L155.737 182.731V196.927L144.274 189.762Z" fill="#4C5173"/>
</g>
<defs>
<clipPath id="clip0_4_728">
<rect width="200" height="210" fill="white"/>
</clipPath>
</defs>
</svg>
