<svg width="67" height="133" viewBox="0 0 67 133" fill="none" xmlns="http://www.w3.org/2000/svg">
<g clip-path="url(#clip0_4_693)">
<path d="M0.368138 109.743V36.494C0.368138 36.494 -1.75403 2.84736 23.3222 0L58.0133 20.5401C58.0133 20.5401 67 24.0178 67 35.2551V117.981L37.8743 133L0.368138 109.743Z" fill="#E0EAFD"/>
<path d="M11.8019 114.22V98.7664L24.1884 106.635V121.98L11.8019 114.22Z" fill="#8796B8"/>
<path d="M38.0475 58.2948C38.0475 58.2948 37.4412 30.169 55.2414 24.0613C67.0217 20.0185 67 35.2334 67 35.2334V117.959L38.0475 132.978V58.9252" fill="#8796B8"/>
<path d="M39.6283 58.8381C39.6283 58.8381 39.0869 31.799 54.9383 25.9087C65.4192 22.018 65.4192 36.6461 65.4192 36.6461V116.242L39.6283 130.696V59.4467" fill="#4C5173"/>
<path d="M2.05722 35.5812L36.1636 57.4254C36.1636 57.4254 34.9076 26.6044 56.9955 21.54L22.8892 1.34766C22.8892 1.34766 2.05722 2.17361 2.05722 35.5812Z" fill="#8796B8"/>
<path d="M26.9169 12.9327L37.3979 6.06421L40.4079 7.93347L30.2085 14.8019L26.9169 12.9327Z" fill="#E0EAFD"/>
<path d="M26.9169 12.9326V28.9083L30.2518 30.821V14.8019L26.9169 12.9326Z" fill="#73809D"/>
<path d="M30.2518 30.8212L40.4079 23.2137V7.93359L30.2518 14.802V30.8212Z" fill="#4C5173"/>
<path d="M33.1535 17.4536V33.4293L36.4667 35.342V19.3229L33.1535 17.4536Z" fill="#73809D"/>
<path d="M36.4667 35.3422L46.6445 21.2358V12.4546L36.4667 19.323V35.3422Z" fill="#4C5173"/>
<path d="M33.1535 17.4102L43.6345 10.5417L46.6445 12.411L36.4451 19.2795L33.1535 17.4102Z" fill="#E0EAFD"/>
<path d="M0.541382 41.8628L38.0475 65.7937" stroke="#8796B8" stroke-width="0.5" stroke-linecap="round" stroke-linejoin="round"/>
<path d="M0.541382 66.0327L38.0475 89.9636" stroke="#8796B8" stroke-width="0.5" stroke-linecap="round" stroke-linejoin="round"/>
<path d="M0.541382 87.6597L38.0475 111.591" stroke="#8796B8" stroke-width="0.5" stroke-linecap="round" stroke-linejoin="round"/>
<path opacity="0.62" d="M2.96671 49.6658V62.8375L8.07724 66.0327V52.8609L2.96671 49.6658Z" fill="#8796B8"/>
<path opacity="0.62" d="M3.57303 50.0571V62.4464L8.07723 65.2068V52.861L3.57303 50.0571Z" fill="#4C5173"/>
<path opacity="0.62" d="M10.7841 54.3823V67.5541L15.8946 70.7492V57.5557L10.7841 54.3823Z" fill="#8796B8"/>
<path opacity="0.62" d="M11.4121 54.752V67.163L15.8946 69.9234V57.5558L11.4121 54.752Z" fill="#4C5173"/>
<path opacity="0.62" d="M20.009 60.1423V73.3358L25.1196 76.5092V63.3375L20.009 60.1423Z" fill="#8796B8"/>
<path opacity="0.62" d="M20.637 60.5334V72.9227L25.1196 75.7049V63.3373L20.637 60.5334Z" fill="#4C5173"/>
<path opacity="0.62" d="M28.043 65.511V78.6827L33.1535 81.8779V68.7061L28.043 65.511Z" fill="#8796B8"/>
<path opacity="0.62" d="M28.671 65.9023V78.2916L33.1535 81.052V68.7062L28.671 65.9023Z" fill="#4C5173"/>
<path opacity="0.62" d="M2.96671 72.2056V85.3773L8.07724 88.5725V75.379L2.96671 72.2056Z" fill="#8796B8"/>
<path opacity="0.62" d="M3.57303 72.575V84.986L8.07723 87.7464V75.3788L3.57303 72.575Z" fill="#4C5173"/>
<path opacity="0.62" d="M10.7841 76.9004V90.0721L15.8946 93.2673V80.0955L10.7841 76.9004Z" fill="#8796B8"/>
<path opacity="0.62" d="M11.4121 77.2917V89.681L15.8946 92.4414V80.0956L11.4121 77.2917Z" fill="#4C5173"/>
<path opacity="0.62" d="M20.009 82.6821V95.8539L25.1196 99.049V85.8773L20.009 82.6821Z" fill="#8796B8"/>
<path opacity="0.62" d="M20.637 83.0732V95.4625L25.1196 98.2229V85.8771L20.637 83.0732Z" fill="#4C5173"/>
<path opacity="0.62" d="M28.043 88.0291V101.223L33.1535 104.396V91.2242L28.043 88.0291Z" fill="#8796B8"/>
<path opacity="0.62" d="M28.671 88.4204V100.81L33.1535 103.592V91.2243L28.671 88.4204Z" fill="#4C5173"/>
<path d="M13.1012 113.395V99.5708L24.2101 106.591V120.35L13.1012 113.395Z" fill="#4C5173"/>
</g>
<defs>
<clipPath id="clip0_4_693">
<rect width="67" height="133" fill="white"/>
</clipPath>
</defs>
</svg>
