<svg width="577" height="388" viewBox="0 0 577 388" fill="none" xmlns="http://www.w3.org/2000/svg">
<g clip-path="url(#clip0_101_5951)">
<path d="M38.8665 217.783L26.6401 224.363L7.43143 239.172L1.94116 247.025V258.175L9.92306 267.127L11.6759 272.796L8.938 285.956L9.69128 300.216L15.9203 307.895L22.1494 311.554L32.6229 314.302L54.5695 315.039L66.0426 313.579C66.0426 313.579 75.0241 313.579 81.2531 315.039C87.4822 316.5 118.164 330.948 118.164 330.948L142.848 343.197L284.741 378.86L292.969 384.515L335.356 387.262L349.32 381.232L357.056 381.593C357.056 381.593 367.776 386.713 369.775 387.262C371.774 387.812 391.475 388.174 392.721 388C393.967 387.827 451.071 365.512 451.071 365.512L467.528 354.362L490.228 345.222L496.457 343.761C496.457 343.761 520.142 338.829 524.632 336.27C529.123 333.71 546.333 321.837 546.333 321.837C546.333 321.837 560.79 315.994 563.542 312.885C566.28 309.775 571.524 288.936 572.77 275.052C574.016 261.154 578.014 255.312 576.754 251.291C575.493 247.271 572.509 237.769 572.509 237.769L570.018 173.977C570.018 173.977 565.281 160.629 561.543 158.257C557.806 155.886 550.316 139.616 550.316 139.616L542.842 134.684L533.368 132.313L513.174 115.132L502.454 69.8079C502.454 69.8079 503.207 63.5893 493.98 59.5688C484.752 55.5484 469.295 57.0091 469.295 57.0091L428.647 56.7488L394.488 55.3604L384.768 52.9886L248.105 56.4595L189.509 78.7599L165.07 96.8518L158.334 99.7731L142.617 104.531L113.441 125.009L105.706 136.347L104.953 140.006L98.9698 147.686L87.4967 157.014L62.8122 184.795L56.0761 195.757L45.3563 206.17L38.8665 217.869V217.783Z" fill="#6C73AB"/>
<path d="M38.8665 202.279L26.6401 208.86L7.43143 223.669L1.94116 231.522V242.672L9.92306 251.624L11.6759 257.293L8.938 270.453L9.69128 284.713L15.9203 292.392L22.1494 296.051L32.6229 298.799L54.5695 299.536L66.0426 298.076C66.0426 298.076 75.0241 298.076 81.2531 299.536C87.4822 300.997 118.164 315.444 118.164 315.444L142.848 327.694L284.741 363.357L292.969 369.011L335.356 371.759L349.32 365.729L357.056 366.09C357.056 366.09 367.776 371.21 369.775 371.759C371.774 372.309 391.475 372.67 392.721 372.497C393.967 372.323 451.071 350.008 451.071 350.008L467.528 338.858L490.228 329.718L496.457 328.258C496.457 328.258 520.142 323.326 524.632 320.766C529.123 318.207 546.333 306.333 546.333 306.333C546.333 306.333 560.79 300.491 563.542 297.381C566.28 294.272 571.524 273.432 572.77 259.549C574.016 245.651 578.014 239.808 576.754 235.788C575.493 231.767 572.509 222.266 572.509 222.266L570.018 158.474C570.018 158.474 565.281 145.126 561.543 142.754C557.806 140.382 550.316 124.113 550.316 124.113L542.842 119.181L533.368 116.809L513.174 99.6285L502.454 54.3047C502.454 54.3047 503.207 48.086 493.98 44.0656C484.752 40.0452 469.295 41.5058 469.295 41.5058L428.647 41.2455L394.488 39.8572L384.768 37.4854L248.105 40.9563L189.509 63.2566L165.07 81.3485L158.334 84.2699L142.617 89.0278L113.441 109.506L105.706 120.844L104.953 124.503L98.9698 132.182L87.4967 141.51L62.8122 169.292L56.0761 180.254L45.3563 190.667L38.8665 202.366V202.279Z" fill="#D1D7ED"/>
<path d="M291.187 39.6113L498.861 165.401L553.156 129.955L564.861 146.702L499.108 189.929L253.422 40.7394L291.187 39.6113Z" fill="#404041"/>
<path d="M290.666 51.0796L294.389 53.3357" stroke="white" stroke-miterlimit="10"/>
<path d="M301.791 57.8478L490.662 172.632" stroke="white" stroke-miterlimit="10" stroke-dasharray="5.99 5.99"/>
<path d="M494.371 174.889L498.079 177.145L501.701 174.744" stroke="white" stroke-miterlimit="10"/>
<path d="M507.003 171.244L514.956 165.98" stroke="white" stroke-miterlimit="10" stroke-dasharray="4.39 4.39"/>
<path d="M517.607 164.23L521.228 161.844" stroke="white" stroke-miterlimit="10"/>
<path d="M272.283 48.5922L274.108 47.5364L284.466 54.2034L282.829 55.2736L272.283 48.5922Z" fill="white"/>
<path d="M275.426 46.7122L277.251 45.6564L287.609 52.3234L285.987 53.3936L275.426 46.7122Z" fill="white"/>
<path d="M278.657 44.7308L280.482 43.6751L290.84 50.3276L289.217 51.4123L278.657 44.7308Z" fill="white"/>
<path d="M281.395 42.8074L283.22 41.7661L293.577 48.4186L291.94 49.4888L281.395 42.8074Z" fill="white"/>
<path d="M284.625 40.8261L286.45 39.7704L296.808 46.4374L295.185 47.5075L284.625 40.8261Z" fill="white"/>
<path d="M545.029 155.914L543.146 154.96L533.165 162.176L534.845 163.16L545.029 155.914Z" fill="white"/>
<path d="M541.784 154.208L539.901 153.253L529.92 160.455L531.615 161.453L541.784 154.208Z" fill="white"/>
<path d="M538.438 152.4L536.569 151.446L526.588 158.648L528.268 159.646L538.438 152.4Z" fill="white"/>
<path d="M535.613 150.636L533.744 149.681L523.763 156.883L525.444 157.881L535.613 150.636Z" fill="white"/>
<path d="M532.281 148.828L530.398 147.874L520.417 155.076L522.097 156.073L532.281 148.828Z" fill="white"/>
<path d="M540.321 149.681L558.632 137.779" stroke="white" stroke-miterlimit="10" stroke-dasharray="6 6"/>
<path d="M70.2726 160.427L176.398 225.173L63.3626 299.261L27.2485 297.945L139.039 225.534L52.0055 172.69" fill="#404041"/>
<path d="M128.782 215.888L130.521 214.832L140.704 221.022L139.154 222.107L128.782 215.888Z" fill="white"/>
<path d="M131.781 213.994L133.519 212.938L143.703 219.128L142.153 220.212L131.781 213.994Z" fill="white"/>
<path d="M134.867 211.998L136.605 210.942L146.789 217.132L145.239 218.217L134.867 211.998Z" fill="white"/>
<path d="M137.46 210.074L139.198 209.019L149.382 215.208L147.832 216.293L137.46 210.074Z" fill="white"/>
<path d="M140.545 208.079L142.284 207.023L152.467 213.213L150.917 214.297L140.545 208.079Z" fill="white"/>
<path d="M62.0299 167.007L137.155 212.793" stroke="white" stroke-miterlimit="10" stroke-dasharray="6 6"/>
<path d="M151.714 221.485L157.798 225.26L43.9077 299.522" stroke="white" stroke-miterlimit="10" stroke-dasharray="6 6"/>
<path d="M0 225.954L59.4948 193.66L117.744 226.576L60.5089 260.59L0 225.954Z" fill="#2A305C"/>
<path d="M16.6156 231.594L26.8574 225.621C26.8574 225.621 26.8863 217.725 34.8972 210.653L31.3626 208.252L14.2254 230.206L16.6156 231.594Z" fill="#8796B8"/>
<path d="M104.59 230.712L92.5668 225.664C92.5668 225.664 90.5677 209.8 81.3979 209.641L86.4102 206.401L99.1001 217.349L104.59 230.726V230.712Z" fill="#4C5173"/>
<path d="M60.2481 213.097L30.2327 193.704L6.41736 225.636L16.6301 231.594C16.6301 231.594 27.7555 203.538 42.6908 212.027C57.6116 220.516 49.7311 251.103 49.7311 251.103L60.3785 256.729L60.2626 213.097H60.2481Z" fill="#E0EAFD"/>
<path d="M60.2191 213.097L89.9593 193.328L113.137 225.216L104.605 230.712C104.605 230.712 92.7261 203.552 77.7909 212.041C62.8701 220.53 70.7506 251.118 70.7506 251.118L60.1032 256.743L60.2191 213.111V213.097Z" fill="#7583A0"/>
<path d="M27.3209 186.487V191.925L60.1032 213.444L91.6252 192.416V187.687L60.1032 207.573L27.3209 186.487Z" fill="#8796B8"/>
<path d="M59.4803 169.321L27.3209 186.429L60.1032 207.515L91.6252 187.63L59.4803 169.321Z" fill="#E0EAFD"/>
<path d="M59.8715 142.653L44.2408 150.968L60.1757 161.208L75.5021 151.547L59.8715 142.653Z" fill="#E0EAFD"/>
<path d="M60.0018 80.1193L54.2653 83.1707L60.1032 86.3813L65.7383 83.3877L60.0018 80.1193Z" fill="#E0EAFD"/>
<path d="M32.6519 186.487L38.9244 190.71L48.0797 165.228L53.1064 167.99L53.4106 199.561L60.1032 203.755V162.307L45.1534 153.977L32.6519 186.487Z" fill="#8796B8"/>
<path d="M87.5546 186.487L81.282 190.71L72.1268 165.228L67.1 167.99L66.7958 199.561L60.1032 203.755V162.307L75.053 153.977L87.5546 186.487Z" fill="#7583A0"/>
<path d="M38.9244 190.71L46.3848 184.867L49.9194 166.24L48.0797 165.228L38.9244 190.71Z" fill="#4C5173"/>
<path d="M81.3979 190.71L73.9375 184.867L70.3884 166.24L72.2282 165.228L81.3979 190.71Z" fill="#4C5173"/>
<path d="M47.5727 150.94C47.5727 150.94 52.3821 128.307 52.976 114.062C53.57 99.8165 54.9317 84.0819 54.9317 84.0819L60.1033 86.4826V159.038L47.5727 150.94Z" fill="#8796B8"/>
<path d="M72.6338 150.94C72.6338 150.94 67.8244 128.307 67.2304 114.062C66.6365 99.8165 65.2748 84.0819 65.2748 84.0819L60.1032 86.4826V159.038L72.6338 150.94Z" fill="#7583A0"/>
<path d="M48.8619 150.274C48.8619 150.274 52.5125 132.457 53.4541 118.82C54.2943 106.599 55.6415 85.745 55.6415 85.745L59.2341 87.7552L58.9588 156.985L48.8619 150.274Z" fill="#7583A0"/>
<path d="M71.388 150.274C71.388 150.274 67.7375 132.457 66.7959 118.82C65.9557 106.599 64.6084 85.745 64.6084 85.745L61.0159 87.7552L61.2911 156.985L71.388 150.274Z" fill="#4C5173"/>
<path d="M44.3422 151.055V153.687L60.1756 163.868L75.4006 153.919V151.634L60.1756 161.236L44.3422 151.055Z" fill="#4C5173"/>
<path d="M54.2943 83.1997V84.1687L60.1032 87.4371L65.6949 84.2554V83.4166L60.1032 86.3958L54.2943 83.1997Z" fill="#4C5173"/>
<path d="M55.6415 78.2103V82.4332L60.2046 84.9062V80.5532L55.6415 78.2103Z" fill="#8796B8"/>
<path d="M64.3622 78.4272V82.6501L60.2047 84.9062V80.5532L64.3622 78.4272Z" fill="#7583A0"/>
<path d="M55.5256 77.6318L60.2046 80.0904V72.9462L55.5256 77.6318Z" fill="#E0EAFD"/>
<path d="M64.6519 77.762L60.2047 80.0904V72.9462L64.6519 77.762Z" fill="#8796B8"/>
<path d="M55.5256 77.6318L55.6415 78.4851L60.2046 80.8279L64.3622 78.6586L64.6519 77.762L60.2046 79.9891L55.5256 77.6318Z" fill="#4C5173"/>
<path d="M59.2775 73.8717L60.2046 74.4213V61.9984L59.2775 61.5646V73.8717Z" fill="#8796B8"/>
<path d="M61.0738 73.8717L60.2047 74.4213V61.9984L61.0738 61.5646V73.8717Z" fill="#7583A0"/>
<path d="M59.2775 61.5646L60.2046 61.1597L61.0738 61.5646L60.2046 61.9985L59.2775 61.5646Z" fill="#E0EAFD"/>
<path d="M259.231 356.777L334.255 308.445L421.606 361.433L406.222 367.811L395.864 371.108L334.617 333.782L286.943 364.76L284.61 363.154L259.231 356.777Z" fill="#404041"/>
<path d="M342.381 333.681L344.178 332.596L354.695 339.003L353.087 340.116L342.381 333.681Z" fill="white"/>
<path d="M345.482 331.729L347.278 330.629L357.795 337.051L356.187 338.164L345.482 331.729Z" fill="white"/>
<path d="M348.668 329.66L350.465 328.576L360.982 334.982L359.374 336.096L348.668 329.66Z" fill="white"/>
<path d="M351.348 327.694L353.145 326.594L363.662 333.001L362.068 334.115L351.348 327.694Z" fill="white"/>
<path d="M354.535 325.626L356.346 324.541L366.849 330.948L365.255 332.061L354.535 325.626Z" fill="white"/>
<path d="M316.886 340.536L315.06 339.495L304.746 346.234L306.383 347.29L316.886 340.536Z" fill="white"/>
<path d="M313.728 338.67L311.902 337.643L301.588 344.368L303.225 345.438L313.728 338.67Z" fill="white"/>
<path d="M310.483 336.718L308.643 335.677L298.343 342.416L299.98 343.472L310.483 336.718Z" fill="white"/>
<path d="M307.73 334.823L305.905 333.782L295.591 340.521L297.228 341.577L307.73 334.823Z" fill="white"/>
<path d="M304.486 332.857L302.646 331.83L292.346 338.555L293.983 339.625L304.486 332.857Z" fill="white"/>
<path d="M391.562 185.041L163.477 332.712L145.862 328.287L137.155 324.845L371.875 173.066L391.562 185.041Z" fill="#404041"/>
<path d="M391.243 185.185L441.235 152.791L420.592 141.568L371.875 173.066L391.243 185.185Z" fill="#404041"/>
<path d="M149.729 329.27L403.832 164.057" stroke="white" stroke-miterlimit="10" stroke-dasharray="6 6"/>
<path d="M410.394 159.79L429.545 147.252" stroke="white" stroke-miterlimit="10" stroke-dasharray="6 6"/>
<path d="M273.094 360.262L295.881 345.858" stroke="white" stroke-miterlimit="10" stroke-dasharray="6 6"/>
<path d="M314.887 332.987L333.27 321.142L345.481 327.65" stroke="white" stroke-miterlimit="10" stroke-dasharray="6 6"/>
<path d="M364.125 338.8L409.612 366.408" stroke="white" stroke-miterlimit="10" stroke-dasharray="6 6"/>
<path d="M176.659 212.649L339.933 105.789L400.573 142.653L127.29 319.942L81.1227 299.348L196.129 224.869L176.659 212.649Z" fill="#BDD59B"/>
<path d="M317.943 47.4063C316.408 50.3421 312.844 48.6211 311.251 47.4063C312.018 45.5697 312.844 31.3825 313.163 24.5131H316.031C316.19 30.4714 316.799 43.3715 317.943 47.4063Z" fill="#4C5173"/>
<path d="M314.597 0.072327C306.224 0.636344 303.443 26.2629 314.597 26.8125C325.751 27.3765 322.405 -1.60526 314.597 0.072327Z" fill="url(#paint0_linear_101_5951)"/>
<path d="M218.351 222.859C216.815 225.795 213.251 224.074 211.658 222.859C212.426 221.022 213.251 206.835 213.57 199.966H216.438C216.598 205.924 217.206 218.824 218.351 222.859Z" fill="#4C5173"/>
<path d="M215.004 175.525C206.631 176.089 203.85 201.715 215.004 202.265C226.159 202.829 222.812 173.847 215.004 175.525Z" fill="url(#paint1_linear_101_5951)"/>
<path d="M271.109 187.658C269.574 190.594 266.01 188.873 264.417 187.658C265.184 185.822 266.01 171.635 266.329 164.765H269.197C269.356 170.723 269.965 183.624 271.109 187.658Z" fill="#4C5173"/>
<path d="M267.763 140.31C259.39 140.874 256.609 166.501 267.763 167.05C278.917 167.614 275.571 138.632 267.763 140.31Z" fill="url(#paint2_linear_101_5951)"/>
<path d="M322.057 44.5284L320.247 43.4727L321.159 41.5058L322.072 42.1132V39.539H327.519L324.94 41.5058V50.4144C324.578 51.3833 322.869 51.0218 322.057 50.7181V44.5284Z" fill="#4C5173"/>
<path d="M330.068 39.8572C331.66 39.8572 332.951 38.5687 332.951 36.9792C332.951 35.3898 331.66 34.1013 330.068 34.1013C328.476 34.1013 327.185 35.3898 327.185 36.9792C327.185 38.5687 328.476 39.8572 330.068 39.8572Z" fill="url(#paint3_linear_101_5951)"/>
<path d="M324.172 40.4356C328.349 40.4356 331.734 37.0558 331.734 32.8865C331.734 28.7172 328.349 25.3373 324.172 25.3373C319.996 25.3373 316.61 28.7172 316.61 32.8865C316.61 37.0558 319.996 40.4356 324.172 40.4356Z" fill="url(#paint4_linear_101_5951)"/>
<path d="M317.509 44.6875C319.853 44.6875 321.753 42.7903 321.753 40.4501C321.753 38.1099 319.853 36.2128 317.509 36.2128C315.164 36.2128 313.264 38.1099 313.264 40.4501C313.264 42.7903 315.164 44.6875 317.509 44.6875Z" fill="url(#paint5_linear_101_5951)"/>
<path d="M262.997 194.499L261.186 193.443L262.099 191.476L263.012 192.084V189.51H268.458L265.88 191.476V200.385C265.518 201.354 263.808 200.992 262.997 200.689V194.499Z" fill="#4C5173"/>
<path d="M271.022 189.828C272.614 189.828 273.905 188.539 273.905 186.95C273.905 185.36 272.614 184.072 271.022 184.072C269.43 184.072 268.14 185.36 268.14 186.95C268.14 188.539 269.43 189.828 271.022 189.828Z" fill="url(#paint6_linear_101_5951)"/>
<path d="M265.126 190.406C269.303 190.406 272.688 187.026 272.688 182.857C272.688 178.688 269.303 175.308 265.126 175.308C260.95 175.308 257.565 178.688 257.565 182.857C257.565 187.026 260.95 190.406 265.126 190.406Z" fill="url(#paint7_linear_101_5951)"/>
<path d="M258.463 194.658C260.807 194.658 262.707 192.761 262.707 190.421C262.707 188.08 260.807 186.183 258.463 186.183C256.119 186.183 254.218 188.08 254.218 190.421C254.218 192.761 256.119 194.658 258.463 194.658Z" fill="url(#paint8_linear_101_5951)"/>
<path d="M227.709 221.586L225.898 220.53L226.811 218.564L227.723 219.171V216.597H233.17L230.591 218.564V227.472C230.229 228.441 228.52 228.08 227.709 227.776V221.586Z" fill="#4C5173"/>
<path d="M235.734 216.901C237.326 216.901 238.617 215.612 238.617 214.023C238.617 212.433 237.326 211.145 235.734 211.145C234.142 211.145 232.851 212.433 232.851 214.023C232.851 215.612 234.142 216.901 235.734 216.901Z" fill="url(#paint9_linear_101_5951)"/>
<path d="M229.824 217.493C234 217.493 237.385 214.114 237.385 209.944C237.385 205.775 234 202.395 229.824 202.395C225.647 202.395 222.262 205.775 222.262 209.944C222.262 214.114 225.647 217.493 229.824 217.493Z" fill="url(#paint10_linear_101_5951)"/>
<path d="M223.16 221.745C225.504 221.745 227.404 219.848 227.404 217.508C227.404 215.168 225.504 213.271 223.16 213.271C220.816 213.271 218.916 215.168 218.916 217.508C218.916 219.848 220.816 221.745 223.16 221.745Z" fill="url(#paint11_linear_101_5951)"/>
<path d="M329.387 48.8236L328.199 48.1294L328.793 46.8423L329.387 47.2328V45.5552H332.951L331.271 46.8423V52.6705C331.039 53.3068 329.923 53.0609 329.387 52.8729V48.8236Z" fill="#4C5173"/>
<path d="M334.617 45.7576C335.657 45.7576 336.5 44.9159 336.5 43.8776C336.5 42.8392 335.657 41.9975 334.617 41.9975C333.577 41.9975 332.734 42.8392 332.734 43.8776C332.734 44.9159 333.577 45.7576 334.617 45.7576Z" fill="url(#paint12_linear_101_5951)"/>
<path d="M330.764 46.1481C333.492 46.1481 335.703 43.9402 335.703 41.2166C335.703 38.493 333.492 36.285 330.764 36.285C328.035 36.285 325.824 38.493 325.824 41.2166C325.824 43.9402 328.035 46.1481 330.764 46.1481Z" fill="url(#paint13_linear_101_5951)"/>
<path d="M326.418 48.9103C327.946 48.9103 329.185 47.6736 329.185 46.1481C329.185 44.6226 327.946 43.3859 326.418 43.3859C324.89 43.3859 323.651 44.6226 323.651 46.1481C323.651 47.6736 324.89 48.9103 326.418 48.9103Z" fill="url(#paint14_linear_101_5951)"/>
<path d="M30.2762 275.876C28.7406 278.812 25.177 277.091 23.5836 275.876C24.3513 274.04 25.177 259.852 25.4957 252.983H28.364C28.5234 258.941 29.1318 271.841 30.2762 275.876Z" fill="#4C5173"/>
<path d="M26.9154 228.528C18.5424 229.092 15.761 254.718 26.9154 255.268C38.0698 255.832 34.7235 226.85 26.9154 228.528Z" fill="url(#paint15_linear_101_5951)"/>
<path d="M34.3758 272.984L32.565 271.928L33.4776 269.961L34.3903 270.569V267.995H39.8371L37.2585 269.961V278.87C36.8964 279.839 35.187 279.477 34.3758 279.174V272.984Z" fill="#4C5173"/>
<path d="M42.4011 268.313C43.9932 268.313 45.2839 267.024 45.2839 265.435C45.2839 263.845 43.9932 262.557 42.4011 262.557C40.809 262.557 39.5184 263.845 39.5184 265.435C39.5184 267.024 40.809 268.313 42.4011 268.313Z" fill="url(#paint16_linear_101_5951)"/>
<path d="M36.4908 268.906C40.667 268.906 44.0526 265.526 44.0526 261.357C44.0526 257.187 40.667 253.807 36.4908 253.807C32.3145 253.807 28.929 257.187 28.929 261.357C28.929 265.526 32.3145 268.906 36.4908 268.906Z" fill="url(#paint17_linear_101_5951)"/>
<path d="M29.8271 273.143C32.1712 273.143 34.0716 271.246 34.0716 268.906C34.0716 266.565 32.1712 264.668 29.8271 264.668C27.483 264.668 25.5826 266.565 25.5826 268.906C25.5826 271.246 27.483 273.143 29.8271 273.143Z" fill="url(#paint18_linear_101_5951)"/>
<path d="M41.7058 277.279L40.5179 276.585L41.1118 275.298L41.7058 275.688V274.011H45.2694L43.589 275.298V281.126C43.3572 281.762 42.2417 281.517 41.7058 281.329V277.279Z" fill="#4C5173"/>
<path d="M46.9498 274.228C47.9899 274.228 48.833 273.386 48.833 272.348C48.833 271.309 47.9899 270.468 46.9498 270.468C45.9097 270.468 45.0666 271.309 45.0666 272.348C45.0666 273.386 45.9097 274.228 46.9498 274.228Z" fill="url(#paint19_linear_101_5951)"/>
<path d="M43.0819 274.604C45.8101 274.604 48.0217 272.396 48.0217 269.672C48.0217 266.949 45.8101 264.741 43.0819 264.741C40.3538 264.741 38.1422 266.949 38.1422 269.672C38.1422 272.396 40.3538 274.604 43.0819 274.604Z" fill="url(#paint20_linear_101_5951)"/>
<path d="M38.7361 277.381C40.2642 277.381 41.503 276.144 41.503 274.618C41.503 273.093 40.2642 271.856 38.7361 271.856C37.208 271.856 35.9692 273.093 35.9692 274.618C35.9692 276.144 37.208 277.381 38.7361 277.381Z" fill="url(#paint21_linear_101_5951)"/>
<path d="M568.801 155.394L509.06 194.195L577 237.379L572.524 222.194L569.887 158.243L568.801 155.394Z" fill="#BDD59B"/>
<path d="M497.268 154.801C497.268 154.801 495.964 154.916 495.573 155.625V162.017C495.573 162.017 498.181 164.114 501.469 162.003V155.596C501.469 155.596 501.034 154.888 499.962 154.815" fill="#8796B8"/>
<path d="M498.47 156.637C500.126 156.637 501.469 156.178 501.469 155.611C501.469 155.044 500.126 154.584 498.47 154.584C496.814 154.584 495.472 155.044 495.472 155.611C495.472 156.178 496.814 156.637 498.47 156.637Z" fill="#AFBEDF"/>
<path d="M483.607 123.708V125.689C483.607 125.689 486.722 126.325 487.577 125.689C488.431 125.053 488.938 123.708 488.938 123.708V122.739L483.607 123.722V123.708Z" fill="#8796B8"/>
<path d="M488.938 121.958C488.794 122.001 485.404 122.102 485.404 122.102C485.404 122.102 482.55 123.259 483.999 124.185C485.433 125.11 487.939 123.606 487.939 123.606L488.938 122.724V121.958Z" fill="#AFBEDF"/>
<path d="M488.938 123.708C488.938 123.708 492.415 122.883 494.82 124.98C497.224 127.092 497.196 128.827 497.196 128.827L498.079 127.829C498.079 127.829 496.442 123.447 493.052 122.724C489.663 122.001 488.938 122.724 488.938 122.724V123.693V123.708Z" fill="#6C73AB"/>
<path d="M488.938 122.724C488.938 122.724 496.877 122.334 497.268 129.507C497.659 136.666 497.268 155.466 497.268 155.466C497.268 155.466 498.47 156.334 499.962 155.466V128.986C499.962 128.986 497.659 120.164 488.938 121.958V122.724Z" fill="#8796B8"/>
<path d="M488.938 121.958V122.276C488.938 122.276 492.545 121.683 494.443 123.042C496.341 124.402 499.035 126.542 498.948 132.341C498.861 138.141 498.992 155.813 498.992 155.813L499.948 155.466C499.948 155.466 500.44 131.937 499.948 128.986C499.455 126.036 496.124 120.555 488.924 121.958H488.938Z" fill="#AFBEDF"/>
<path opacity="0.42" d="M484.317 125.978L479.334 165.589C479.334 165.589 478.986 169.697 485.085 169.697C490.749 169.697 490.981 166.067 490.981 166.067L485.882 125.978H484.317Z" fill="white"/>
<path opacity="0.58" d="M485.157 169.682C488.374 169.682 490.981 168.238 490.981 166.457C490.981 164.676 488.374 163.232 485.157 163.232C481.941 163.232 479.334 164.676 479.334 166.457C479.334 168.238 481.941 169.682 485.157 169.682Z" fill="#E0EAFD"/>
<path d="M452.607 124.677C452.607 124.677 451.303 124.792 450.912 125.501V131.893C450.912 131.893 453.52 133.99 456.808 131.879V125.472C456.808 125.472 456.373 124.763 455.301 124.691" fill="#8796B8"/>
<path d="M453.809 126.499C455.465 126.499 456.808 126.039 456.808 125.472C456.808 124.905 455.465 124.445 453.809 124.445C452.153 124.445 450.811 124.905 450.811 125.472C450.811 126.039 452.153 126.499 453.809 126.499Z" fill="#AFBEDF"/>
<path d="M438.946 93.5833V95.5646C438.946 95.5646 442.061 96.2009 442.916 95.5646C443.77 94.9283 444.277 93.5833 444.277 93.5833V92.6144L438.946 93.5978V93.5833Z" fill="#8796B8"/>
<path d="M444.277 91.8335C444.133 91.8769 440.743 91.9781 440.743 91.9781C440.743 91.9781 437.889 93.1351 439.338 94.0606C440.772 94.9862 443.278 93.4822 443.278 93.4822L444.277 92.6V91.8335Z" fill="#AFBEDF"/>
<path d="M444.277 93.5834C444.277 93.5834 447.754 92.759 450.159 94.856C452.564 96.953 452.535 98.7029 452.535 98.7029L453.418 97.705C453.418 97.705 451.781 93.323 448.391 92.5999C445.002 91.8768 444.277 92.5999 444.277 92.5999V93.5689V93.5834Z" fill="#6C73AB"/>
<path d="M444.277 92.5999C444.277 92.5999 452.216 92.2095 452.607 99.3826C452.998 106.541 452.607 125.342 452.607 125.342C452.607 125.342 453.809 126.21 455.301 125.342V98.862C455.301 98.862 452.998 90.0402 444.277 91.8334V92.5999Z" fill="#8796B8"/>
<path d="M444.277 91.8335V92.1516C444.277 92.1516 447.884 91.5587 449.782 92.9181C451.68 94.2776 454.374 96.4179 454.287 102.217C454.2 108.016 454.331 125.689 454.331 125.689L455.287 125.342C455.287 125.342 455.779 101.812 455.287 98.862C454.794 95.9118 451.463 90.4307 444.263 91.8335H444.277Z" fill="#AFBEDF"/>
<path opacity="0.42" d="M439.656 95.8394L434.673 135.451C434.673 135.451 434.325 139.558 440.424 139.558C446.088 139.558 446.32 135.928 446.32 135.928L441.221 95.8394H439.656Z" fill="white"/>
<path opacity="0.58" d="M440.496 139.558C443.713 139.558 446.32 138.114 446.32 136.333C446.32 134.552 443.713 133.108 440.496 133.108C437.28 133.108 434.673 134.552 434.673 136.333C434.673 138.114 437.28 139.558 440.496 139.558Z" fill="#E0EAFD"/>
<path d="M404.991 99.8599C404.991 99.8599 403.687 99.9756 403.296 100.684V107.076C403.296 107.076 405.903 109.173 409.192 107.062V100.655C409.192 100.655 408.757 99.9466 407.685 99.8743" fill="#8796B8"/>
<path d="M406.193 101.682C407.849 101.682 409.192 101.222 409.192 100.655C409.192 100.088 407.849 99.6285 406.193 99.6285C404.537 99.6285 403.195 100.088 403.195 100.655C403.195 101.222 404.537 101.682 406.193 101.682Z" fill="#AFBEDF"/>
<path d="M391.33 68.7523V70.7336C391.33 70.7336 394.445 71.3699 395.3 70.7336C396.154 70.0972 396.661 68.7523 396.661 68.7523V67.7833L391.33 68.7667V68.7523Z" fill="#8796B8"/>
<path d="M396.661 67.0168C396.516 67.0602 393.127 67.1615 393.127 67.1615C393.127 67.1615 390.273 68.3184 391.721 69.244C393.17 70.1696 395.662 68.6655 395.662 68.6655L396.661 67.7833V67.0168Z" fill="#AFBEDF"/>
<path d="M396.661 68.7522C396.661 68.7522 400.138 67.9278 402.543 70.0248C404.947 72.1218 404.918 73.8717 404.918 73.8717L405.802 72.8738C405.802 72.8738 404.165 68.4919 400.775 67.7688C397.386 67.0457 396.661 67.7688 396.661 67.7688V68.7377V68.7522Z" fill="#6C73AB"/>
<path d="M396.661 67.7833C396.661 67.7833 404.6 67.3928 404.991 74.5659C405.382 81.7391 404.991 100.525 404.991 100.525C404.991 100.525 406.193 101.393 407.685 100.525V74.0453C407.685 74.0453 405.382 65.2235 396.661 67.0168V67.7833Z" fill="#8796B8"/>
<path d="M396.661 67.0168V67.335C396.661 67.335 400.268 66.7421 402.166 68.1015C404.064 69.4609 406.758 71.6013 406.671 77.4005C406.584 83.1998 406.715 100.872 406.715 100.872L407.671 100.525C407.671 100.525 408.163 76.9956 407.671 74.0453C407.178 71.0951 403.846 65.614 396.647 67.0168H396.661Z" fill="#AFBEDF"/>
<path opacity="0.42" d="M392.04 71.0227L387.057 110.634C387.057 110.634 386.709 114.741 392.808 114.741C398.472 114.741 398.704 111.111 398.704 111.111L393.605 71.0227H392.04Z" fill="white"/>
<path opacity="0.58" d="M392.88 114.727C396.097 114.727 398.704 113.283 398.704 111.502C398.704 109.721 396.097 108.277 392.88 108.277C389.664 108.277 387.057 109.721 387.057 111.502C387.057 113.283 389.664 114.727 392.88 114.727Z" fill="#E0EAFD"/>
<path d="M126.624 221.76C126.624 221.76 127.928 221.875 128.319 222.584V228.976C128.319 228.976 125.711 231.073 122.423 228.962V222.555C122.423 222.555 122.858 221.846 123.929 221.774" fill="#8796B8"/>
<path d="M125.436 223.582C127.092 223.582 128.435 223.122 128.435 222.555C128.435 221.988 127.092 221.528 125.436 221.528C123.78 221.528 122.437 221.988 122.437 222.555C122.437 223.122 123.78 223.582 125.436 223.582Z" fill="#AFBEDF"/>
<path d="M140.299 190.652V192.633C140.299 192.633 137.184 193.27 136.33 192.633C135.475 191.997 134.968 190.652 134.968 190.652V189.683L140.299 190.667V190.652Z" fill="#8796B8"/>
<path d="M134.968 188.917C135.113 188.96 138.503 189.061 138.503 189.061C138.503 189.061 141.356 190.218 139.908 191.144C138.459 192.069 135.968 190.565 135.968 190.565L134.968 189.683V188.917Z" fill="#AFBEDF"/>
<path d="M134.968 190.652C134.968 190.652 131.491 189.828 129.087 191.925C126.682 194.022 126.711 195.771 126.711 195.771L125.827 194.774C125.827 194.774 127.464 190.392 130.854 189.669C134.244 188.945 134.968 189.669 134.968 189.669V190.638V190.652Z" fill="#6C73AB"/>
<path d="M134.968 189.683C134.968 189.683 127.03 189.293 126.638 196.466C126.247 203.639 126.638 222.425 126.638 222.425C126.638 222.425 125.436 223.293 123.944 222.425V195.945C123.944 195.945 126.247 187.123 134.968 188.917V189.683Z" fill="#8796B8"/>
<path d="M134.968 188.917V189.235C134.968 189.235 131.361 188.642 129.463 190.001C127.566 191.361 124.871 193.501 124.958 199.3C125.045 205.1 124.915 222.772 124.915 222.772L123.958 222.425C123.958 222.425 123.466 198.895 123.958 195.945C124.451 192.995 127.783 187.514 134.982 188.917H134.968Z" fill="#AFBEDF"/>
<path opacity="0.42" d="M139.575 192.922L144.558 232.534C144.558 232.534 144.905 236.641 138.807 236.641C133.143 236.641 132.911 233.011 132.911 233.011L138.01 192.922H139.575Z" fill="white"/>
<path opacity="0.58" d="M138.749 236.627C141.965 236.627 144.572 235.183 144.572 233.402C144.572 231.62 141.965 230.177 138.749 230.177C135.533 230.177 132.925 231.62 132.925 233.402C132.925 235.183 135.533 236.627 138.749 236.627Z" fill="#E0EAFD"/>
<path d="M365.299 73.2787C365.299 73.2787 363.995 73.3944 363.604 74.103V80.4952C363.604 80.4952 366.211 82.5922 369.5 80.4807V74.0741C369.5 74.0741 369.065 73.3655 367.993 73.2932" fill="#8796B8"/>
<path d="M366.486 75.1154C368.143 75.1154 369.485 74.6557 369.485 74.0886C369.485 73.5215 368.143 73.0618 366.486 73.0618C364.83 73.0618 363.488 73.5215 363.488 74.0886C363.488 74.6557 364.83 75.1154 366.486 75.1154Z" fill="#AFBEDF"/>
<path d="M351.638 42.1855V44.1668C351.638 44.1668 354.753 44.8031 355.607 44.1668C356.462 43.5305 356.969 42.1855 356.969 42.1855V41.2166L351.638 42.2V42.1855Z" fill="#8796B8"/>
<path d="M356.969 40.4356C356.824 40.479 353.434 40.5802 353.434 40.5802C353.434 40.5802 350.581 41.7372 352.029 42.6628C353.478 43.5883 355.969 42.0843 355.969 42.0843L356.969 41.2021V40.4356Z" fill="#AFBEDF"/>
<path d="M356.969 42.1855C356.969 42.1855 360.446 41.3612 362.85 43.4582C365.255 45.5696 365.226 47.3051 365.226 47.3051L366.11 46.3072C366.11 46.3072 364.473 41.9252 361.083 41.2021C357.693 40.479 356.969 41.2021 356.969 41.2021V42.1711V42.1855Z" fill="#6C73AB"/>
<path d="M356.969 41.2021C356.969 41.2021 364.907 40.8116 365.299 47.9848C365.69 55.1434 365.299 73.944 365.299 73.944C365.299 73.944 366.501 74.8117 367.993 73.944V47.4641C367.993 47.4641 365.69 38.6423 356.969 40.4356V41.2021Z" fill="#8796B8"/>
<path d="M356.969 40.4356V40.7538C356.969 40.7538 360.576 40.1608 362.474 41.5203C364.371 42.8797 367.066 45.0201 366.979 50.8193C366.892 56.6186 367.022 74.2911 367.022 74.2911L367.979 73.944C367.979 73.944 368.471 50.4144 367.979 47.4641C367.486 44.5284 364.154 39.0328 356.955 40.4356H356.969Z" fill="#AFBEDF"/>
<path opacity="0.42" d="M352.348 44.4416L347.365 84.0529C347.365 84.0529 347.017 88.1601 353.116 88.1601C358.78 88.1601 359.012 84.5302 359.012 84.5302L353.912 44.4416H352.348Z" fill="white"/>
<path opacity="0.58" d="M353.188 88.1601C356.404 88.1601 359.012 86.7162 359.012 84.9351C359.012 83.154 356.404 81.7101 353.188 81.7101C349.972 81.7101 347.365 83.154 347.365 84.9351C347.365 86.7162 349.972 88.1601 353.188 88.1601Z" fill="#E0EAFD"/>
<path d="M567.207 183.667C565.672 186.603 562.108 184.882 560.515 183.667C561.282 181.83 562.108 167.643 562.427 160.774H565.295C565.455 166.732 566.063 179.632 567.207 183.667Z" fill="#4C5173"/>
<path d="M563.861 136.333C555.488 136.897 552.707 162.524 563.861 163.073C575.015 163.637 571.669 134.655 563.861 136.333Z" fill="url(#paint22_linear_101_5951)"/>
<path d="M552.518 182.539L550.708 181.483L551.62 179.516L552.533 180.124V177.549H557.98L555.401 179.516V188.425C555.039 189.394 553.33 189.032 552.518 188.729V182.539Z" fill="#4C5173"/>
<path d="M560.544 177.868C562.136 177.868 563.426 176.579 563.426 174.99C563.426 173.4 562.136 172.112 560.544 172.112C558.952 172.112 557.661 173.4 557.661 174.99C557.661 176.579 558.952 177.868 560.544 177.868Z" fill="url(#paint23_linear_101_5951)"/>
<path d="M554.633 178.461C558.81 178.461 562.195 175.081 562.195 170.911C562.195 166.742 558.81 163.362 554.633 163.362C550.457 163.362 547.071 166.742 547.071 170.911C547.071 175.081 550.457 178.461 554.633 178.461Z" fill="url(#paint24_linear_101_5951)"/>
<path d="M547.97 182.698C550.314 182.698 552.214 180.801 552.214 178.461C552.214 176.12 550.314 174.223 547.97 174.223C545.625 174.223 543.725 176.12 543.725 178.461C543.725 180.801 545.625 182.698 547.97 182.698Z" fill="url(#paint25_linear_101_5951)"/>
<path d="M560.21 187.427L559.023 186.733L559.617 185.446L560.21 185.836V184.159H563.774L562.094 185.446V191.274C561.862 191.91 560.746 191.664 560.21 191.476V187.427Z" fill="#4C5173"/>
<path d="M565.44 184.361C566.48 184.361 567.323 183.519 567.323 182.481C567.323 181.443 566.48 180.601 565.44 180.601C564.4 180.601 563.557 181.443 563.557 182.481C563.557 183.519 564.4 184.361 565.44 184.361Z" fill="url(#paint26_linear_101_5951)"/>
<path d="M561.587 184.752C564.315 184.752 566.526 182.544 566.526 179.82C566.526 177.096 564.315 174.889 561.587 174.889C558.859 174.889 556.647 177.096 556.647 179.82C556.647 182.544 558.859 184.752 561.587 184.752Z" fill="url(#paint27_linear_101_5951)"/>
<path d="M557.241 187.514C558.769 187.514 560.008 186.277 560.008 184.752C560.008 183.226 558.769 181.989 557.241 181.989C555.713 181.989 554.474 183.226 554.474 184.752C554.474 186.277 555.713 187.514 557.241 187.514Z" fill="url(#paint28_linear_101_5951)"/>
<path d="M413.827 313.593C412.292 316.529 408.728 314.808 407.135 313.593C407.903 311.757 408.728 297.569 409.047 290.7H411.915C412.075 296.658 412.683 309.558 413.827 313.593Z" fill="#4C5173"/>
<path d="M410.481 266.259C402.108 266.823 399.327 292.45 410.481 292.999C421.635 293.563 418.289 264.582 410.481 266.259Z" fill="url(#paint29_linear_101_5951)"/>
<path d="M421.331 310.108L419.52 309.052L420.433 307.085L421.346 307.693V305.119H426.793L424.214 307.085V315.994C423.852 316.963 422.142 316.601 421.331 316.298V310.108Z" fill="#4C5173"/>
<path d="M429.342 305.437C430.934 305.437 432.225 304.148 432.225 302.559C432.225 300.969 430.934 299.681 429.342 299.681C427.75 299.681 426.459 300.969 426.459 302.559C426.459 304.148 427.75 305.437 429.342 305.437Z" fill="url(#paint30_linear_101_5951)"/>
<path d="M423.446 306.015C427.622 306.015 431.008 302.635 431.008 298.466C431.008 294.297 427.622 290.917 423.446 290.917C419.27 290.917 415.884 294.297 415.884 298.466C415.884 302.635 419.27 306.015 423.446 306.015Z" fill="url(#paint31_linear_101_5951)"/>
<path d="M416.783 310.267C419.127 310.267 421.027 308.37 421.027 306.03C421.027 303.689 419.127 301.792 416.783 301.792C414.438 301.792 412.538 303.689 412.538 306.03C412.538 308.37 414.438 310.267 416.783 310.267Z" fill="url(#paint32_linear_101_5951)"/>
<path d="M416.797 319.031L415.609 318.337L416.203 317.05L416.797 317.44V315.762H420.361L418.68 317.05V322.878C418.448 323.514 417.333 323.268 416.797 323.08V319.031Z" fill="#4C5173"/>
<path d="M422.041 315.965C423.081 315.965 423.924 315.123 423.924 314.085C423.924 313.047 423.081 312.205 422.041 312.205C421.001 312.205 420.158 313.047 420.158 314.085C420.158 315.123 421.001 315.965 422.041 315.965Z" fill="url(#paint33_linear_101_5951)"/>
<path d="M418.188 316.355C420.916 316.355 423.128 314.147 423.128 311.424C423.128 308.7 420.916 306.492 418.188 306.492C415.46 306.492 413.248 308.7 413.248 311.424C413.248 314.147 415.46 316.355 418.188 316.355Z" fill="url(#paint34_linear_101_5951)"/>
<path d="M413.827 319.118C415.356 319.118 416.594 317.881 416.594 316.355C416.594 314.83 415.356 313.593 413.827 313.593C412.299 313.593 411.061 314.83 411.061 316.355C411.061 317.881 412.299 319.118 413.827 319.118Z" fill="url(#paint35_linear_101_5951)"/>
<path d="M130.709 282.992C129.174 285.927 125.61 284.206 124.016 282.992C124.784 281.155 125.61 266.968 125.929 260.098H128.797C128.956 266.057 129.565 278.957 130.709 282.992Z" fill="#4C5173"/>
<path d="M127.363 235.643C118.99 236.207 116.208 261.834 127.363 262.383C138.517 262.947 135.171 233.966 127.363 235.643Z" fill="url(#paint36_linear_101_5951)"/>
<path d="M108.27 295.631C106.734 298.567 103.171 296.846 101.577 295.631C102.345 293.795 103.171 279.608 103.489 272.738H106.358C106.517 278.696 107.125 291.597 108.27 295.631Z" fill="#4C5173"/>
<path d="M104.924 248.297C96.5505 248.861 93.7692 274.488 104.924 275.038C116.078 275.602 112.732 246.62 104.924 248.297Z" fill="url(#paint37_linear_101_5951)"/>
<path d="M304.022 353.19C304.022 353.19 302.718 353.306 302.327 354.014V360.407C302.327 360.407 304.935 362.504 308.223 360.392V353.985C308.223 353.985 307.788 353.277 306.716 353.205" fill="#8796B8"/>
<path d="M305.21 355.012C306.866 355.012 308.208 354.553 308.208 353.986C308.208 353.418 306.866 352.959 305.21 352.959C303.554 352.959 302.211 353.418 302.211 353.986C302.211 354.553 303.554 355.012 305.21 355.012Z" fill="#AFBEDF"/>
<path d="M296.475 320.81C296.475 320.81 298.546 320.665 300.951 322.733C303.356 324.801 303.761 326.696 303.761 326.696L304.384 326.016C304.384 326.016 302.342 322.719 300.429 321.605C297.445 319.841 296.475 320.419 296.475 320.419V320.81Z" fill="#6C73AB"/>
<path d="M296.475 320.477C296.475 320.477 303.544 321.113 304.022 328.417C304.471 335.431 304.022 353.855 304.022 353.855C304.022 353.855 305.224 354.709 306.716 353.855V327.911C306.716 327.911 304.37 318.872 296.489 319.725V320.477H296.475Z" fill="#8796B8"/>
<path d="M296.475 319.725V320.101C296.475 320.101 299.691 320.043 301.588 321.388C303.486 322.733 305.789 325.524 305.702 331.208C305.615 336.891 305.746 354.202 305.746 354.202L306.702 353.855C306.702 353.855 307.194 330.788 306.702 327.911C306.209 325.033 302.791 318.771 296.475 319.725Z" fill="#AFBEDF"/>
<path opacity="0.42" d="M292.563 322.777L287.58 352.713C287.58 352.713 287.232 355.822 293.331 355.822C298.995 355.822 299.227 353.089 299.227 353.089L294.128 322.791H292.563V322.777Z" fill="white"/>
<path opacity="0.58" d="M293.404 356.053C296.62 356.053 299.227 354.797 299.227 353.248C299.227 351.698 296.62 350.442 293.404 350.442C290.187 350.442 287.58 351.698 287.58 353.248C287.58 354.797 290.187 356.053 293.404 356.053Z" fill="#E0EAFD"/>
<path d="M291.216 319.971L290.695 321.88C290.695 321.88 293.534 323.312 294.534 322.921C295.533 322.531 296.359 321.359 296.359 321.359L296.62 320.419L291.216 319.971Z" fill="#8796B8"/>
<path d="M296.822 319.682C296.677 319.682 293.375 318.901 293.375 318.901C293.375 318.901 290.318 319.262 291.462 320.535C292.607 321.808 295.417 321.012 295.417 321.012L296.62 320.419L296.822 319.682Z" fill="#AFBEDF"/>
<path d="M354.564 345.786C354.564 345.786 355.868 345.901 356.259 346.61V353.002C356.259 353.002 353.652 355.099 350.363 352.988V346.581C350.363 346.581 350.798 345.872 351.87 345.8" fill="#8796B8"/>
<path d="M353.376 347.622C355.033 347.622 356.375 347.162 356.375 346.595C356.375 346.028 355.033 345.569 353.376 345.569C351.72 345.569 350.378 346.028 350.378 346.595C350.378 347.162 351.72 347.622 353.376 347.622Z" fill="#AFBEDF"/>
<path d="M362.126 313.42C362.126 313.42 360.055 313.275 357.65 315.343C355.245 317.411 354.84 319.306 354.84 319.306L354.217 318.626C354.217 318.626 356.259 315.329 358.171 314.215C361.156 312.451 362.126 313.029 362.126 313.029V313.42Z" fill="#6C73AB"/>
<path d="M362.126 313.087C362.126 313.087 355.057 313.723 354.579 321.027C354.101 328.33 354.579 346.465 354.579 346.465C354.579 346.465 353.376 347.319 351.884 346.465V320.52C351.884 320.52 354.231 311.482 362.112 312.335V313.087H362.126Z" fill="#8796B8"/>
<path d="M362.126 312.335V312.711C362.126 312.711 358.91 312.653 357.012 313.998C355.115 315.343 352.811 318.134 352.898 323.818C352.985 329.501 352.855 346.812 352.855 346.812L351.899 346.465C351.899 346.465 351.406 323.398 351.899 320.52C352.391 317.642 355.81 311.38 362.126 312.335Z" fill="#AFBEDF"/>
<path opacity="0.42" d="M366.023 315.372L371.006 345.308C371.006 345.308 371.354 348.418 365.255 348.418C359.591 348.418 359.359 345.684 359.359 345.684L364.458 315.386H366.023V315.372Z" fill="white"/>
<path opacity="0.58" d="M365.183 348.663C368.399 348.663 371.006 347.407 371.006 345.858C371.006 344.308 368.399 343.052 365.183 343.052C361.967 343.052 359.359 344.308 359.359 345.858C359.359 347.407 361.967 348.663 365.183 348.663Z" fill="#E0EAFD"/>
<path d="M367.37 312.581L367.892 314.49C367.892 314.49 365.052 315.922 364.053 315.531C363.053 315.141 362.228 313.969 362.228 313.969L361.967 313.029L367.37 312.581Z" fill="#8796B8"/>
<path d="M361.764 312.292C361.909 312.292 365.212 311.511 365.212 311.511C365.212 311.511 368.268 311.872 367.124 313.145C365.979 314.417 363.169 313.622 363.169 313.622L361.967 313.029L361.764 312.292Z" fill="#AFBEDF"/>
<path d="M161.101 281.401L159.29 280.345L160.203 278.378L161.116 278.986V276.411H166.562L163.984 278.378V287.287C163.622 288.256 161.912 287.894 161.101 287.591V281.401Z" fill="#4C5173"/>
<path d="M169.112 276.715C170.704 276.715 171.995 275.427 171.995 273.837C171.995 272.248 170.704 270.959 169.112 270.959C167.52 270.959 166.229 272.248 166.229 273.837C166.229 275.427 167.52 276.715 169.112 276.715Z" fill="url(#paint38_linear_101_5951)"/>
<path d="M163.216 277.308C167.392 277.308 170.778 273.928 170.778 269.759C170.778 265.59 167.392 262.21 163.216 262.21C159.04 262.21 155.654 265.59 155.654 269.759C155.654 273.928 159.04 277.308 163.216 277.308Z" fill="url(#paint39_linear_101_5951)"/>
<path d="M156.552 281.56C158.897 281.56 160.797 279.663 160.797 277.323C160.797 274.982 158.897 273.085 156.552 273.085C154.208 273.085 152.308 274.982 152.308 277.323C152.308 279.663 154.208 281.56 156.552 281.56Z" fill="url(#paint40_linear_101_5951)"/>
<path d="M168.605 284.481L167.417 283.787L168.011 282.5L168.605 282.89V281.213H172.169L170.488 282.5V288.328C170.256 288.965 169.141 288.719 168.605 288.531V284.481Z" fill="#4C5173"/>
<path d="M173.834 281.43C174.875 281.43 175.718 280.588 175.718 279.55C175.718 278.511 174.875 277.67 173.834 277.67C172.794 277.67 171.951 278.511 171.951 279.55C171.951 280.588 172.794 281.43 173.834 281.43Z" fill="url(#paint41_linear_101_5951)"/>
<path d="M169.981 281.82C172.709 281.82 174.921 279.612 174.921 276.889C174.921 274.165 172.709 271.957 169.981 271.957C167.253 271.957 165.041 274.165 165.041 276.889C165.041 279.612 167.253 281.82 169.981 281.82Z" fill="url(#paint42_linear_101_5951)"/>
<path d="M165.635 284.583C167.163 284.583 168.402 283.346 168.402 281.82C168.402 280.295 167.163 279.058 165.635 279.058C164.107 279.058 162.868 280.295 162.868 281.82C162.868 283.346 164.107 284.583 165.635 284.583Z" fill="url(#paint43_linear_101_5951)"/>
<path d="M116.252 292.03L119.555 290.136L122.886 292.247L119.801 294.2L116.252 292.03Z" fill="#E0EAFD"/>
<path d="M116.252 292.03V292.84L119.699 295.024L123.611 292.696L122.886 292.247L119.801 294.2L116.252 292.03Z" fill="#2A305C"/>
<path d="M122.886 292.247V295.516L121.235 299.377L119.569 298.292L121.09 295.299L121.221 291.192L122.886 292.247Z" fill="#8896B7"/>
<path d="M121.235 299.377L122.235 298.726L123.524 295.819V292.652L122.886 292.247V295.516L121.235 299.377Z" fill="#2A305C"/>
<path d="M125.697 294.041L126.044 298.423L127.102 302.978L129.058 304.048L127.797 298.697L127.435 295.14L125.697 294.041Z" fill="#8896B7"/>
<path d="M127.435 295.14L127.681 295.299L128.029 295.082L128.333 298.509L129.608 303.701L129.058 304.048L127.797 298.697L127.435 295.14Z" fill="#2A305C"/>
<path d="M146.644 280.721L146.977 285.118L148.035 289.673L149.99 290.729L148.744 285.392L148.382 281.82L146.644 280.721Z" fill="#8896B7"/>
<path d="M148.382 281.82L148.628 281.979L148.976 281.762L149.266 285.19L150.541 290.396L149.99 290.729L148.744 285.392L148.382 281.82Z" fill="#2A305C"/>
<path d="M126.175 298.061L150.294 282.5L154.249 284.814L130.245 300.534L126.175 298.061Z" fill="#E0EAFD"/>
<path d="M126.175 298.061V298.914L130.245 301.387L154.249 285.71V284.814L130.245 300.534L126.175 298.061Z" fill="#2A305C"/>
<path d="M118.975 288.733L142.573 273.447L151.728 279.015L127.623 294.258L118.975 288.733Z" fill="#E0EAFD"/>
<path d="M118.975 288.733C118.946 288.936 118.975 289.774 118.975 289.774L127.681 295.299L151.714 280.013V279.015L127.609 294.258L118.961 288.733H118.975Z" fill="#2A305C"/>
<path d="M123.524 294.2L122.886 294.518L125.9 296.557L125.827 295.704L123.524 294.2Z" fill="#2A305C"/>
<path d="M122.886 294.518V295.516L125.972 297.584L125.9 296.557L122.886 294.518Z" fill="#8896B7"/>
<path d="M568.294 194.803L566.961 193.949L565.759 194.586L567.062 195.453L568.294 194.803Z" fill="#E0EAFD"/>
<path d="M546.825 182.77L548.028 182.12L547.97 182.77L566.005 194.456L565.759 194.586L565.614 195.54L546.796 183.349L546.825 182.77Z" fill="#E0EAFD"/>
<path d="M568.294 194.803L567.265 205.345L566.86 212.331L565.701 213.213L566.121 205.345L567.062 195.453L568.294 194.803Z" fill="#2A305C"/>
<path d="M547.723 184.115L546.869 191.274L546.55 191.129L545.42 190.594L546.13 183.71L547.723 184.115Z" fill="#2A305C"/>
<path d="M565.092 196.017L564.556 196.104L563.948 202.468L564.426 202.251L565.092 196.017Z" fill="#2A305C"/>
<path d="M564.556 196.104L564.093 195.786L563.441 202.12L563.948 202.468L564.556 196.104Z" fill="#8896B7"/>
<path d="M564.426 202.251L565.179 202.699L565.121 203.22L563.948 202.468L564.426 202.251Z" fill="#2A305C"/>
<path d="M563.412 194.918L562.89 195.005L562.268 201.368L562.746 201.166L563.412 194.918Z" fill="#2A305C"/>
<path d="M562.89 195.005L562.412 194.701L561.761 201.021L562.268 201.368L562.89 195.005Z" fill="#8896B7"/>
<path d="M562.746 201.166L563.499 201.614L563.455 202.12L562.268 201.368L562.746 201.166Z" fill="#2A305C"/>
<path d="M561.732 193.819L561.196 193.906L560.587 200.269L561.051 200.052L561.732 193.819Z" fill="#2A305C"/>
<path d="M561.196 193.906L560.718 193.602L560.066 199.922L560.587 200.269L561.196 193.906Z" fill="#8896B7"/>
<path d="M561.051 200.052L561.804 200.501L561.761 201.021L560.587 200.269L561.051 200.052Z" fill="#2A305C"/>
<path d="M560.037 192.72L559.501 192.792L558.892 199.156L559.356 198.953L560.037 192.72Z" fill="#2A305C"/>
<path d="M559.501 192.792L559.023 192.489L558.371 198.823L558.892 199.156L559.501 192.792Z" fill="#8896B7"/>
<path d="M559.356 198.953L560.124 199.402L560.066 199.922L558.892 199.156L559.356 198.953Z" fill="#2A305C"/>
<path d="M558.342 191.621L557.806 191.693L557.197 198.071L557.675 197.854L558.342 191.621Z" fill="#2A305C"/>
<path d="M557.806 191.693L557.342 191.39L556.69 197.724L557.197 198.071L557.806 191.693Z" fill="#8896B7"/>
<path d="M557.675 197.854L558.429 198.302L558.371 198.823L557.197 198.071L557.675 197.854Z" fill="#2A305C"/>
<path d="M556.661 190.522L556.14 190.609L555.517 196.972L555.995 196.769L556.661 190.522Z" fill="#2A305C"/>
<path d="M556.14 190.609L555.662 190.305L555.01 196.625L555.517 196.972L556.14 190.609Z" fill="#8896B7"/>
<path d="M555.995 196.769L556.748 197.218L556.69 197.724L555.517 196.972L555.995 196.769Z" fill="#2A305C"/>
<path d="M554.966 189.423L554.445 189.51L553.822 195.873L554.3 195.67L554.966 189.423Z" fill="#2A305C"/>
<path d="M554.445 189.51L553.967 189.206L553.315 195.526L553.822 195.873L554.445 189.51Z" fill="#8896B7"/>
<path d="M554.3 195.67L555.053 196.119L554.995 196.625L553.822 195.873L554.3 195.67Z" fill="#2A305C"/>
<path d="M553.286 188.338L552.75 188.41L552.142 194.774L552.605 194.571L553.286 188.338Z" fill="#2A305C"/>
<path d="M552.75 188.411L552.272 188.107L551.62 194.427L552.142 194.774L552.75 188.411Z" fill="#8896B7"/>
<path d="M552.605 194.571L553.359 195.02L553.315 195.54L552.142 194.774L552.605 194.571Z" fill="#2A305C"/>
<path d="M551.591 187.239L551.055 187.326L550.447 193.689L550.91 193.472L551.591 187.239Z" fill="#2A305C"/>
<path d="M551.055 187.326L550.577 187.008L549.925 193.342L550.447 193.689L551.055 187.326Z" fill="#8896B7"/>
<path d="M550.91 193.472L551.678 193.92L551.62 194.441L550.447 193.689L550.91 193.472Z" fill="#2A305C"/>
<path d="M549.896 186.14L549.36 186.227L548.752 192.59L549.23 192.387L549.896 186.14Z" fill="#2A305C"/>
<path d="M549.36 186.227L548.897 185.923L548.245 192.243L548.752 192.59L549.36 186.227Z" fill="#8896B7"/>
<path d="M549.23 192.387L549.983 192.836L549.925 193.342L548.752 192.59L549.23 192.387Z" fill="#2A305C"/>
<path d="M548.201 185.026L547.665 185.113L547.057 191.476L547.535 191.274L548.201 185.026Z" fill="#2A305C"/>
<path d="M547.665 185.113L547.202 184.809L546.55 191.129L547.057 191.476L547.665 185.113Z" fill="#8896B7"/>
<path d="M547.535 191.274L548.288 191.708L548.23 192.228L547.057 191.476L547.535 191.274Z" fill="#2A305C"/>
<path d="M544.421 192.069L545.478 181.917L546.825 182.77L546.796 183.349L565.614 195.54L565.759 194.586L567.062 195.453L566.121 205.345L564.991 204.564L565.759 196.856L546.275 184.231L545.391 192.72L544.421 192.069Z" fill="#8896B7"/>
<path d="M564.991 204.564L545.42 191.751L545.623 190.464L565.121 203.219L564.991 204.564Z" fill="#8896B7"/>
<path d="M545.869 188.208L544.725 187.586L536.134 192.763L537.192 193.472L545.869 188.208Z" fill="#E0EAFD"/>
<path d="M545.869 188.208L545.739 189.466L537.192 194.571V193.472L545.869 188.208Z" fill="#2A305C"/>
<path d="M536.134 192.763L537.192 193.472V194.571L536.134 193.863V192.763Z" fill="#8896B7"/>
<path d="M539.307 193.27L539.249 202.916L538.061 203.639V194.022L539.307 193.27Z" fill="#2A305C"/>
<path d="M538.061 194.022L537.192 194.542L536.873 194.34V202.829L538.061 203.639V194.022Z" fill="#8896B7"/>
<path d="M564.846 204.463L564.325 212.446L565.701 213.213L566.121 205.345L564.846 204.463Z" fill="#8896B7"/>
<path d="M565.744 205.389L564.339 206.228L542.827 191.968L544.16 191.216L565.744 205.389Z" fill="#E0EAFD"/>
<path d="M565.744 205.389L565.73 206.936L564.354 207.674L564.368 206.228L565.744 205.389Z" fill="#8896B7"/>
<path d="M564.368 206.228L542.827 191.968L542.813 193.111L564.354 207.674L564.368 206.228Z" fill="#2A305C"/>
<path d="M563.991 206.401L562.586 207.225L541.074 192.966L542.407 192.214L563.991 206.401Z" fill="#E0EAFD"/>
<path d="M563.991 206.401L563.977 207.949L562.601 208.686L562.615 207.225L563.991 206.401Z" fill="#8896B7"/>
<path d="M562.615 207.225L541.074 192.966L541.06 194.123L562.601 208.686L562.615 207.225Z" fill="#2A305C"/>
<path d="M562.296 207.471L560.877 208.296L539.365 194.036L540.712 193.284L562.296 207.471Z" fill="#E0EAFD"/>
<path d="M562.297 207.471L562.268 209.019L560.891 209.756L560.906 208.31L562.297 207.471Z" fill="#8896B7"/>
<path d="M560.906 208.31L539.365 194.036L539.35 195.193L560.891 209.756L560.906 208.31Z" fill="#2A305C"/>
<path d="M560.529 208.542L559.124 209.38L537.612 195.121L538.945 194.369L560.529 208.542Z" fill="#E0EAFD"/>
<path d="M560.529 208.542L560.515 210.089L559.139 210.826L559.153 209.38L560.529 208.542Z" fill="#8896B7"/>
<path d="M559.153 209.38L537.612 195.121L537.598 196.263L559.139 210.827L559.153 209.38Z" fill="#2A305C"/>
<path d="M556.748 206.199L557.806 206.907V208.006L556.748 207.312V206.199Z" fill="#8896B7"/>
<path d="M566.483 201.643L565.339 201.021L556.748 206.199L557.806 206.907L566.483 201.643Z" fill="#E0EAFD"/>
<path d="M566.483 201.643L566.353 202.916L557.806 208.006V206.907L566.483 201.643Z" fill="#2A305C"/>
<path d="M559.935 206.748L559.863 216.38L558.675 217.103V207.486L559.935 206.748Z" fill="#2A305C"/>
<path d="M558.675 207.486L557.806 208.006L557.502 207.804V216.308L558.675 217.103V207.486Z" fill="#8896B7"/>
<path d="M176.572 335.72L343.584 228.615L503.598 327.072L490.228 329.675L467.542 338.815L451.071 349.965L432.225 357.312L333.588 296.673L246.077 353.985L176.572 335.72Z" fill="#BDD59B"/>
</g>
<defs>
<linearGradient id="paint0_linear_101_5951" x1="314.51" y1="1.72245e-05" x2="314.51" y2="26.8125" gradientUnits="userSpaceOnUse">
<stop stop-color="#99CA9C"/>
<stop offset="1" stop-color="#6F9772"/>
</linearGradient>
<linearGradient id="paint1_linear_101_5951" x1="214.917" y1="175.453" x2="214.917" y2="202.265" gradientUnits="userSpaceOnUse">
<stop stop-color="#99CA9C"/>
<stop offset="1" stop-color="#6F9772"/>
</linearGradient>
<linearGradient id="paint2_linear_101_5951" x1="267.662" y1="140.238" x2="267.662" y2="167.05" gradientUnits="userSpaceOnUse">
<stop stop-color="#99CA9C"/>
<stop offset="1" stop-color="#6F9772"/>
</linearGradient>
<linearGradient id="paint3_linear_101_5951" x1="330.083" y1="34.1013" x2="330.083" y2="39.8427" gradientUnits="userSpaceOnUse">
<stop stop-color="#99CA9C"/>
<stop offset="1" stop-color="#6F9772"/>
</linearGradient>
<linearGradient id="paint4_linear_101_5951" x1="324.172" y1="25.3373" x2="324.172" y2="40.4356" gradientUnits="userSpaceOnUse">
<stop stop-color="#99CA9C"/>
<stop offset="1" stop-color="#6F9772"/>
</linearGradient>
<linearGradient id="paint5_linear_101_5951" x1="317.509" y1="36.2128" x2="317.509" y2="44.673" gradientUnits="userSpaceOnUse">
<stop stop-color="#99CA9C"/>
<stop offset="1" stop-color="#6F9772"/>
</linearGradient>
<linearGradient id="paint6_linear_101_5951" x1="271.037" y1="184.057" x2="271.037" y2="189.813" gradientUnits="userSpaceOnUse">
<stop stop-color="#99CA9C"/>
<stop offset="1" stop-color="#6F9772"/>
</linearGradient>
<linearGradient id="paint7_linear_101_5951" x1="265.126" y1="175.293" x2="265.126" y2="190.406" gradientUnits="userSpaceOnUse">
<stop stop-color="#99CA9C"/>
<stop offset="1" stop-color="#6F9772"/>
</linearGradient>
<linearGradient id="paint8_linear_101_5951" x1="258.463" y1="186.183" x2="258.463" y2="194.643" gradientUnits="userSpaceOnUse">
<stop stop-color="#99CA9C"/>
<stop offset="1" stop-color="#6F9772"/>
</linearGradient>
<linearGradient id="paint9_linear_101_5951" x1="235.734" y1="211.145" x2="235.734" y2="216.886" gradientUnits="userSpaceOnUse">
<stop stop-color="#99CA9C"/>
<stop offset="1" stop-color="#6F9772"/>
</linearGradient>
<linearGradient id="paint10_linear_101_5951" x1="229.824" y1="202.381" x2="229.824" y2="217.493" gradientUnits="userSpaceOnUse">
<stop stop-color="#99CA9C"/>
<stop offset="1" stop-color="#6F9772"/>
</linearGradient>
<linearGradient id="paint11_linear_101_5951" x1="223.174" y1="213.271" x2="223.174" y2="221.731" gradientUnits="userSpaceOnUse">
<stop stop-color="#99CA9C"/>
<stop offset="1" stop-color="#6F9772"/>
</linearGradient>
<linearGradient id="paint12_linear_101_5951" x1="334.631" y1="41.9975" x2="334.631" y2="45.7576" gradientUnits="userSpaceOnUse">
<stop stop-color="#99CA9C"/>
<stop offset="1" stop-color="#6F9772"/>
</linearGradient>
<linearGradient id="paint13_linear_101_5951" x1="330.764" y1="36.2706" x2="330.764" y2="46.1481" gradientUnits="userSpaceOnUse">
<stop stop-color="#99CA9C"/>
<stop offset="1" stop-color="#6F9772"/>
</linearGradient>
<linearGradient id="paint14_linear_101_5951" x1="326.418" y1="43.3859" x2="326.418" y2="48.9103" gradientUnits="userSpaceOnUse">
<stop stop-color="#99CA9C"/>
<stop offset="1" stop-color="#6F9772"/>
</linearGradient>
<linearGradient id="paint15_linear_101_5951" x1="26.8285" y1="228.456" x2="26.8285" y2="255.268" gradientUnits="userSpaceOnUse">
<stop stop-color="#99CA9C"/>
<stop offset="1" stop-color="#6F9772"/>
</linearGradient>
<linearGradient id="paint16_linear_101_5951" x1="42.4011" y1="262.557" x2="42.4011" y2="268.298" gradientUnits="userSpaceOnUse">
<stop stop-color="#99CA9C"/>
<stop offset="1" stop-color="#6F9772"/>
</linearGradient>
<linearGradient id="paint17_linear_101_5951" x1="36.5052" y1="253.793" x2="36.5052" y2="268.906" gradientUnits="userSpaceOnUse">
<stop stop-color="#99CA9C"/>
<stop offset="1" stop-color="#6F9772"/>
</linearGradient>
<linearGradient id="paint18_linear_101_5951" x1="29.8416" y1="264.668" x2="29.8416" y2="273.129" gradientUnits="userSpaceOnUse">
<stop stop-color="#99CA9C"/>
<stop offset="1" stop-color="#6F9772"/>
</linearGradient>
<linearGradient id="paint19_linear_101_5951" x1="46.9498" y1="270.468" x2="46.9498" y2="274.213" gradientUnits="userSpaceOnUse">
<stop stop-color="#99CA9C"/>
<stop offset="1" stop-color="#6F9772"/>
</linearGradient>
<linearGradient id="paint20_linear_101_5951" x1="43.0964" y1="264.741" x2="43.0964" y2="274.604" gradientUnits="userSpaceOnUse">
<stop stop-color="#99CA9C"/>
<stop offset="1" stop-color="#6F9772"/>
</linearGradient>
<linearGradient id="paint21_linear_101_5951" x1="38.7506" y1="271.842" x2="38.7506" y2="277.366" gradientUnits="userSpaceOnUse">
<stop stop-color="#99CA9C"/>
<stop offset="1" stop-color="#6F9772"/>
</linearGradient>
<linearGradient id="paint22_linear_101_5951" x1="563.774" y1="136.246" x2="563.774" y2="163.073" gradientUnits="userSpaceOnUse">
<stop stop-color="#99CA9C"/>
<stop offset="1" stop-color="#6F9772"/>
</linearGradient>
<linearGradient id="paint23_linear_101_5951" x1="560.544" y1="172.112" x2="560.544" y2="177.853" gradientUnits="userSpaceOnUse">
<stop stop-color="#99CA9C"/>
<stop offset="1" stop-color="#6F9772"/>
</linearGradient>
<linearGradient id="paint24_linear_101_5951" x1="554.633" y1="163.348" x2="554.633" y2="178.446" gradientUnits="userSpaceOnUse">
<stop stop-color="#99CA9C"/>
<stop offset="1" stop-color="#6F9772"/>
</linearGradient>
<linearGradient id="paint25_linear_101_5951" x1="547.984" y1="174.223" x2="547.984" y2="182.684" gradientUnits="userSpaceOnUse">
<stop stop-color="#99CA9C"/>
<stop offset="1" stop-color="#6F9772"/>
</linearGradient>
<linearGradient id="paint26_linear_101_5951" x1="565.455" y1="180.601" x2="565.455" y2="184.361" gradientUnits="userSpaceOnUse">
<stop stop-color="#99CA9C"/>
<stop offset="1" stop-color="#6F9772"/>
</linearGradient>
<linearGradient id="paint27_linear_101_5951" x1="561.601" y1="174.874" x2="561.601" y2="184.752" gradientUnits="userSpaceOnUse">
<stop stop-color="#99CA9C"/>
<stop offset="1" stop-color="#6F9772"/>
</linearGradient>
<linearGradient id="paint28_linear_101_5951" x1="557.241" y1="181.989" x2="557.241" y2="187.514" gradientUnits="userSpaceOnUse">
<stop stop-color="#99CA9C"/>
<stop offset="1" stop-color="#6F9772"/>
</linearGradient>
<linearGradient id="paint29_linear_101_5951" x1="410.394" y1="266.187" x2="410.394" y2="292.999" gradientUnits="userSpaceOnUse">
<stop stop-color="#99CA9C"/>
<stop offset="1" stop-color="#6F9772"/>
</linearGradient>
<linearGradient id="paint30_linear_101_5951" x1="429.357" y1="299.681" x2="429.357" y2="305.422" gradientUnits="userSpaceOnUse">
<stop stop-color="#99CA9C"/>
<stop offset="1" stop-color="#6F9772"/>
</linearGradient>
<linearGradient id="paint31_linear_101_5951" x1="423.446" y1="290.917" x2="423.446" y2="306.015" gradientUnits="userSpaceOnUse">
<stop stop-color="#99CA9C"/>
<stop offset="1" stop-color="#6F9772"/>
</linearGradient>
<linearGradient id="paint32_linear_101_5951" x1="416.797" y1="301.792" x2="416.797" y2="310.252" gradientUnits="userSpaceOnUse">
<stop stop-color="#99CA9C"/>
<stop offset="1" stop-color="#6F9772"/>
</linearGradient>
<linearGradient id="paint33_linear_101_5951" x1="422.041" y1="312.205" x2="422.041" y2="315.965" gradientUnits="userSpaceOnUse">
<stop stop-color="#99CA9C"/>
<stop offset="1" stop-color="#6F9772"/>
</linearGradient>
<linearGradient id="paint34_linear_101_5951" x1="418.188" y1="306.478" x2="418.188" y2="316.355" gradientUnits="userSpaceOnUse">
<stop stop-color="#99CA9C"/>
<stop offset="1" stop-color="#6F9772"/>
</linearGradient>
<linearGradient id="paint35_linear_101_5951" x1="413.842" y1="313.593" x2="413.842" y2="319.118" gradientUnits="userSpaceOnUse">
<stop stop-color="#99CA9C"/>
<stop offset="1" stop-color="#6F9772"/>
</linearGradient>
<linearGradient id="paint36_linear_101_5951" x1="127.276" y1="235.571" x2="127.276" y2="262.383" gradientUnits="userSpaceOnUse">
<stop stop-color="#99CA9C"/>
<stop offset="1" stop-color="#6F9772"/>
</linearGradient>
<linearGradient id="paint37_linear_101_5951" x1="104.837" y1="248.225" x2="104.837" y2="275.038" gradientUnits="userSpaceOnUse">
<stop stop-color="#99CA9C"/>
<stop offset="1" stop-color="#6F9772"/>
</linearGradient>
<linearGradient id="paint38_linear_101_5951" x1="169.126" y1="270.959" x2="169.126" y2="276.701" gradientUnits="userSpaceOnUse">
<stop stop-color="#99CA9C"/>
<stop offset="1" stop-color="#6F9772"/>
</linearGradient>
<linearGradient id="paint39_linear_101_5951" x1="163.216" y1="262.195" x2="163.216" y2="277.308" gradientUnits="userSpaceOnUse">
<stop stop-color="#99CA9C"/>
<stop offset="1" stop-color="#6F9772"/>
</linearGradient>
<linearGradient id="paint40_linear_101_5951" x1="156.567" y1="273.071" x2="156.567" y2="281.545" gradientUnits="userSpaceOnUse">
<stop stop-color="#99CA9C"/>
<stop offset="1" stop-color="#6F9772"/>
</linearGradient>
<linearGradient id="paint41_linear_101_5951" x1="173.849" y1="277.67" x2="173.849" y2="281.415" gradientUnits="userSpaceOnUse">
<stop stop-color="#99CA9C"/>
<stop offset="1" stop-color="#6F9772"/>
</linearGradient>
<linearGradient id="paint42_linear_101_5951" x1="169.996" y1="271.943" x2="169.996" y2="281.82" gradientUnits="userSpaceOnUse">
<stop stop-color="#99CA9C"/>
<stop offset="1" stop-color="#6F9772"/>
</linearGradient>
<linearGradient id="paint43_linear_101_5951" x1="165.635" y1="279.058" x2="165.635" y2="284.583" gradientUnits="userSpaceOnUse">
<stop stop-color="#99CA9C"/>
<stop offset="1" stop-color="#6F9772"/>
</linearGradient>
<clipPath id="clip0_101_5951">
<rect width="577" height="388" fill="white"/>
</clipPath>
</defs>
</svg>
