<svg width="88" height="140" viewBox="0 0 88 140" fill="none" xmlns="http://www.w3.org/2000/svg">
<g clip-path="url(#clip0_4_3)">
<path d="M7.98133 71.293C7.98133 71.293 5.75125 73.879 4.51884 73.7321C3.28643 73.5852 -0.410802 74.6725 0.029345 77.141C0.469492 79.6095 3.34512 82.6952 6.10337 81.7842C8.86162 80.8732 11.8253 74.1435 11.8253 74.1435L7.98133 71.3224V71.293Z" fill="#EDC8D0"/>
<path d="M81.8966 71.4399C81.8966 71.4399 81.9847 74.8488 80.9576 75.554C79.9306 76.2593 77.906 79.5507 79.9306 81.0788C81.9553 82.6069 86.122 82.989 87.5305 80.4323C88.939 77.8756 86.6502 70.9109 86.6502 70.9109L81.8966 71.4105V71.4399Z" fill="#EDC8D0"/>
<path d="M36.6789 2.17465C36.6789 2.17465 32.1894 10.9908 35.2997 14.0764C38.4101 17.1621 43.3398 17.1621 43.3398 17.1621V19.0134H49.9713V12.5189C49.9713 12.5189 45.6579 2.76239 36.6789 2.14526V2.17465Z" fill="#EDC8D0"/>
<path d="M36.6789 2.17464C36.6789 2.17464 36.5322 -0.146933 39.936 1.87568e-06C43.3398 0.146937 51.8199 -0.940384 52.2894 3.26197C52.7589 7.46432 53.6686 14.3997 52.2894 14.3997C50.9103 14.3997 49.9713 12.5483 49.9713 12.5483C49.9713 12.5483 45.9807 3.76155 36.6789 2.17464Z" fill="#3B101A"/>
<path d="M38.3808 20.2771H53.9913L53.023 31.9732L40.6402 32.5315L38.3808 20.2771Z" fill="#E0EAFD"/>
<path d="M26.7903 63.8875L29.8713 132.124H34.2141L40.5228 75.0252H57.1897L65.083 132.124H70.4235L70.981 63.8875H26.7903Z" fill="#A41F4E"/>
<path d="M31.133 132.124L30.1354 135.21C30.1354 135.21 25.8219 134.887 25.8219 137.443C25.8219 140 27.4358 140 27.4358 140H34.5368L33.4511 132.124H31.133Z" fill="#2A305C"/>
<path d="M66.8143 132.124L65.8166 135.21C65.8166 135.21 61.5032 134.887 61.5032 137.443C61.5032 140 63.117 140 63.117 140H70.2181L69.1324 132.124H66.8143Z" fill="#2A305C"/>
<path d="M6.10336 69.9413C6.10336 69.9413 20.012 50.9278 20.4815 45.9614C20.951 40.995 21.2444 25.2435 24.5015 22.5987C27.7586 19.9539 38.4101 20.2771 38.4101 20.2771C38.4101 20.2771 45.8339 30.7977 47.2131 30.9446C48.5922 31.0916 54.0207 20.2477 54.0207 20.2477C54.0207 20.2477 68.5455 18.7196 71.0103 21.6583C73.4752 24.597 84.1267 42.9933 86.2981 52.8968C88.4695 62.8002 88 72.5273 88 72.5273H79.5198C79.5198 72.5273 80.2828 57.6869 78.5809 52.8968C76.879 48.1067 73.6512 39.4375 71.0103 40.3779V63.8875H26.8489V53.0731L13.1164 75.0252L6.16205 69.9119L6.10336 69.9413Z" fill="#6C73AB"/>
</g>
<defs>
<clipPath id="clip0_4_3">
<rect width="88" height="140" fill="white"/>
</clipPath>
</defs>
</svg>
