<svg width="202" height="144" viewBox="0 0 202 144" fill="none" xmlns="http://www.w3.org/2000/svg">
<g clip-path="url(#clip0_71_3)">
<path d="M7.98133 75.293C7.98133 75.293 5.75125 77.879 4.51884 77.7321C3.28643 77.5852 -0.410802 78.6725 0.029345 81.141C0.469492 83.6095 3.34512 86.6952 6.10337 85.7842C8.86162 84.8732 11.8253 78.1435 11.8253 78.1435L7.98133 75.3224V75.293Z" fill="#EDC8D0"/>
<path d="M81.8966 75.4399C81.8966 75.4399 81.9847 78.8488 80.9576 79.554C79.9306 80.2593 77.906 83.5507 79.9306 85.0788C81.9553 86.6069 86.122 86.989 87.5305 84.4323C88.939 81.8756 86.6502 74.9109 86.6502 74.9109L81.8966 75.4105V75.4399Z" fill="#EDC8D0"/>
<path d="M36.6789 6.17465C36.6789 6.17465 32.1894 14.9908 35.2997 18.0764C38.4101 21.1621 43.3398 21.1621 43.3398 21.1621V23.0134H49.9713V16.5189C49.9713 16.5189 45.6579 6.76239 36.6789 6.14526V6.17465Z" fill="#EDC8D0"/>
<path d="M36.6789 6.17464C36.6789 6.17464 36.5322 3.85307 39.936 4C43.3398 4.14694 51.8199 3.05962 52.2894 7.26197C52.7589 11.4643 53.6686 18.3997 52.2894 18.3997C50.9103 18.3997 49.9713 16.5483 49.9713 16.5483C49.9713 16.5483 45.9807 7.76155 36.6789 6.17464Z" fill="#3B101A"/>
<path d="M38.3808 24.2771H53.9913L53.023 35.9732L40.6402 36.5315L38.3808 24.2771Z" fill="#E0EAFD"/>
<path d="M26.7903 67.8875L29.8713 136.124H34.2141L40.5228 79.0252H57.1897L65.083 136.124H70.4235L70.981 67.8875H26.7903Z" fill="#A41F4E"/>
<path d="M31.133 136.124L30.1354 139.21C30.1354 139.21 25.8219 138.887 25.8219 141.443C25.8219 144 27.4358 144 27.4358 144H34.5368L33.4511 136.124H31.133Z" fill="#2A305C"/>
<path d="M66.8143 136.124L65.8166 139.21C65.8166 139.21 61.5032 138.887 61.5032 141.443C61.5032 144 63.117 144 63.117 144H70.2181L69.1324 136.124H66.8143Z" fill="#2A305C"/>
<path d="M6.10336 73.9413C6.10336 73.9413 20.012 54.9278 20.4815 49.9614C20.951 44.995 21.2444 29.2435 24.5015 26.5987C27.7586 23.9539 38.4101 24.2771 38.4101 24.2771C38.4101 24.2771 45.8339 34.7977 47.2131 34.9446C48.5922 35.0916 54.0207 24.2477 54.0207 24.2477C54.0207 24.2477 68.5455 22.7196 71.0103 25.6583C73.4752 28.597 84.1267 46.9933 86.2981 56.8968C88.4695 66.8002 88 76.5273 88 76.5273H79.5198C79.5198 76.5273 80.2828 61.6869 78.5809 56.8968C76.879 52.1067 73.6512 43.4375 71.0103 44.3779V67.8875H26.8489V57.0731L13.1164 79.0252L6.16205 73.9119L6.10336 73.9413Z" fill="#6C73AB"/>
</g>
<g clip-path="url(#clip1_71_3)">
<path d="M59.9813 75.293C59.9813 75.293 57.7513 77.879 56.5188 77.7321C55.2864 77.5852 51.5892 78.6725 52.0293 81.141C52.4695 83.6095 55.3451 86.6952 58.1034 85.7842C60.8616 84.8732 63.8253 78.1435 63.8253 78.1435L59.9813 75.3224V75.293Z" fill="#EDC8D0"/>
<path d="M133.897 75.4399C133.897 75.4399 133.985 78.8488 132.958 79.554C131.931 80.2593 129.906 83.5507 131.931 85.0788C133.955 86.6069 138.122 86.989 139.531 84.4323C140.939 81.8756 138.65 74.9109 138.65 74.9109L133.897 75.4105V75.4399Z" fill="#EDC8D0"/>
<path d="M88.6789 6.17465C88.6789 6.17465 84.1894 14.9908 87.2997 18.0764C90.4101 21.1621 95.3398 21.1621 95.3398 21.1621V23.0134H101.971V16.5189C101.971 16.5189 97.6579 6.76239 88.6789 6.14526V6.17465Z" fill="#EDC8D0"/>
<path d="M88.6789 6.17464C88.6789 6.17464 88.5322 3.85307 91.936 4C95.3398 4.14694 103.82 3.05962 104.289 7.26197C104.759 11.4643 105.669 18.3997 104.289 18.3997C102.91 18.3997 101.971 16.5483 101.971 16.5483C101.971 16.5483 97.9807 7.76155 88.6789 6.17464Z" fill="#3B101A"/>
<path d="M90.3808 24.2771H105.991L105.023 35.9732L92.6402 36.5315L90.3808 24.2771Z" fill="#E0EAFD"/>
<path d="M78.7903 67.8875L81.8713 136.124H86.2141L92.5228 79.0252H109.19L117.083 136.124H122.423L122.981 67.8875H78.7903Z" fill="#A41F4E"/>
<path d="M83.133 136.124L82.1354 139.21C82.1354 139.21 77.8219 138.887 77.8219 141.443C77.8219 144 79.4358 144 79.4358 144H86.5368L85.4511 136.124H83.133Z" fill="#2A305C"/>
<path d="M118.814 136.124L117.817 139.21C117.817 139.21 113.503 138.887 113.503 141.443C113.503 144 115.117 144 115.117 144H122.218L121.132 136.124H118.814Z" fill="#2A305C"/>
<path d="M58.1034 73.9413C58.1034 73.9413 72.012 54.9278 72.4815 49.9614C72.951 44.995 73.2444 29.2435 76.5015 26.5987C79.7586 23.9539 90.4101 24.2771 90.4101 24.2771C90.4101 24.2771 97.8339 34.7977 99.2131 34.9446C100.592 35.0916 106.021 24.2477 106.021 24.2477C106.021 24.2477 120.546 22.7196 123.01 25.6583C125.475 28.597 136.127 46.9933 138.298 56.8968C140.469 66.8002 140 76.5273 140 76.5273H131.52C131.52 76.5273 132.283 61.6869 130.581 56.8968C128.879 52.1067 125.651 43.4375 123.01 44.3779V67.8875H78.8489V57.0731L65.1164 79.0252L58.162 73.9119L58.1034 73.9413Z" fill="#6C73AB"/>
</g>
<g clip-path="url(#clip2_71_3)">
<path d="M121.981 71.293C121.981 71.293 119.751 73.879 118.519 73.7321C117.286 73.5852 113.589 74.6725 114.029 77.141C114.469 79.6095 117.345 82.6952 120.103 81.7842C122.862 80.8732 125.825 74.1435 125.825 74.1435L121.981 71.3224V71.293Z" fill="#EDC8D0"/>
<path d="M195.897 71.4399C195.897 71.4399 195.985 74.8488 194.958 75.554C193.931 76.2593 191.906 79.5507 193.931 81.0788C195.955 82.6069 200.122 82.989 201.531 80.4323C202.939 77.8756 200.65 70.9109 200.65 70.9109L195.897 71.4105V71.4399Z" fill="#EDC8D0"/>
<path d="M150.679 2.17465C150.679 2.17465 146.189 10.9908 149.3 14.0764C152.41 17.1621 157.34 17.1621 157.34 17.1621V19.0134H163.971V12.5189C163.971 12.5189 159.658 2.76239 150.679 2.14526V2.17465Z" fill="#EDC8D0"/>
<path d="M150.679 2.17464C150.679 2.17464 150.532 -0.146933 153.936 1.87568e-06C157.34 0.146937 165.82 -0.940384 166.289 3.26197C166.759 7.46432 167.669 14.3997 166.289 14.3997C164.91 14.3997 163.971 12.5483 163.971 12.5483C163.971 12.5483 159.981 3.76155 150.679 2.17464Z" fill="#3B101A"/>
<path d="M152.381 20.2771H167.991L167.023 31.9732L154.64 32.5315L152.381 20.2771Z" fill="#E0EAFD"/>
<path d="M140.79 63.8875L143.871 132.124H148.214L154.523 75.0252H171.19L179.083 132.124H184.423L184.981 63.8875H140.79Z" fill="#A41F4E"/>
<path d="M145.133 132.124L144.135 135.21C144.135 135.21 139.822 134.887 139.822 137.443C139.822 140 141.436 140 141.436 140H148.537L147.451 132.124H145.133Z" fill="#2A305C"/>
<path d="M180.814 132.124L179.817 135.21C179.817 135.21 175.503 134.887 175.503 137.443C175.503 140 177.117 140 177.117 140H184.218L183.132 132.124H180.814Z" fill="#2A305C"/>
<path d="M120.103 69.9413C120.103 69.9413 134.012 50.9278 134.481 45.9614C134.951 40.995 135.244 25.2435 138.501 22.5987C141.759 19.9539 152.41 20.2771 152.41 20.2771C152.41 20.2771 159.834 30.7977 161.213 30.9446C162.592 31.0916 168.021 20.2477 168.021 20.2477C168.021 20.2477 182.546 18.7196 185.01 21.6583C187.475 24.597 198.127 42.9933 200.298 52.8968C202.469 62.8002 202 72.5273 202 72.5273H193.52C193.52 72.5273 194.283 57.6869 192.581 52.8968C190.879 48.1067 187.651 39.4375 185.01 40.3779V63.8875H140.849V53.0731L127.116 75.0252L120.162 69.9119L120.103 69.9413Z" fill="#6C73AB"/>
</g>
<defs>
<clipPath id="clip0_71_3">
<rect width="88" height="140" fill="white" transform="translate(0 4)"/>
</clipPath>
<clipPath id="clip1_71_3">
<rect width="88" height="140" fill="white" transform="translate(52 4)"/>
</clipPath>
<clipPath id="clip2_71_3">
<rect width="88" height="140" fill="white" transform="translate(114)"/>
</clipPath>
</defs>
</svg>
