<svg width="230" height="181" viewBox="0 0 230 181" fill="none" xmlns="http://www.w3.org/2000/svg">
<g clip-path="url(#clip0_102_2)">
<path d="M7.98133 89.293C7.98133 89.293 5.75125 91.879 4.51884 91.7321C3.28643 91.5852 -0.410802 92.6725 0.029345 95.141C0.469492 97.6095 3.34512 100.695 6.10337 99.7842C8.86162 98.8732 11.8253 92.1435 11.8253 92.1435L7.98133 89.3224V89.293Z" fill="#EDC8D0"/>
<path d="M81.8966 89.4399C81.8966 89.4399 81.9847 92.8488 80.9576 93.554C79.9306 94.2593 77.906 97.5507 79.9306 99.0788C81.9553 100.607 86.122 100.989 87.5305 98.4323C88.939 95.8756 86.6502 88.9109 86.6502 88.9109L81.8966 89.4105V89.4399Z" fill="#EDC8D0"/>
<path d="M36.6789 20.1747C36.6789 20.1747 32.1894 28.9908 35.2997 32.0764C38.4101 35.1621 43.3398 35.1621 43.3398 35.1621V37.0134H49.9713V30.5189C49.9713 30.5189 45.6579 20.7624 36.6789 20.1453V20.1747Z" fill="#EDC8D0"/>
<path d="M36.6789 20.1746C36.6789 20.1746 36.5322 17.8531 39.936 18C43.3398 18.1469 51.8199 17.0596 52.2894 21.262C52.7589 25.4643 53.6686 32.3997 52.2894 32.3997C50.9103 32.3997 49.9713 30.5483 49.9713 30.5483C49.9713 30.5483 45.9807 21.7615 36.6789 20.1746Z" fill="#3B101A"/>
<path d="M38.3808 38.2771H53.9913L53.023 49.9732L40.6402 50.5315L38.3808 38.2771Z" fill="#E0EAFD"/>
<path d="M26.7903 81.8875L29.8713 150.124H34.2141L40.5228 93.0252H57.1897L65.083 150.124H70.4235L70.981 81.8875H26.7903Z" fill="#A41F4E"/>
<path d="M31.133 150.124L30.1354 153.21C30.1354 153.21 25.8219 152.887 25.8219 155.443C25.8219 158 27.4358 158 27.4358 158H34.5368L33.4511 150.124H31.133Z" fill="#2A305C"/>
<path d="M66.8143 150.124L65.8166 153.21C65.8166 153.21 61.5032 152.887 61.5032 155.443C61.5032 158 63.117 158 63.117 158H70.2181L69.1324 150.124H66.8143Z" fill="#2A305C"/>
<path d="M6.10336 87.9413C6.10336 87.9413 20.012 68.9278 20.4815 63.9614C20.951 58.995 21.2444 43.2435 24.5015 40.5987C27.7586 37.9539 38.4101 38.2771 38.4101 38.2771C38.4101 38.2771 45.8339 48.7977 47.2131 48.9446C48.5922 49.0916 54.0207 38.2477 54.0207 38.2477C54.0207 38.2477 68.5455 36.7196 71.0103 39.6583C73.4752 42.597 84.1267 60.9933 86.2981 70.8968C88.4695 80.8002 88 90.5273 88 90.5273H79.5198C79.5198 90.5273 80.2828 75.6869 78.5809 70.8968C76.879 66.1067 73.6512 57.4375 71.0103 58.3779V81.8875H26.8489V71.0731L13.1164 93.0252L6.16205 87.9119L6.10336 87.9413Z" fill="#6C73AB"/>
</g>
<path d="M112.324 116.585C112.324 116.585 112.64 119.411 111.826 120.067C111.013 120.722 109.566 123.594 111.329 124.724C113.092 125.854 116.596 125.877 117.591 123.684C118.586 121.491 116.212 115.862 116.212 115.862L112.301 116.585H112.324Z" fill="#EDC8D0"/>
<path d="M81.1492 164.105L80.2902 166.727C80.2902 166.727 76.6279 166.456 76.6279 168.626C76.6279 170.796 78.0069 170.796 78.0069 170.796H84.0429L83.116 164.105H81.1492Z" fill="#2A305C"/>
<path d="M102.874 164.489L102.015 167.111C102.015 167.111 98.3529 166.84 98.3529 169.01C98.3529 171.18 99.7319 171.18 99.7319 171.18H105.768L104.841 164.489H102.874Z" fill="#2A305C"/>
<path d="M88.9034 78.5839C88.9034 78.5839 90.0563 81.4775 87.9313 81.9523C85.8063 82.427 80.7198 82.3366 78.9791 83.4895C77.2384 84.6425 75.0455 84.8911 75.995 82.8113C76.9445 80.7315 79.273 78.8778 80.5616 78.923C81.8501 78.9682 81.9632 70.6038 81.3302 67.371C80.6972 64.1383 84.563 60.2951 89.1973 60.3404C93.8317 60.3856 87.1401 66.3989 88.8808 78.5613L88.9034 78.5839Z" fill="#161036"/>
<path d="M79.092 118.077V164.444H84.1107L89.1294 130.127C89.1294 130.127 89.9884 126.148 92.1812 126.148C94.3741 126.148 95.1653 130.127 95.1653 130.127L100.84 164.444H106.13L106.649 118.077H79.0694H79.092Z" fill="#FFAE41"/>
<path d="M33.404 157.165V167.518H36.6368L37.0889 156.893L33.404 157.165Z" fill="#E6E7E8"/>
<path d="M48.5054 157.662V168.016H51.7381L52.1902 157.391L48.5054 157.662Z" fill="#E6E7E8"/>
<path d="M33.291 166.659C33.291 166.659 31.3469 169.282 33.0876 169.146C33.0876 169.146 33.3363 169.914 33.7658 169.824C33.7658 169.824 34.1501 170.028 34.8283 169.824C34.8283 169.824 36.6368 169.236 36.7725 168.603C36.7725 168.603 36.9081 167.88 36.7498 167.36C36.5916 166.84 36.3881 166.976 35.936 166.614C35.4839 166.252 35.4839 165.551 34.444 165.122C33.4041 164.692 33.291 166.659 33.291 166.659Z" fill="#231F20"/>
<path d="M48.3696 166.705C48.3696 166.705 46.4255 169.327 48.1662 169.191C48.1662 169.191 48.4148 169.96 48.8444 169.869C48.8444 169.869 49.2287 170.073 49.9069 169.869C49.9069 169.869 51.7154 169.282 51.8511 168.649C51.8511 168.649 51.9867 167.925 51.8285 167.405C51.6702 166.885 51.4668 167.021 51.0146 166.659C50.5625 166.298 50.5625 165.597 49.5226 165.167C48.4827 164.738 48.3696 166.705 48.3696 166.705Z" fill="#231F20"/>
<path d="M32.2963 138.401C32.2963 138.401 28.7471 138.492 27.9785 141.182C27.9785 141.182 20.3827 142.335 23.1633 145.228C25.9439 148.122 31.1434 146.585 31.1434 146.585C31.1434 146.585 29.1314 155.718 34.037 157.459C38.9427 159.199 39.0331 159.855 39.1462 160.917C39.2592 161.98 39.44 167.812 39.44 167.812L42.5823 167.88L42.9666 159.855C42.9666 159.855 51.5346 160.624 54.3152 158.792L55.1516 166.207L58.2261 165.914L59.0174 156.374C59.0174 156.374 62.0014 148.009 55.1742 147.421C48.347 146.834 40.7512 149.546 38.5358 145.5C36.3203 141.453 36.4107 138.763 32.2737 138.379L32.2963 138.401Z" fill="white"/>
<path d="M23.1181 142.923C23.1181 142.923 21.5582 143.33 22.1234 144.324C22.6885 145.319 23.7963 144.822 23.8867 144.324C23.9771 143.827 23.1407 142.923 23.1407 142.923H23.1181Z" fill="#231F20"/>
<path d="M56.3498 147.647C56.3498 147.647 62.6118 147.828 64.7142 154.067C66.8167 160.307 68.806 161.369 68.806 161.369C68.806 161.369 69.7103 162.183 69.1451 162.432C68.58 162.68 68.4669 161.799 68.1278 161.663C67.7887 161.527 65.4829 159.018 64.8047 157.232C64.1265 155.446 63.8326 152.281 61.8206 151.558C59.8086 150.835 57.7288 150.202 57.3897 149.885C57.0506 149.569 56.3272 147.647 56.3272 147.647H56.3498Z" fill="#231F20"/>
<path d="M39.4174 167.202C39.4174 167.202 37.4055 169.824 39.214 169.688C39.214 169.688 39.4853 170.457 39.9148 170.367C39.9148 170.367 40.3217 170.57 41.0225 170.367C41.0225 170.367 42.8988 169.779 43.0345 169.146C43.0345 169.146 43.1701 168.422 43.0119 167.902C42.8536 167.382 42.6502 167.518 42.1754 167.156C41.7007 166.795 41.7007 166.094 40.6382 165.664C39.5757 165.235 39.44 167.202 39.44 167.202H39.4174Z" fill="#231F20"/>
<path d="M55.0386 165.506C55.0386 165.506 53.0944 168.129 54.8351 167.993C54.8351 167.993 55.0838 168.762 55.5133 168.671C55.5133 168.671 55.8977 168.875 56.5759 168.671C56.5759 168.671 58.3844 168.083 58.52 167.45C58.52 167.45 58.6557 166.727 58.4974 166.207C58.3392 165.687 58.1357 165.823 57.6836 165.461C57.2315 165.099 57.2314 164.399 56.1915 163.969C55.1516 163.54 55.0386 165.506 55.0386 165.506Z" fill="#231F20"/>
<path d="M38.5359 145.522C38.5359 145.522 34.2858 149.433 30.8722 148.19L30.7366 148.845C30.7366 148.845 32.9747 149.998 35.1449 148.868C37.3151 147.738 39.1915 146.517 39.1915 146.517L38.5132 145.5L38.5359 145.522Z" fill="#8A1E42"/>
<path d="M62.8379 124.317C62.8379 124.317 59.3565 137.497 50.9694 140.955C42.5823 144.414 38.5358 145.499 38.5358 145.499L39.214 146.517C39.214 146.517 50.7207 144.324 56.0107 139.169C60.9389 134.354 65.0985 124.317 65.0985 124.317H62.8379Z" fill="#8A1E42"/>
<path d="M32.2963 138.401C32.2963 138.401 33.4945 136.932 35.2126 137.836C36.9307 138.74 35.3256 141.611 36.0943 143.081C36.8629 144.55 38.1062 150.564 35.6195 149.162C33.1328 147.76 33.2006 144.663 33.0876 143.33C32.9745 141.996 31.8442 139.554 32.2963 138.401Z" fill="#231F20"/>
<path d="M66.3872 116.156C66.3872 116.156 64.8273 118.507 63.7874 118.507C62.7475 118.507 59.8087 119.773 60.4417 121.762C61.0746 123.752 63.7422 126.012 65.9125 124.973C68.0827 123.933 69.8686 118.1 69.8686 118.1L66.3872 116.156Z" fill="#EDC8D0"/>
<path d="M65.935 114.46C65.935 114.46 74.6612 105.26 75.0455 99.9922C75.4298 94.7249 75.4298 81.274 79.9285 80.6184H103.778C103.778 80.6184 108.006 80.3697 110.063 85.3658C112.12 90.3618 116.981 99.088 116.981 102.049V116.676H111.849C111.849 116.676 112.821 105.463 110.764 100.783C108.707 96.1039 106.604 93.8658 106.604 93.8658V118.1H79.0243V107.95C79.0243 107.95 74.7968 118.191 68.4443 119.05C62.0919 119.909 65.935 114.483 65.935 114.483V114.46Z" fill="#8A1E42"/>
<path d="M83.5907 63.3472C83.5907 63.3472 79.0016 72.3672 82.1665 75.5547C85.3315 78.7423 90.3953 78.7197 90.3953 78.7197V80.6186H97.1999V73.9723C97.1999 73.9723 92.769 64.0028 83.5681 63.3472H83.5907Z" fill="#EDC8D0"/>
<path d="M90.1241 60.4986C90.6667 60.4534 95.4819 58.1927 98.6016 63.6861C101.721 69.1795 103.417 79.0812 103.213 80.9124C103.01 82.7435 103.259 88.4178 100.365 86.2475C97.4712 84.0773 97.2452 81.2515 96.6574 78.2674C96.0696 75.2833 94.9845 70.762 91.8422 69.0891C88.6999 67.4162 82.4379 65.992 83.5682 63.3696C84.6985 60.7473 90.1015 60.5212 90.1015 60.5212L90.1241 60.4986Z" fill="#161036"/>
<path d="M138.4 21.0657H152.183L151.327 31.3708L140.399 31.8899L138.4 21.0657Z" fill="#AFBEDF"/>
<path d="M162.151 21.014C162.151 21.014 166.304 19.9238 168.9 23.7655C171.496 27.6072 185.175 48.1914 185.746 53.279C186.317 58.3667 185.746 72.6692 185.746 72.6692C185.746 72.6692 179.464 71.9164 178.219 73.1624C178.219 73.1624 177.959 57.1986 176.739 54.6548C175.519 52.111 163.942 33.6033 163.942 33.6033C163.942 33.6033 160.386 26.3612 162.151 21.04V21.014Z" fill="#AFBEDF"/>
<path d="M124.046 27.9709C124.046 27.9709 126.044 21.5075 129.003 21.17C131.962 20.8326 139.62 21.17 139.62 21.17C139.62 21.17 140.788 31.1117 145.097 31.2674C149.406 31.4232 150.73 21.0143 150.73 21.0143H162.151C162.151 21.0143 160.671 28.2823 164.461 32.4355C168.251 36.5887 170.925 37.5751 170.925 37.5751V67.4001L124.046 68.2308V27.9709Z" fill="#2A305C"/>
<path d="M125.914 68.2046L126.615 136.291H133.987C133.987 136.291 133.702 75.9918 148.134 75.9918C162.566 75.9918 163.864 136.291 163.864 136.291H169.99L170.951 67.3999L125.94 68.2046H125.914Z" fill="#7077AB"/>
<path d="M179.516 71.3975C179.516 71.3975 179.594 74.4086 178.686 75.0316C177.777 75.6545 175.986 78.5618 177.777 79.9116C179.568 81.2613 183.254 81.5988 184.5 79.3405C185.746 77.0822 183.722 70.9303 183.722 70.9303L179.516 71.3716V71.3975Z" fill="#EDC8D0"/>
<path d="M135.077 2.40247C135.077 2.40247 130.12 12.1365 133.546 15.5369C136.972 18.9373 142.423 18.9633 142.423 18.9633V21.0139H149.769V13.8497C149.769 13.8497 144.993 3.10332 135.103 2.40247H135.077Z" fill="#EDC8D0"/>
<path d="M135.077 2.40256C135.077 2.40256 134.896 -0.167216 138.659 0.0144853C142.423 0.196187 151.794 -0.997853 152.313 3.5966C152.832 8.19106 153.845 15.8744 152.313 15.8744C150.782 15.8744 149.743 13.8238 149.743 13.8238C149.743 13.8238 145.331 4.14171 135.077 2.37661V2.40256Z" fill="#58595B"/>
<path d="M144.318 69.9176H141.489V142.235H144.318V69.9176Z" fill="#4C5173"/>
<path d="M136.453 65.531C136.453 65.531 138.815 67.3999 139.854 67.0625C140.892 66.725 144.292 67.0625 144.318 69.2689C144.344 71.4752 142.371 74.642 139.828 74.3046C137.284 73.9672 133.572 68.6199 133.572 68.6199L136.453 65.531Z" fill="#EDC8D0"/>
<path d="M139.205 64.8301C135.233 66.3097 132.404 70.9561 132.404 70.9561C132.404 70.9561 114 58.0293 114 54.2136C114 50.3978 124.02 27.9447 124.02 27.9447L124.123 40.7676C124.123 40.7676 124.383 47.5685 124.383 51.2025C124.383 54.8365 139.179 64.8042 139.179 64.8042L139.205 64.8301Z" fill="#AFBEDF"/>
<path d="M130.794 136.291L129.808 139.354C129.808 139.354 125.525 139.042 125.525 141.586C125.525 144.13 127.134 144.104 127.134 144.104H134.195L133.131 136.291H130.82H130.794Z" fill="#2A305C"/>
<path d="M166.226 136.291L165.24 139.354C165.24 139.354 160.957 139.042 160.957 141.586C160.957 144.13 162.566 144.104 162.566 144.104H169.627L168.562 136.291H166.252H166.226Z" fill="#2A305C"/>
<path d="M124.037 148.991C124.037 148.991 123.34 142.639 127.993 133.305C132.646 123.971 133.65 124.528 133.65 124.528V133.305C133.65 133.305 127.715 140.382 127.576 148.295C127.436 156.208 124.037 148.991 124.037 148.991Z" fill="#EDC8D0"/>
<path d="M155.159 122.829L165.468 125.364L172.545 118.148C172.545 118.148 176.363 117.145 175.666 120.544C174.969 123.943 169.397 130.714 165.468 131.577C161.54 132.441 155.159 129.181 155.159 129.181V122.829Z" fill="#EDC8D0"/>
<path d="M222.921 120.377C222.921 120.377 223.255 123.47 222.391 124.222C221.527 124.974 219.911 128.123 221.862 129.349C223.812 130.574 227.657 130.602 228.772 128.206C229.886 125.81 227.267 119.597 227.267 119.597L222.948 120.405L222.921 120.377Z" fill="#EDC8D0"/>
<path d="M136.519 171.365L135.878 173.288C135.878 173.288 133.176 173.092 133.176 174.681C133.176 176.269 134.179 176.269 134.179 176.269H138.637L137.968 171.337H136.519V171.365Z" fill="#2A305C"/>
<path d="M152.596 171.644L151.955 173.566C151.955 173.566 149.252 173.371 149.252 174.959C149.252 176.547 150.255 176.547 150.255 176.547H154.713L154.045 171.616H152.596V171.644Z" fill="#2A305C"/>
<path d="M188.538 172.786L187.591 175.684C187.591 175.684 183.551 175.405 183.551 177.774C183.551 180.142 185.056 180.17 185.056 180.17H191.715L190.712 172.814H188.538V172.786Z" fill="#2A305C"/>
<path d="M212.5 173.204L211.553 176.102C211.553 176.102 207.513 175.823 207.513 178.191C207.513 180.56 209.017 180.587 209.017 180.587H215.676L214.673 173.232H212.5V173.204Z" fill="#2A305C"/>
<path d="M149.141 121.352C152.819 120.823 155.856 122.16 155.856 122.16V132.274C154.574 132.553 155.131 134.614 155.131 134.614V149.382H135.683L135.767 135.032C135.628 132.915 133.649 133.333 133.649 133.333V123.637C136.324 121.38 140.364 121.575 140.364 121.575C140.364 121.575 140.504 124.278 144.739 124.278C148.974 124.278 149.113 121.352 149.113 121.352H149.141Z" fill="#FFDD15"/>
<path d="M140.392 121.575C140.559 121.714 142.76 121.575 142.76 121.575V120.21C142.76 120.21 138.247 121.157 137.411 118.009C136.575 114.86 134.569 108.786 142.593 108.591C150.618 108.396 150.228 116.058 149.475 117.841C148.723 119.625 146.717 119.931 146.717 119.931V121.603H149.865V126.451H138.776V121.631L140.392 121.547V121.575Z" fill="#EDC8D0"/>
<path d="M137.411 118.036C137.411 118.036 134.792 119.569 132.674 116.866C130.557 114.163 133.454 103.213 142.705 103.213C151.955 103.213 153.237 113.522 153.181 114.442C153.125 115.361 152.345 119.457 148.723 118.008C147.441 113.16 146.383 114.721 143.346 112.241C140.309 109.761 138.33 109.705 137.69 111.182C137.049 112.659 137.411 118.008 137.411 118.008V118.036Z" fill="#3B101A"/>
<path d="M135.711 149.382V172.173H138.72L140.643 157.768C140.643 157.768 141.089 154.703 145.435 154.703C149.169 154.703 149.615 157.573 149.615 157.573L151.203 172.201H155.131V149.409H135.683L135.711 149.382Z" fill="#7077AB"/>
<path d="M171.877 118.036C171.877 118.036 181.489 107.894 181.907 102.099C182.325 96.3037 182.325 81.4531 187.285 80.7565H213.587C213.587 80.7565 218.24 80.4779 220.524 85.9946C222.809 91.5114 228.159 101.124 228.159 104.384V120.516H222.503C222.503 120.516 223.561 108.145 221.305 102.991C219.048 97.8361 216.707 95.3564 216.707 95.3564V122.076H186.309V110.904C186.309 110.904 181.656 122.188 174.663 123.135C167.67 124.083 171.905 118.092 171.905 118.092L171.877 118.036Z" fill="#199A62"/>
<path d="M197.092 78.4995C197.092 78.4995 198.374 81.6758 196.033 82.2052C193.693 82.7346 188.093 82.6231 186.17 83.9048C184.248 85.1865 181.824 85.4373 182.882 83.1525C183.941 80.8678 186.477 78.806 187.925 78.8617C189.374 78.9174 189.458 69.695 188.761 66.1286C188.065 62.5622 192.328 58.3271 197.426 58.3829C202.525 58.4386 195.17 65.0698 197.092 78.4717V78.4995Z" fill="#161036"/>
<path d="M191.241 61.6985C191.241 61.6985 186.17 71.6454 189.681 75.156C193.191 78.6667 198.764 78.6388 198.764 78.6388V80.7285H206.287V73.4007C206.287 73.4007 201.383 62.395 191.269 61.6985H191.241Z" fill="#EDC8D0"/>
<path d="M198.457 58.5501C199.043 58.4944 204.364 56.0147 207.791 62.0608C211.218 68.1069 213.085 79.029 212.89 81.0351C212.695 83.0412 212.946 89.3102 209.77 86.914C206.593 84.5179 206.315 81.3973 205.674 78.1095C205.033 74.8218 203.807 69.8344 200.38 67.9955C196.953 66.1566 190.015 64.5684 191.241 61.6986C192.467 58.8288 198.457 58.5501 198.457 58.5501Z" fill="#161036"/>
<path d="M186.282 122.021V173.148H191.826L197.371 135.311C197.371 135.311 198.318 130.936 200.742 130.936C203.166 130.936 204.03 135.311 204.03 135.311L210.299 173.148H216.122L216.707 122.021H186.309H186.282Z" fill="#006838"/>
<defs>
<clipPath id="clip0_102_2">
<rect width="88" height="140" fill="white" transform="translate(0 18)"/>
</clipPath>
</defs>
</svg>
