<svg width="119" height="217" viewBox="0 0 119 217" fill="none" xmlns="http://www.w3.org/2000/svg">
<g clip-path="url(#clip0_10_959)">
<path d="M11.3845 189.116L22.8084 182.484C22.8084 182.484 22.8347 173.715 31.7666 165.871L27.8318 163.199L8.72203 187.565L11.3845 189.116Z" fill="#8796B8"/>
<path d="M109.478 188.126L96.0735 182.523C96.0735 182.523 93.8438 164.933 83.6135 164.737L89.2008 161.141L103.353 173.285L109.478 188.126Z" fill="#4C5173"/>
<path d="M60.0312 168.594L26.5596 147.069L0 182.51L11.3845 189.116C11.3845 189.116 23.7921 157.988 40.4361 167.408C57.0801 176.829 48.2794 210.759 48.2794 210.759L60.1492 217L60.0181 168.594H60.0312Z" fill="#E0EAFD"/>
<path d="M59.9918 168.594L93.1487 146.665L118.987 182.041L109.465 188.139C109.465 188.139 96.2178 158.001 79.5738 167.421C62.9298 176.842 71.7305 210.772 71.7305 210.772L59.8607 217.013L59.9918 168.607V168.594Z" fill="#7583A0"/>
<path d="M23.32 139.068V145.101L59.8738 168.972L95.0242 145.635V140.397L59.8738 162.457L23.32 139.068Z" fill="#8796B8"/>
<path d="M59.1655 120.019L23.32 139.003L59.8738 162.392L95.0242 140.332L59.1655 120.019Z" fill="#E0EAFD"/>
<path d="M59.6115 90.4146L42.1805 99.6528L59.9525 111.015L77.0424 100.291L59.6115 90.4146Z" fill="#E0EAFD"/>
<path d="M59.7558 21.0432L53.3552 24.431L59.8738 28.0012L66.1432 24.6655L59.7558 21.0432Z" fill="#E0EAFD"/>
<path d="M29.2614 139.068L36.2522 143.746L46.4694 115.471L52.0699 118.546L52.4109 153.557L59.8738 158.222V112.226L43.2036 102.988L29.2614 139.068Z" fill="#8796B8"/>
<path d="M90.4731 139.068L83.4823 143.746L73.2782 115.471L67.6646 118.546L67.3367 153.557L59.8738 158.222V112.226L76.544 102.988L90.4731 139.068Z" fill="#7583A0"/>
<path d="M36.2522 143.746L44.5676 137.257L48.5155 116.605L46.4694 115.471L36.2522 143.746Z" fill="#4C5173"/>
<path d="M83.6135 143.746L75.298 137.257L71.337 116.605L73.3962 115.471L83.6135 143.746Z" fill="#4C5173"/>
<path d="M45.8923 99.6267C45.8923 99.6267 51.2567 74.5051 51.9256 58.7129C52.5945 42.9206 54.1028 25.4475 54.1028 25.4475L59.8738 28.1056V108.617L45.8923 99.6398V99.6267Z" fill="#8796B8"/>
<path d="M73.8422 99.6267C73.8422 99.6267 68.4778 74.5051 67.8089 58.7129C67.14 42.9206 65.6317 25.4475 65.6317 25.4475L59.8607 28.1056V108.617L73.8422 99.6398V99.6267Z" fill="#7583A0"/>
<path d="M47.3351 98.884C47.3351 98.884 51.401 79.1176 52.4502 63.9899C53.3815 50.4388 54.8898 27.2847 54.8898 27.2847L58.8901 29.5128L58.5884 106.337L47.3219 98.897L47.3351 98.884Z" fill="#7583A0"/>
<path d="M72.4519 98.884C72.4519 98.884 68.386 79.1176 67.3367 63.9899C66.4055 50.4388 64.8972 27.2847 64.8972 27.2847L60.8968 29.5128L61.1985 106.337L72.465 98.897L72.4519 98.884Z" fill="#4C5173"/>
<path d="M42.2855 99.7439V102.663L59.9394 113.96L76.9244 102.923V100.395L59.9394 111.054L42.2855 99.7439Z" fill="#4C5173"/>
<path d="M53.3946 24.457V25.5255L59.8738 29.1608L66.1038 25.6297V24.7046L59.8738 28.0012L53.3946 24.457Z" fill="#4C5173"/>
<path d="M54.9029 18.9324V23.6101L59.9787 26.3594V21.5253L54.9029 18.9324Z" fill="#8796B8"/>
<path d="M64.6086 19.167V23.8447L59.9787 26.3595V21.5254L64.6086 19.167Z" fill="#7583A0"/>
<path d="M54.7586 18.281L59.9787 21.0042V13.082L54.7586 18.281Z" fill="#E0EAFD"/>
<path d="M64.9365 18.4373L59.9787 21.0042V13.082L64.9365 18.4373Z" fill="#8796B8"/>
<path d="M54.7586 18.281L54.9029 19.2322L59.9787 21.8251L64.6086 19.4276L64.9365 18.4374L59.9787 20.9L54.7586 18.281Z" fill="#4C5173"/>
<path d="M58.9557 14.1114L59.9787 14.7238V0.938161L58.9557 0.456055V14.1114Z" fill="#8796B8"/>
<path d="M60.9493 14.1114L59.9787 14.7238V0.938161L60.9493 0.456055V14.1114Z" fill="#7583A0"/>
<path d="M58.9557 0.456047L59.9787 0L60.9493 0.456047L59.9787 0.938153L58.9557 0.456047Z" fill="#E0EAFD"/>
</g>
<defs>
<clipPath id="clip0_10_959">
<rect width="119" height="217" fill="white"/>
</clipPath>
</defs>
</svg>
