<svg width="182" height="149" viewBox="0 0 182 149" fill="none" xmlns="http://www.w3.org/2000/svg">
<g clip-path="url(#clip0_24_2)">
<path d="M45.5572 59.3011L73.9983 42.8948L136.743 81.1409L108.931 97.834L45.5572 59.3011Z" fill="#8796B8"/>
<path d="M5.1906 92.0383L88.9552 142.585C88.9552 142.585 105.113 153.86 121.429 146.495L174.207 115.659C174.207 115.659 180.141 112.535 181.771 105.486V98.9208C181.771 98.9208 177.324 103.932 174.65 105.486C171.976 107.041 122.901 136.322 122.901 136.322C122.901 136.322 114.451 139.763 108.96 139.446C103.469 139.129 96.8055 138.51 91.9151 135.069C87.0248 131.628 7.86455 84.054 7.86455 84.054C7.86455 84.054 1.04384 79.2091 0 76.7036V84.22C0 84.22 0.257385 89.0649 5.1906 92.0383Z" fill="#464E5F"/>
<path d="M0 76.7037V66.9988C0 66.9988 5.04761 73.2625 8.30783 74.9831C11.568 76.7037 89.8561 124.277 89.8561 124.277C89.8561 124.277 103.197 131.009 109.274 129.907C109.274 129.907 122.916 128.805 128.106 123.96L175.994 94.6948C175.994 94.6948 180.298 93.2911 181.771 88.5971V98.9209C181.771 98.9209 177.968 103.358 175.651 104.807C173.335 106.256 125.733 134.631 125.733 134.631C125.733 134.631 118.154 139.763 108.96 139.446C99.7654 139.129 93.1735 135.854 93.1735 135.854L9.49466 85.0351C9.49466 85.0351 0.743558 79.0431 0 76.7037Z" fill="#8C95AB"/>
<path d="M0 67.2401V57.5352C0 57.5352 5.04761 63.7988 8.30783 65.5195C11.568 67.2401 89.8561 114.814 89.8561 114.814C89.8561 114.814 103.197 121.545 109.274 120.444C109.274 120.444 122.916 119.342 128.106 114.497L175.994 85.2312C175.994 85.2312 180.298 83.8275 181.771 79.1335V89.4573C181.771 89.4573 177.968 93.8947 175.651 95.3436C173.335 96.7925 125.733 125.168 125.733 125.168C125.733 125.168 118.154 130.299 108.96 129.982C99.7654 129.666 93.1735 126.39 93.1735 126.39L9.49466 75.5715C9.49466 75.5715 0.743558 69.5795 0 67.2401Z" fill="#E0E9F6"/>
<path d="M0 57.5353V46.8191C0 46.8191 2.95993 52.7658 6.82071 54.8034C10.6815 56.841 89.8561 105.2 89.8561 105.2C89.8561 105.2 101.724 111.931 109.131 110.995C116.538 110.06 125.733 108.022 128.264 105.366L171.705 78.9676C171.705 78.9676 180.599 74.8472 181.786 67.0289V79.1638C181.786 79.1638 181.056 82.1824 176.009 85.2615C170.961 88.3405 128.678 114.18 128.678 114.18C128.678 114.18 121.886 120.232 109.289 120.474C109.289 120.474 100.709 121.425 89.8704 114.844L6.42033 64.2215C6.42033 64.2215 2.95993 61.052 0 57.5353Z" fill="#8C95AB"/>
<path d="M72.8114 15.229L23.6938 45.7927L20.4764 43.891L72.8114 12.0896" fill="#8C95AB"/>
<path d="M160.194 66.41L152.973 61.384L117.196 39.0008L72.8114 12.0896V15.229L159.193 67.4062L160.494 66.4855" fill="#8C95AB"/>
<path d="M36.4629 53.6714L51.9346 44.0117C65.619 35.469 82.6207 35.4841 96.2764 44.0721L146.195 75.4056L159.193 67.4213L72.8115 15.229L23.6938 45.7927L36.4772 53.6563L36.4629 53.6714Z" fill="#464E5F"/>
<path d="M58.3835 52.3281L69.9373 59.6785L57.4827 66.7119" stroke="#464E5F" stroke-width="0.25" stroke-miterlimit="10"/>
<path d="M46.3865 59.8293L73.9983 42.8948L136.743 81.1409" stroke="#464E5F" stroke-width="0.25" stroke-miterlimit="10"/>
<path d="M89.9561 87.1178C95.0735 87.1178 99.222 84.4757 99.222 81.2164C99.222 77.9571 95.0735 75.3149 89.9561 75.3149C84.8387 75.3149 80.6903 77.9571 80.6903 81.2164C80.6903 84.4757 84.8387 87.1178 89.9561 87.1178Z" stroke="#464E5F" stroke-width="0.25" stroke-miterlimit="10"/>
<path d="M85.0086 83.6463L112.349 66.9985" stroke="#464E5F" stroke-width="0.25" stroke-miterlimit="10"/>
<path d="M174.078 55.4826C152.486 41.8534 103.726 12.6481 91.715 5.16189C83.5501 0.679216 73.0402 -1.47911 63.8602 1.11692C58.9269 2.32437 54.2368 4.36195 49.8899 7.00326C43.0406 10.9879 31.687 17.7949 22.6213 23.2586C16.8158 26.8357 11.4108 29.8242 6.29165 33.2503C-3.24591 41.1441 -1.35841 50.5018 8.67961 56.4787C20.2477 63.4065 61.2005 88.1744 82.206 100.853C88.7264 104.928 95.9189 108.882 103.683 110.618C113.478 112.474 125.189 108.55 133.511 102.724C140.489 98.5133 156.876 88.5971 165.685 83.2692C172.42 79.3147 178.082 75.9641 181.528 68.8552C183.787 64.131 177.481 58.1994 174.221 55.5732L174.093 55.4675L174.078 55.4826ZM108.931 97.8341C89.3699 86.9821 28.5984 48.5397 21.8635 44.7211C21.0484 44.1325 21.2343 43.891 22.2066 43.1967C32.3591 36.7821 47.1301 27.6508 58.1548 20.7532C63.6314 17.3421 68.1642 14.5046 70.3949 13.116C71.6246 12.3613 72.2395 12.0293 72.8114 12.0897C82.3061 17.7798 149.855 58.5012 160.494 66.5006C155.489 70.1532 149.684 73.1265 141.505 78.2884C131.367 84.2804 117.554 93.291 108.988 97.8341H108.917H108.931Z" fill="#E0E9F6"/>
<path d="M36.4629 53.6715L50.1615 45.0382C65.1328 34.7446 84.4367 34.4578 98.6644 45.8079L146.195 75.3906L136.729 81.1562L73.9983 42.91L45.5429 59.3163L36.4629 53.113" fill="#5F6688"/>
<path d="M169.717 94.0005V95.2683C169.717 95.9626 169.36 96.5965 168.788 96.9437L129.379 120.58C128.292 121.229 126.962 120.399 126.962 119.085C126.962 118.482 127.277 117.908 127.763 117.606L168.001 92.9591C168.759 92.4912 169.703 93.0647 169.703 94.0005H169.717Z" fill="#464E5F"/>
<path d="M27.8262 84.2049L67.6637 108.309C68.393 108.746 69.3082 108.188 69.3082 107.298C69.3082 106.135 68.7219 105.079 67.7781 104.49L28.4697 80.326C27.769 79.9034 26.9111 80.4316 26.9111 81.2769V82.5296C26.9111 83.2239 27.2543 83.8578 27.8262 84.2049Z" fill="#464E5F"/>
</g>
<defs>
<clipPath id="clip0_24_2">
<rect width="182" height="149" fill="white"/>
</clipPath>
</defs>
</svg>
