<svg width="278" height="215" viewBox="0 0 278 215" fill="none" xmlns="http://www.w3.org/2000/svg">
<g clip-path="url(#clip0_80_6)">
<path d="M69.5874 85.5688L113.03 61.8953L208.871 117.083L166.389 141.17L69.5874 85.5688Z" fill="#8796B8"/>
<path d="M7.9285 132.807L135.877 205.744C135.877 205.744 160.558 222.013 185.479 211.385L266.096 166.891C266.096 166.891 275.161 162.382 277.651 152.212V142.738C277.651 142.738 270.858 149.969 266.773 152.212C262.689 154.455 187.729 196.706 187.729 196.706C187.729 196.706 174.82 201.671 166.433 201.214C158.046 200.757 147.868 199.864 140.398 194.898C132.928 189.933 12.0129 121.286 12.0129 121.286C12.0129 121.286 1.59444 114.295 0 110.68V121.526C0 121.526 0.393149 128.516 7.9285 132.807Z" fill="#464E5F"/>
<path d="M0 110.68V96.676C0 96.676 7.71009 105.714 12.69 108.197C17.6699 110.68 137.253 179.326 137.253 179.326C137.253 179.326 157.631 189.04 166.914 187.45C166.914 187.45 187.75 185.86 195.679 178.869L268.827 136.64C268.827 136.64 275.401 134.615 277.651 127.841V142.738C277.651 142.738 271.841 149.141 268.302 151.232C264.764 153.323 192.053 194.267 192.053 194.267C192.053 194.267 180.477 201.671 166.433 201.214C152.389 200.757 142.32 196.031 142.32 196.031L14.5028 122.702C14.5028 122.702 1.13576 114.055 0 110.68Z" fill="#8C95AB"/>
<path d="M0 97.0245V83.0208C0 83.0208 7.71009 92.0589 12.69 94.5417C17.6699 97.0245 137.253 165.671 137.253 165.671C137.253 165.671 157.631 175.385 166.914 173.795C166.914 173.795 187.75 172.205 195.679 165.214L268.827 122.985C268.827 122.985 275.401 120.959 277.651 114.186V129.083C277.651 129.083 271.841 135.486 268.302 137.577C264.764 139.667 192.053 180.611 192.053 180.611C192.053 180.611 180.477 188.016 166.433 187.559C152.389 187.101 142.32 182.375 142.32 182.375L14.5028 109.046C14.5028 109.046 1.13576 100.4 0 97.0245Z" fill="#E0E9F6"/>
<path d="M0 83.0205V67.5576C0 67.5576 4.52121 76.1385 10.4184 79.0786C16.3157 82.0187 137.253 151.798 137.253 151.798C137.253 151.798 155.381 161.511 166.695 160.161C178.009 158.811 192.053 155.871 195.919 152.037L262.274 113.946C262.274 113.946 275.86 108.001 277.672 96.7194V114.23C277.672 114.23 276.558 118.585 268.848 123.028C261.138 127.471 196.553 164.756 196.553 164.756C196.553 164.756 186.178 173.49 166.935 173.838C166.935 173.838 153.83 175.21 137.275 165.715L9.80688 92.6685C9.80688 92.6685 4.52121 88.095 0 83.0205Z" fill="#8C95AB"/>
<path d="M111.217 21.9748L36.1916 66.0768L31.2772 63.3327L111.217 17.4448" fill="#8C95AB"/>
<path d="M244.692 95.8266L233.662 88.5743L179.014 56.2764L111.217 17.4448V21.9748L243.163 97.264L245.15 95.9355" fill="#8C95AB"/>
<path d="M55.6961 77.4454L79.3287 63.507C100.231 51.1802 126.201 51.202 147.06 63.5941L223.309 108.807L243.163 97.2858L111.217 21.9749L36.1916 66.0769L55.718 77.4236L55.6961 77.4454Z" fill="#464E5F"/>
<path d="M89.1793 75.5071L106.827 86.1133L87.8033 96.2623" stroke="#464E5F" stroke-width="0.25" stroke-miterlimit="10"/>
<path d="M70.8542 86.331L113.03 61.8953L208.871 117.083" stroke="#464E5F" stroke-width="0.25" stroke-miterlimit="10"/>
<path d="M137.406 125.707C145.222 125.707 151.559 121.895 151.559 117.192C151.559 112.489 145.222 108.676 137.406 108.676C129.589 108.676 123.252 112.489 123.252 117.192C123.252 121.895 129.589 125.707 137.406 125.707Z" stroke="#464E5F" stroke-width="0.25" stroke-miterlimit="10"/>
<path d="M129.848 120.698L171.61 96.676" stroke="#464E5F" stroke-width="0.25" stroke-miterlimit="10"/>
<path d="M265.9 80.0588C232.919 60.3926 158.439 18.2507 140.092 7.4484C127.621 0.980101 111.567 -2.13426 97.5446 1.61169C90.0093 3.35399 82.8452 6.29412 76.2054 10.1054C65.7432 15.855 48.401 25.6772 34.5534 33.5611C25.6857 38.7227 17.4296 43.0349 9.6103 47.9787C-4.95805 59.369 -2.07496 72.8718 13.2579 81.4962C30.9277 91.4927 93.4821 127.232 125.567 145.526C135.527 151.406 146.514 157.112 158.374 159.617C173.335 162.295 191.223 156.633 203.935 148.226C214.594 142.15 239.624 127.841 253.079 120.154C263.366 114.447 272.015 109.613 277.279 99.3548C280.73 92.538 271.098 83.979 266.118 80.1895L265.922 80.037L265.9 80.0588ZM166.389 141.17C136.51 125.511 43.6832 70.0406 33.3958 64.5305C32.1508 63.6812 32.4348 63.3327 33.92 62.3309C49.4276 53.0749 71.9899 39.8988 88.8298 29.9459C97.1952 25.0239 104.119 20.9295 107.526 18.9258C109.405 17.8369 110.344 17.3577 111.217 17.4449C125.72 25.6554 228.9 84.4146 245.15 95.9573C237.506 101.228 228.638 105.518 216.145 112.967C200.659 121.613 179.56 134.615 166.477 141.17H166.368H166.389Z" fill="#E0E9F6"/>
<path d="M55.6961 77.4454L76.6204 64.988C99.4885 50.1348 128.975 49.721 150.707 66.0987L223.309 108.785L208.849 117.105L113.03 61.9171L69.5655 85.5907L55.6961 76.6396" fill="#5F6688"/>
<path d="M259.238 135.638V137.468C259.238 138.47 258.692 139.384 257.818 139.885L197.623 173.991C195.963 174.927 193.932 173.729 193.932 171.835C193.932 170.963 194.412 170.136 195.155 169.7L256.617 134.136C257.775 133.46 259.216 134.288 259.216 135.638H259.238Z" fill="#464E5F"/>
<path d="M42.5038 121.504L103.354 156.284C104.468 156.916 105.866 156.11 105.866 154.825C105.866 153.148 104.971 151.624 103.529 150.774L43.4866 115.907C42.4164 115.297 41.1059 116.059 41.1059 117.279V119.086C41.1059 120.088 41.6301 121.003 42.5038 121.504Z" fill="#464E5F"/>
<path d="M137.537 49.3942C138.586 49.3942 139.437 48.5459 139.437 47.4995C139.437 46.453 138.586 45.6047 137.537 45.6047C136.487 45.6047 135.636 46.453 135.636 47.4995C135.636 48.5459 136.487 49.3942 137.537 49.3942Z" fill="#E0E9F6"/>
<path d="M140.332 45.0168C141.382 45.0168 142.233 44.1685 142.233 43.122C142.233 42.0756 141.382 41.2273 140.332 41.2273C139.283 41.2273 138.432 42.0756 138.432 43.122C138.432 44.1685 139.283 45.0168 140.332 45.0168Z" fill="#8BA8D5"/>
<path d="M144.723 47.1948C145.772 47.1948 146.623 46.3465 146.623 45.3C146.623 44.2536 145.772 43.4053 144.723 43.4053C143.673 43.4053 142.822 44.2536 142.822 45.3C142.822 46.3465 143.673 47.1948 144.723 47.1948Z" fill="#E0E9F6"/>
<path d="M142.233 51.6157C143.282 51.6157 144.133 50.7674 144.133 49.7209C144.133 48.6745 143.282 47.8262 142.233 47.8262C141.183 47.8262 140.332 48.6745 140.332 49.7209C140.332 50.7674 141.183 51.6157 142.233 51.6157Z" fill="#8796B8"/>
<path d="M134.26 54.5559C135.31 54.5559 136.161 53.7076 136.161 52.6611C136.161 51.6147 135.31 50.7664 134.26 50.7664C133.211 50.7664 132.36 51.6147 132.36 52.6611C132.36 53.7076 133.211 54.5559 134.26 54.5559Z" fill="#8C95AB"/>
<path d="M139.197 56.625C140.246 56.625 141.097 55.7766 141.097 54.7302C141.097 53.6838 140.246 52.8354 139.197 52.8354C138.147 52.8354 137.296 53.6838 137.296 54.7302C137.296 55.7766 138.147 56.625 139.197 56.625Z" fill="#8BA8D5"/>
<path d="M144.133 59.3908C145.182 59.3908 146.033 58.5425 146.033 57.4961C146.033 56.4496 145.182 55.6013 144.133 55.6013C143.083 55.6013 142.233 56.4496 142.233 57.4961C142.233 58.5425 143.083 59.3908 144.133 59.3908Z" fill="#E0E9F6"/>
<path d="M147.496 53.9897C148.546 53.9897 149.397 53.1414 149.397 52.0949C149.397 51.0485 148.546 50.2002 147.496 50.2002C146.447 50.2002 145.596 51.0485 145.596 52.0949C145.596 53.1414 146.447 53.9897 147.496 53.9897Z" fill="#8BA8D5"/>
<path d="M150.489 50.2002C151.538 50.2002 152.389 49.3518 152.389 48.3054C152.389 47.259 151.538 46.4106 150.489 46.4106C149.439 46.4106 148.588 47.259 148.588 48.3054C148.588 49.3518 149.439 50.2002 150.489 50.2002Z" fill="#5C667D"/>
<path d="M119.408 40.3125C120.458 40.3125 121.308 39.4641 121.308 38.4177C121.308 37.3713 120.458 36.5229 119.408 36.5229C118.359 36.5229 117.508 37.3713 117.508 38.4177C117.508 39.4641 118.359 40.3125 119.408 40.3125Z" fill="#E0E9F6"/>
<path d="M122.204 35.9567C123.253 35.9567 124.104 35.1084 124.104 34.062C124.104 33.0155 123.253 32.1672 122.204 32.1672C121.154 32.1672 120.304 33.0155 120.304 34.062C120.304 35.1084 121.154 35.9567 122.204 35.9567Z" fill="#8BA8D5"/>
<path d="M126.594 38.1347C127.643 38.1347 128.494 37.2864 128.494 36.24C128.494 35.1935 127.643 34.3452 126.594 34.3452C125.545 34.3452 124.694 35.1935 124.694 36.24C124.694 37.2864 125.545 38.1347 126.594 38.1347Z" fill="#E0E9F6"/>
<path d="M124.104 42.5339C125.154 42.5339 126.004 41.6856 126.004 40.6391C126.004 39.5927 125.154 38.7444 124.104 38.7444C123.055 38.7444 122.204 39.5927 122.204 40.6391C122.204 41.6856 123.055 42.5339 124.104 42.5339Z" fill="#8796B8"/>
<path d="M116.132 45.4741C117.181 45.4741 118.032 44.6258 118.032 43.5793C118.032 42.5329 117.181 41.6846 116.132 41.6846C115.082 41.6846 114.232 42.5329 114.232 43.5793C114.232 44.6258 115.082 45.4741 116.132 45.4741Z" fill="#8C95AB"/>
<path d="M121.068 47.5649C122.117 47.5649 122.968 46.7166 122.968 45.6701C122.968 44.6237 122.117 43.7754 121.068 43.7754C120.019 43.7754 119.168 44.6237 119.168 45.6701C119.168 46.7166 120.019 47.5649 121.068 47.5649Z" fill="#8BA8D5"/>
<path d="M126.004 50.309C127.054 50.309 127.904 49.4607 127.904 48.4143C127.904 47.3678 127.054 46.5195 126.004 46.5195C124.955 46.5195 124.104 47.3678 124.104 48.4143C124.104 49.4607 124.955 50.309 126.004 50.309Z" fill="#E0E9F6"/>
<path d="M129.368 44.9079C130.417 44.9079 131.268 44.0596 131.268 43.0132C131.268 41.9667 130.417 41.1184 129.368 41.1184C128.318 41.1184 127.468 41.9667 127.468 43.0132C127.468 44.0596 128.318 44.9079 129.368 44.9079Z" fill="#8BA8D5"/>
<path d="M132.36 41.1184C133.41 41.1184 134.26 40.2701 134.26 39.2236C134.26 38.1772 133.41 37.3289 132.36 37.3289C131.311 37.3289 130.46 38.1772 130.46 39.2236C130.46 40.2701 131.311 41.1184 132.36 41.1184Z" fill="#5C667D"/>
<path d="M99.7288 42.8388C100.778 42.8388 101.629 41.9905 101.629 40.9441C101.629 39.8976 100.778 39.0493 99.7288 39.0493C98.6793 39.0493 97.8286 39.8976 97.8286 40.9441C97.8286 41.9905 98.6793 42.8388 99.7288 42.8388Z" fill="#E0E9F6"/>
<path d="M96.9112 38.4831C97.9607 38.4831 98.8114 37.6348 98.8114 36.5884C98.8114 35.5419 97.9607 34.6936 96.9112 34.6936C95.8617 34.6936 95.011 35.5419 95.011 36.5884C95.011 37.6348 95.8617 38.4831 96.9112 38.4831Z" fill="#8BA8D5"/>
<path d="M92.521 40.6611C93.5705 40.6611 94.4213 39.8128 94.4213 38.7663C94.4213 37.7199 93.5705 36.8716 92.521 36.8716C91.4716 36.8716 90.6208 37.7199 90.6208 38.7663C90.6208 39.8128 91.4716 40.6611 92.521 40.6611Z" fill="#E0E9F6"/>
<path d="M95.011 45.0603C96.0605 45.0603 96.9112 44.2119 96.9112 43.1655C96.9112 42.1191 96.0605 41.2708 95.011 41.2708C93.9615 41.2708 93.1108 42.1191 93.1108 43.1655C93.1108 44.2119 93.9615 45.0603 95.011 45.0603Z" fill="#8796B8"/>
<path d="M102.983 48.0004C104.033 48.0004 104.883 47.1521 104.883 46.1057C104.883 45.0592 104.033 44.2109 102.983 44.2109C101.934 44.2109 101.083 45.0592 101.083 46.1057C101.083 47.1521 101.934 48.0004 102.983 48.0004Z" fill="#8C95AB"/>
<path d="M98.047 50.0913C99.0964 50.0913 99.9472 49.243 99.9472 48.1965C99.9472 47.1501 99.0964 46.3018 98.047 46.3018C96.9975 46.3018 96.1468 47.1501 96.1468 48.1965C96.1468 49.243 96.9975 50.0913 98.047 50.0913Z" fill="#8BA8D5"/>
<path d="M93.1108 52.8354C94.1602 52.8354 95.011 51.9871 95.011 50.9406C95.011 49.8942 94.1602 49.0459 93.1108 49.0459C92.0613 49.0459 91.2105 49.8942 91.2105 50.9406C91.2105 51.9871 92.0613 52.8354 93.1108 52.8354Z" fill="#E0E9F6"/>
<path d="M89.7472 47.456C90.7966 47.456 91.6474 46.6077 91.6474 45.5613C91.6474 44.5148 90.7966 43.6665 89.7472 43.6665C88.6977 43.6665 87.847 44.5148 87.847 45.5613C87.847 46.6077 88.6977 47.456 89.7472 47.456Z" fill="#8BA8D5"/>
<path d="M86.7549 43.6665C87.8043 43.6665 88.6551 42.8182 88.6551 41.7717C88.6551 40.7253 87.8043 39.877 86.7549 39.877C85.7054 39.877 84.8546 40.7253 84.8546 41.7717C84.8546 42.8182 85.7054 43.6665 86.7549 43.6665Z" fill="#5C667D"/>
<path d="M82.6923 51.7463C83.7418 51.7463 84.5926 50.898 84.5926 49.8515C84.5926 48.8051 83.7418 47.9568 82.6923 47.9568C81.6429 47.9568 80.7921 48.8051 80.7921 49.8515C80.7921 50.898 81.6429 51.7463 82.6923 51.7463Z" fill="#E0E9F6"/>
<path d="M79.8747 47.3689C80.9242 47.3689 81.775 46.5205 81.775 45.4741C81.775 44.4277 80.9242 43.5793 79.8747 43.5793C78.8253 43.5793 77.9745 44.4277 77.9745 45.4741C77.9745 46.5205 78.8253 47.3689 79.8747 47.3689Z" fill="#8BA8D5"/>
<path d="M75.5064 49.5468C76.5559 49.5468 77.4066 48.6985 77.4066 47.6521C77.4066 46.6056 76.5559 45.7573 75.5064 45.7573C74.457 45.7573 73.6062 46.6056 73.6062 47.6521C73.6062 48.6985 74.457 49.5468 75.5064 49.5468Z" fill="#E0E9F6"/>
<path d="M77.9745 53.9677C79.024 53.9677 79.8747 53.1194 79.8747 52.073C79.8747 51.0265 79.024 50.1782 77.9745 50.1782C76.9251 50.1782 76.0743 51.0265 76.0743 52.073C76.0743 53.1194 76.9251 53.9677 77.9745 53.9677Z" fill="#8796B8"/>
<path d="M85.9467 56.9079C86.9962 56.9079 87.847 56.0596 87.847 55.0132C87.847 53.9667 86.9962 53.1184 85.9467 53.1184C84.8973 53.1184 84.0465 53.9667 84.0465 55.0132C84.0465 56.0596 84.8973 56.9079 85.9467 56.9079Z" fill="#8C95AB"/>
<path d="M81.0105 58.977C82.06 58.977 82.9107 58.1287 82.9107 57.0823C82.9107 56.0358 82.06 55.1875 81.0105 55.1875C79.961 55.1875 79.1103 56.0358 79.1103 57.0823C79.1103 58.1287 79.961 58.977 81.0105 58.977Z" fill="#8BA8D5"/>
<path d="M76.0743 61.7429C77.1238 61.7429 77.9745 60.8946 77.9745 59.8481C77.9745 58.8017 77.1238 57.9534 76.0743 57.9534C75.0249 57.9534 74.1741 58.8017 74.1741 59.8481C74.1741 60.8946 75.0249 61.7429 76.0743 61.7429Z" fill="#E0E9F6"/>
<path d="M72.7107 56.3418C73.7602 56.3418 74.6109 55.4934 74.6109 54.447C74.6109 53.4006 73.7602 52.5522 72.7107 52.5522C71.6612 52.5522 70.8105 53.4006 70.8105 54.447C70.8105 55.4934 71.6612 56.3418 72.7107 56.3418Z" fill="#8BA8D5"/>
<path d="M69.7184 52.5522C70.7679 52.5522 71.6186 51.7039 71.6186 50.6575C71.6186 49.611 70.7679 48.7627 69.7184 48.7627C68.6689 48.7627 67.8182 49.611 67.8182 50.6575C67.8182 51.7039 68.6689 52.5522 69.7184 52.5522Z" fill="#5C667D"/>
<path d="M66.464 60.9804C67.5135 60.9804 68.3642 60.1321 68.3642 59.0857C68.3642 58.0392 67.5135 57.1909 66.464 57.1909C65.4145 57.1909 64.5638 58.0392 64.5638 59.0857C64.5638 60.1321 65.4145 60.9804 66.464 60.9804Z" fill="#E0E9F6"/>
<path d="M63.6464 56.6247C64.6959 56.6247 65.5467 55.7764 65.5467 54.73C65.5467 53.6835 64.6959 52.8352 63.6464 52.8352C62.597 52.8352 61.7462 53.6835 61.7462 54.73C61.7462 55.7764 62.597 56.6247 63.6464 56.6247Z" fill="#8BA8D5"/>
<path d="M59.2563 58.7807C60.3057 58.7807 61.1565 57.9324 61.1565 56.886C61.1565 55.8395 60.3057 54.9912 59.2563 54.9912C58.2068 54.9912 57.356 55.8395 57.356 56.886C57.356 57.9324 58.2068 58.7807 59.2563 58.7807Z" fill="#E0E9F6"/>
<path d="M61.7462 63.2019C62.7957 63.2019 63.6464 62.3535 63.6464 61.3071C63.6464 60.2607 62.7957 59.4124 61.7462 59.4124C60.6968 59.4124 59.846 60.2607 59.846 61.3071C59.846 62.3535 60.6968 63.2019 61.7462 63.2019Z" fill="#8796B8"/>
<path d="M69.7184 66.142C70.7679 66.142 71.6186 65.2937 71.6186 64.2473C71.6186 63.2009 70.7679 62.3525 69.7184 62.3525C68.6689 62.3525 67.8182 63.2009 67.8182 64.2473C67.8182 65.2937 68.6689 66.142 69.7184 66.142Z" fill="#8C95AB"/>
<path d="M64.7822 68.2109C65.8317 68.2109 66.6824 67.3626 66.6824 66.3161C66.6824 65.2697 65.8317 64.4214 64.7822 64.4214C63.7327 64.4214 62.882 65.2697 62.882 66.3161C62.882 67.3626 63.7327 68.2109 64.7822 68.2109Z" fill="#8BA8D5"/>
<path d="M52.2014 68.9296C53.2509 68.9296 54.1016 68.0813 54.1016 67.0349C54.1016 65.9884 53.2509 65.1401 52.2014 65.1401C51.152 65.1401 50.3012 65.9884 50.3012 67.0349C50.3012 68.0813 51.152 68.9296 52.2014 68.9296Z" fill="#E0E9F6"/>
<path d="M49.3839 64.5522C50.4333 64.5522 51.2841 63.7039 51.2841 62.6575C51.2841 61.611 50.4333 60.7627 49.3839 60.7627C48.3344 60.7627 47.4836 61.611 47.4836 62.6575C47.4836 63.7039 48.3344 64.5522 49.3839 64.5522Z" fill="#8BA8D5"/>
<path d="M45.0155 66.7299C46.065 66.7299 46.9158 65.8816 46.9158 64.8352C46.9158 63.7887 46.065 62.9404 45.0155 62.9404C43.9661 62.9404 43.1153 63.7887 43.1153 64.8352C43.1153 65.8816 43.9661 66.7299 45.0155 66.7299Z" fill="#E0E9F6"/>
<path d="M47.4837 71.1511C48.5331 71.1511 49.3839 70.3028 49.3839 69.2563C49.3839 68.2099 48.5331 67.3616 47.4837 67.3616C46.4342 67.3616 45.5834 68.2099 45.5834 69.2563C45.5834 70.3028 46.4342 71.1511 47.4837 71.1511Z" fill="#8796B8"/>
<path d="M55.4558 74.0913C56.5053 74.0913 57.356 73.243 57.356 72.1965C57.356 71.1501 56.5053 70.3018 55.4558 70.3018C54.4064 70.3018 53.5556 71.1501 53.5556 72.1965C53.5556 73.243 54.4064 74.0913 55.4558 74.0913Z" fill="#8C95AB"/>
<path d="M59.846 70.977C60.8955 70.977 61.7462 70.1287 61.7462 69.0823C61.7462 68.0358 60.8955 67.1875 59.846 67.1875C58.7965 67.1875 57.9458 68.0358 57.9458 69.0823C57.9458 70.1287 58.7965 70.977 59.846 70.977Z" fill="#E0E9F6"/>
<path d="M56.4824 65.5759C57.5319 65.5759 58.3826 64.7276 58.3826 63.6811C58.3826 62.6347 57.5319 61.7864 56.4824 61.7864C55.4329 61.7864 54.5822 62.6347 54.5822 63.6811C54.5822 64.7276 55.4329 65.5759 56.4824 65.5759Z" fill="#8BA8D5"/>
<path d="M53.4901 61.7863C54.5396 61.7863 55.3903 60.938 55.3903 59.8916C55.3903 58.8451 54.5396 57.9968 53.4901 57.9968C52.4406 57.9968 51.5899 58.8451 51.5899 59.8916C51.5899 60.938 52.4406 61.7863 53.4901 61.7863Z" fill="#5C667D"/>
<path d="M113.576 31.9277C114.626 31.9277 115.477 31.0794 115.477 30.0329C115.477 28.9865 114.626 28.1382 113.576 28.1382C112.527 28.1382 111.676 28.9865 111.676 30.0329C111.676 31.0794 112.527 31.9277 113.576 31.9277Z" fill="#E0E9F6"/>
<path d="M109.951 28.2036C111 28.2036 111.851 27.3553 111.851 26.3088C111.851 25.2624 111 24.4141 109.951 24.4141C108.901 24.4141 108.05 25.2624 108.05 26.3088C108.05 27.3553 108.901 28.2036 109.951 28.2036Z" fill="#8BA8D5"/>
<path d="M106.085 31.2089C107.134 31.2089 107.985 30.3606 107.985 29.3142C107.985 28.2677 107.134 27.4194 106.085 27.4194C105.035 27.4194 104.184 28.2677 104.184 29.3142C104.184 30.3606 105.035 31.2089 106.085 31.2089Z" fill="#E0E9F6"/>
<path d="M109.383 35.0422C110.432 35.0422 111.283 34.1939 111.283 33.1474C111.283 32.101 110.432 31.2527 109.383 31.2527C108.333 31.2527 107.483 32.101 107.483 33.1474C107.483 34.1939 108.333 35.0422 109.383 35.0422Z" fill="#8796B8"/>
<path d="M117.792 36.3488C118.841 36.3488 119.692 35.5005 119.692 34.4541C119.692 33.4076 118.841 32.5593 117.792 32.5593C116.742 32.5593 115.892 33.4076 115.892 34.4541C115.892 35.5005 116.742 36.3488 117.792 36.3488Z" fill="#8C95AB"/>
<path d="M113.358 39.3542C114.407 39.3542 115.258 38.5059 115.258 37.4595C115.258 36.413 114.407 35.5647 113.358 35.5647C112.308 35.5647 111.458 36.413 111.458 37.4595C111.458 38.5059 112.308 39.3542 113.358 39.3542Z" fill="#8BA8D5"/>
<path d="M109.077 43.0349C110.126 43.0349 110.977 42.1866 110.977 41.1401C110.977 40.0937 110.126 39.2454 109.077 39.2454C108.028 39.2454 107.177 40.0937 107.177 41.1401C107.177 42.1866 108.028 43.0349 109.077 43.0349Z" fill="#E0E9F6"/>
<path d="M104.709 38.3959C105.758 38.3959 106.609 37.5476 106.609 36.5012C106.609 35.4548 105.758 34.6064 104.709 34.6064C103.659 34.6064 102.808 35.4548 102.808 36.5012C102.808 37.5476 103.659 38.3959 104.709 38.3959Z" fill="#8BA8D5"/>
<path d="M101.017 35.2817C102.067 35.2817 102.918 34.4334 102.918 33.3869C102.918 32.3405 102.067 31.4922 101.017 31.4922C99.968 31.4922 99.1172 32.3405 99.1172 33.3869C99.1172 34.4334 99.968 35.2817 101.017 35.2817Z" fill="#5C667D"/>
<path d="M153.765 58.476C154.814 58.476 155.665 57.6277 155.665 56.5813C155.665 55.5348 154.814 54.6865 153.765 54.6865C152.715 54.6865 151.865 55.5348 151.865 56.5813C151.865 57.6277 152.715 58.476 153.765 58.476Z" fill="#E0E9F6"/>
<path d="M156.583 54.0986C157.632 54.0986 158.483 53.2503 158.483 52.2038C158.483 51.1574 157.632 50.3091 156.583 50.3091C155.533 50.3091 154.682 51.1574 154.682 52.2038C154.682 53.2503 155.533 54.0986 156.583 54.0986Z" fill="#8BA8D5"/>
<path d="M160.951 56.2766C162 56.2766 162.851 55.4283 162.851 54.3818C162.851 53.3354 162 52.4871 160.951 52.4871C159.901 52.4871 159.051 53.3354 159.051 54.3818C159.051 55.4283 159.901 56.2766 160.951 56.2766Z" fill="#E0E9F6"/>
<path d="M158.483 60.6975C159.532 60.6975 160.383 59.8492 160.383 58.8027C160.383 57.7563 159.532 56.908 158.483 56.908C157.433 56.908 156.582 57.7563 156.582 58.8027C156.582 59.8492 157.433 60.6975 158.483 60.6975Z" fill="#8796B8"/>
<path d="M150.489 63.6377C151.538 63.6377 152.389 62.7893 152.389 61.7429C152.389 60.6965 151.538 59.8481 150.489 59.8481C149.439 59.8481 148.588 60.6965 148.588 61.7429C148.588 62.7893 149.439 63.6377 150.489 63.6377Z" fill="#8C95AB"/>
<path d="M155.425 65.7067C156.474 65.7067 157.325 64.8584 157.325 63.812C157.325 62.7655 156.474 61.9172 155.425 61.9172C154.375 61.9172 153.525 62.7655 153.525 63.812C153.525 64.8584 154.375 65.7067 155.425 65.7067Z" fill="#8BA8D5"/>
<path d="M160.361 68.4726C161.411 68.4726 162.261 67.6243 162.261 66.5779C162.261 65.5314 161.411 64.6831 160.361 64.6831C159.312 64.6831 158.461 65.5314 158.461 66.5779C158.461 67.6243 159.312 68.4726 160.361 68.4726Z" fill="#E0E9F6"/>
<path d="M163.747 63.0715C164.796 63.0715 165.647 62.2232 165.647 61.1767C165.647 60.1303 164.796 59.282 163.747 59.282C162.697 59.282 161.846 60.1303 161.846 61.1767C161.846 62.2232 162.697 63.0715 163.747 63.0715Z" fill="#8BA8D5"/>
<path d="M166.739 59.2819C167.788 59.2819 168.639 58.4336 168.639 57.3872C168.639 56.3407 167.788 55.4924 166.739 55.4924C165.689 55.4924 164.839 56.3407 164.839 57.3872C164.839 58.4336 165.689 59.2819 166.739 59.2819Z" fill="#5C667D"/>
<path d="M170.823 68.8425C171.873 68.8425 172.723 67.9942 172.723 66.9477C172.723 65.9013 171.873 65.053 170.823 65.053C169.774 65.053 168.923 65.9013 168.923 66.9477C168.923 67.9942 169.774 68.8425 170.823 68.8425Z" fill="#E0E9F6"/>
<path d="M173.619 64.465C174.668 64.465 175.519 63.6167 175.519 62.5703C175.519 61.5238 174.668 60.6755 173.619 60.6755C172.569 60.6755 171.719 61.5238 171.719 62.5703C171.719 63.6167 172.569 64.465 173.619 64.465Z" fill="#8BA8D5"/>
<path d="M178.009 66.643C179.059 66.643 179.909 65.7947 179.909 64.7483C179.909 63.7018 179.059 62.8535 178.009 62.8535C176.96 62.8535 176.109 63.7018 176.109 64.7483C176.109 65.7947 176.96 66.643 178.009 66.643Z" fill="#E0E9F6"/>
<path d="M175.519 71.0639C176.569 71.0639 177.419 70.2156 177.419 69.1692C177.419 68.1227 176.569 67.2744 175.519 67.2744C174.47 67.2744 173.619 68.1227 173.619 69.1692C173.619 70.2156 174.47 71.0639 175.519 71.0639Z" fill="#8796B8"/>
<path d="M167.547 74.0041C168.596 74.0041 169.447 73.1558 169.447 72.1093C169.447 71.0629 168.596 70.2146 167.547 70.2146C166.498 70.2146 165.647 71.0629 165.647 72.1093C165.647 73.1558 166.498 74.0041 167.547 74.0041Z" fill="#8C95AB"/>
<path d="M172.483 76.0732C173.533 76.0732 174.383 75.2249 174.383 74.1785C174.383 73.132 173.533 72.2837 172.483 72.2837C171.434 72.2837 170.583 73.132 170.583 74.1785C170.583 75.2249 171.434 76.0732 172.483 76.0732Z" fill="#8BA8D5"/>
<path d="M177.419 78.8391C178.469 78.8391 179.32 77.9908 179.32 76.9443C179.32 75.8979 178.469 75.0496 177.419 75.0496C176.37 75.0496 175.519 75.8979 175.519 76.9443C175.519 77.9908 176.37 78.8391 177.419 78.8391Z" fill="#E0E9F6"/>
<path d="M180.783 73.4379C181.832 73.4379 182.683 72.5896 182.683 71.5432C182.683 70.4967 181.832 69.6484 180.783 69.6484C179.734 69.6484 178.883 70.4967 178.883 71.5432C178.883 72.5896 179.734 73.4379 180.783 73.4379Z" fill="#8BA8D5"/>
<path d="M183.775 69.6484C184.825 69.6484 185.676 68.8001 185.676 67.7536C185.676 66.7072 184.825 65.8589 183.775 65.8589C182.726 65.8589 181.875 66.7072 181.875 67.7536C181.875 68.8001 182.726 69.6484 183.775 69.6484Z" fill="#5C667D"/>
<path d="M187.052 77.9243C188.101 77.9243 188.952 77.076 188.952 76.0295C188.952 74.9831 188.101 74.1348 187.052 74.1348C186.002 74.1348 185.151 74.9831 185.151 76.0295C185.151 77.076 186.002 77.9243 187.052 77.9243Z" fill="#E0E9F6"/>
<path d="M189.869 73.5468C190.919 73.5468 191.769 72.6985 191.769 71.6521C191.769 70.6056 190.919 69.7573 189.869 69.7573C188.82 69.7573 187.969 70.6056 187.969 71.6521C187.969 72.6985 188.82 73.5468 189.869 73.5468Z" fill="#8BA8D5"/>
<path d="M194.237 75.7248C195.287 75.7248 196.138 74.8765 196.138 73.8301C196.138 72.7836 195.287 71.9353 194.237 71.9353C193.188 71.9353 192.337 72.7836 192.337 73.8301C192.337 74.8765 193.188 75.7248 194.237 75.7248Z" fill="#E0E9F6"/>
<path d="M191.769 80.1457C192.819 80.1457 193.67 79.2974 193.67 78.251C193.67 77.2045 192.819 76.3562 191.769 76.3562C190.72 76.3562 189.869 77.2045 189.869 78.251C189.869 79.2974 190.72 80.1457 191.769 80.1457Z" fill="#8796B8"/>
<path d="M183.775 83.0859C184.825 83.0859 185.676 82.2376 185.676 81.1911C185.676 80.1447 184.825 79.2964 183.775 79.2964C182.726 79.2964 181.875 80.1447 181.875 81.1911C181.875 82.2376 182.726 83.0859 183.775 83.0859Z" fill="#8C95AB"/>
<path d="M188.712 85.155C189.761 85.155 190.612 84.3067 190.612 83.2602C190.612 82.2138 189.761 81.3655 188.712 81.3655C187.662 81.3655 186.811 82.2138 186.811 83.2602C186.811 84.3067 187.662 85.155 188.712 85.155Z" fill="#8BA8D5"/>
<path d="M193.648 87.9208C194.697 87.9208 195.548 87.0725 195.548 86.0261C195.548 84.9797 194.697 84.1313 193.648 84.1313C192.598 84.1313 191.747 84.9797 191.747 86.0261C191.747 87.0725 192.598 87.9208 193.648 87.9208Z" fill="#E0E9F6"/>
<path d="M197.033 82.5197C198.083 82.5197 198.933 81.6714 198.933 80.625C198.933 79.5785 198.083 78.7302 197.033 78.7302C195.984 78.7302 195.133 79.5785 195.133 80.625C195.133 81.6714 195.984 82.5197 197.033 82.5197Z" fill="#8BA8D5"/>
<path d="M200.025 78.7302C201.075 78.7302 201.926 77.8819 201.926 76.8354C201.926 75.789 201.075 74.9407 200.025 74.9407C198.976 74.9407 198.125 75.789 198.125 76.8354C198.125 77.8819 198.976 78.7302 200.025 78.7302Z" fill="#5C667D"/>
<path d="M203.28 86.3962C204.329 86.3962 205.18 85.5479 205.18 84.5014C205.18 83.455 204.329 82.6067 203.28 82.6067C202.23 82.6067 201.38 83.455 201.38 84.5014C201.38 85.5479 202.23 86.3962 203.28 86.3962Z" fill="#E0E9F6"/>
<path d="M206.097 82.0188C207.147 82.0188 207.998 81.1704 207.998 80.124C207.998 79.0776 207.147 78.2292 206.097 78.2292C205.048 78.2292 204.197 79.0776 204.197 80.124C204.197 81.1704 205.048 82.0188 206.097 82.0188Z" fill="#8BA8D5"/>
<path d="M210.466 84.1967C211.515 84.1967 212.366 83.3484 212.366 82.302C212.366 81.2555 211.515 80.4072 210.466 80.4072C209.416 80.4072 208.566 81.2555 208.566 82.302C208.566 83.3484 209.416 84.1967 210.466 84.1967Z" fill="#E0E9F6"/>
<path d="M207.998 88.6176C209.047 88.6176 209.898 87.7693 209.898 86.7229C209.898 85.6764 209.047 84.8281 207.998 84.8281C206.948 84.8281 206.097 85.6764 206.097 86.7229C206.097 87.7693 206.948 88.6176 207.998 88.6176Z" fill="#8796B8"/>
<path d="M200.025 91.5578C201.075 91.5578 201.926 90.7095 201.926 89.6631C201.926 88.6166 201.075 87.7683 200.025 87.7683C198.976 87.7683 198.125 88.6166 198.125 89.6631C198.125 90.7095 198.976 91.5578 200.025 91.5578Z" fill="#8C95AB"/>
<path d="M204.94 93.6269C205.989 93.6269 206.84 92.7786 206.84 91.7322C206.84 90.6857 205.989 89.8374 204.94 89.8374C203.89 89.8374 203.04 90.6857 203.04 91.7322C203.04 92.7786 203.89 93.6269 204.94 93.6269Z" fill="#8BA8D5"/>
<path d="M209.898 96.3928C210.947 96.3928 211.798 95.5445 211.798 94.498C211.798 93.4516 210.947 92.6033 209.898 92.6033C208.848 92.6033 207.998 93.4516 207.998 94.498C207.998 95.5445 208.848 96.3928 209.898 96.3928Z" fill="#E0E9F6"/>
<path d="M213.261 90.9916C214.311 90.9916 215.162 90.1433 215.162 89.0969C215.162 88.0505 214.311 87.2021 213.261 87.2021C212.212 87.2021 211.361 88.0505 211.361 89.0969C211.361 90.1433 212.212 90.9916 213.261 90.9916Z" fill="#8BA8D5"/>
<path d="M216.254 87.2021C217.303 87.2021 218.154 86.3538 218.154 85.3073C218.154 84.2609 217.303 83.4126 216.254 83.4126C215.204 83.4126 214.354 84.2609 214.354 85.3073C214.354 86.3538 215.204 87.2021 216.254 87.2021Z" fill="#5C667D"/>
<path d="M218.482 95.7612C219.531 95.7612 220.382 94.9129 220.382 93.8664C220.382 92.82 219.531 91.9717 218.482 91.9717C217.432 91.9717 216.581 92.82 216.581 93.8664C216.581 94.9129 217.432 95.7612 218.482 95.7612Z" fill="#E0E9F6"/>
<path d="M221.277 91.3837C222.327 91.3837 223.178 90.5354 223.178 89.489C223.178 88.4425 222.327 87.5942 221.277 87.5942C220.228 87.5942 219.377 88.4425 219.377 89.489C219.377 90.5354 220.228 91.3837 221.277 91.3837Z" fill="#8BA8D5"/>
<path d="M225.667 93.5617C226.717 93.5617 227.568 92.7134 227.568 91.667C227.568 90.6205 226.717 89.7722 225.667 89.7722C224.618 89.7722 223.767 90.6205 223.767 91.667C223.767 92.7134 224.618 93.5617 225.667 93.5617Z" fill="#E0E9F6"/>
<path d="M223.178 97.9826C224.227 97.9826 225.078 97.1343 225.078 96.0879C225.078 95.0414 224.227 94.1931 223.178 94.1931C222.128 94.1931 221.277 95.0414 221.277 96.0879C221.277 97.1343 222.128 97.9826 223.178 97.9826Z" fill="#8796B8"/>
<path d="M215.205 100.923C216.255 100.923 217.106 100.075 217.106 99.0281C217.106 97.9816 216.255 97.1333 215.205 97.1333C214.156 97.1333 213.305 97.9816 213.305 99.0281C213.305 100.075 214.156 100.923 215.205 100.923Z" fill="#8C95AB"/>
<path d="M220.142 102.992C221.191 102.992 222.042 102.144 222.042 101.097C222.042 100.051 221.191 99.2024 220.142 99.2024C219.092 99.2024 218.241 100.051 218.241 101.097C218.241 102.144 219.092 102.992 220.142 102.992Z" fill="#8BA8D5"/>
<path d="M225.078 105.758C226.127 105.758 226.978 104.909 226.978 103.863C226.978 102.817 226.127 101.968 225.078 101.968C224.028 101.968 223.178 102.817 223.178 103.863C223.178 104.909 224.028 105.758 225.078 105.758Z" fill="#E0E9F6"/>
<path d="M228.441 100.357C229.491 100.357 230.342 99.5083 230.342 98.4619C230.342 97.4154 229.491 96.5671 228.441 96.5671C227.392 96.5671 226.541 97.4154 226.541 98.4619C226.541 99.5083 227.392 100.357 228.441 100.357Z" fill="#8BA8D5"/>
<path d="M231.434 96.5671C232.483 96.5671 233.334 95.7188 233.334 94.6723C233.334 93.6259 232.483 92.7776 231.434 92.7776C230.384 92.7776 229.533 93.6259 229.533 94.6723C229.533 95.7188 230.384 96.5671 231.434 96.5671Z" fill="#5C667D"/>
</g>
<defs>
<clipPath id="clip0_80_6">
<rect width="278" height="215" fill="white"/>
</clipPath>
</defs>
</svg>
